<?xml version="1.0" encoding="utf-8"?>
<!-- Generator: Adobe Illustrator 16.0.0, SVG Export Plug-In . SVG Version: 6.00 Build 0)  -->
<!DOCTYPE svg PUBLIC "-//W3C//DTD SVG 1.1//EN" "http://www.w3.org/Graphics/SVG/1.1/DTD/svg11.dtd">
<svg version="1.1" id="Layer_1" xmlns="http://www.w3.org/2000/svg" xmlns:xlink="http://www.w3.org/1999/xlink" x="0px" y="0px"
	 width="114px" height="100.276px" viewBox="0 0 114 100.276" enable-background="new 0 0 114 100.276" xml:space="preserve">
<polygon fill="#031C2D" points="7.963,52.518 7.963,62.813 14.871,62.813 14.871,61.504 9.359,61.504 9.359,58.203 14.243,58.203 
	14.243,56.895 9.359,56.895 9.359,53.827 14.608,53.827 14.608,52.518 "/>
<g>
	<path fill="#031C2D" d="M18.098,52.518h3.592c0.727,0,1.364,0.082,1.912,0.247c0.547,0.165,1.022,0.385,1.425,0.662
		c0.402,0.276,0.736,0.593,1.003,0.951c0.267,0.359,0.477,0.727,0.633,1.106c0.155,0.379,0.266,0.756,0.334,1.134
		s0.102,0.727,0.102,1.047c0,0.66-0.121,1.297-0.364,1.913c-0.242,0.615-0.601,1.162-1.075,1.643
		c-0.476,0.48-1.065,0.865-1.767,1.156c-0.703,0.291-1.515,0.435-2.436,0.435h-3.359V52.518z M19.494,61.504h1.76
		c0.591,0,1.15-0.08,1.68-0.24c0.527-0.16,0.99-0.4,1.388-0.72c0.398-0.32,0.712-0.72,0.945-1.199c0.233-0.48,0.349-1.04,0.349-1.68
		c0-0.329-0.053-0.715-0.161-1.156c-0.106-0.441-0.307-0.86-0.603-1.258c-0.296-0.397-0.705-0.734-1.229-1.01
		c-0.523-0.277-1.201-0.415-2.035-0.415h-2.094V61.504z"/>
	<polygon fill="#031C2D" points="28.989,52.518 30.442,52.518 32.719,60.747 32.747,60.747 35.169,52.518 36.769,52.518 
		39.189,60.747 39.218,60.747 41.494,52.518 42.949,52.518 39.953,62.813 38.47,62.813 35.983,54.408 35.955,54.408 33.482,62.813 
		31.999,62.813 	"/>
	<path fill="#031C2D" d="M48.357,52.518h1.265l4.406,10.295h-1.629l-1.032-2.545h-4.9l-1.018,2.545h-1.628L48.357,52.518z
		 M50.858,59.046l-1.92-4.726h-0.029l-1.948,4.726H50.858z"/>
	<path fill="#031C2D" d="M56.559,52.518h3.621c0.657,0,1.202,0.09,1.628,0.269c0.427,0.179,0.764,0.407,1.011,0.684
		c0.247,0.275,0.418,0.586,0.516,0.93c0.098,0.344,0.146,0.676,0.146,0.996c0,0.33-0.06,0.647-0.175,0.953
		c-0.116,0.305-0.284,0.581-0.501,0.828c-0.22,0.248-0.486,0.456-0.802,0.625c-0.313,0.171-0.667,0.274-1.054,0.313l2.923,4.697
		h-1.745l-2.616-4.537h-1.557v4.537h-1.396V52.518z M57.954,57.055h1.832c0.271,0,0.54-0.022,0.808-0.066
		c0.266-0.043,0.504-0.123,0.713-0.239c0.208-0.117,0.375-0.284,0.501-0.502c0.127-0.218,0.189-0.502,0.189-0.851
		c0-0.348-0.063-0.633-0.189-0.85c-0.126-0.219-0.293-0.385-0.501-0.502c-0.209-0.116-0.447-0.197-0.713-0.24
		c-0.268-0.044-0.536-0.065-0.808-0.065h-1.832V57.055z"/>
	<path fill="#031C2D" d="M66.693,52.518h3.591c0.728,0,1.365,0.082,1.913,0.247s1.022,0.385,1.425,0.662
		c0.402,0.276,0.736,0.593,1.003,0.951c0.267,0.359,0.479,0.727,0.632,1.106c0.156,0.379,0.268,0.756,0.336,1.134
		c0.066,0.378,0.101,0.727,0.101,1.047c0,0.66-0.12,1.297-0.363,1.913c-0.242,0.615-0.601,1.162-1.076,1.643
		c-0.475,0.48-1.063,0.865-1.766,1.156c-0.703,0.291-1.515,0.435-2.436,0.435h-3.359V52.518z M68.089,61.504h1.761
		c0.591,0,1.15-0.08,1.679-0.24c0.528-0.16,0.99-0.4,1.389-0.72c0.397-0.32,0.712-0.72,0.944-1.199c0.233-0.48,0.35-1.04,0.35-1.68
		c0-0.329-0.054-0.715-0.161-1.156c-0.105-0.441-0.308-0.86-0.603-1.258c-0.296-0.397-0.705-0.734-1.228-1.01
		c-0.524-0.277-1.202-0.415-2.036-0.415h-2.095V61.504z"/>
	<rect x="78.603" y="52.518" fill="#031C2D" width="1.396" height="10.295"/>
	<path fill="#031C2D" d="M87.355,52.518h1.266l4.405,10.295h-1.629l-1.031-2.545h-4.9l-1.019,2.545h-1.629L87.355,52.518z
		 M89.856,59.046l-1.919-4.726h-0.03l-1.947,4.726H89.856z"/>
	<polygon fill="#031C2D" points="103.38,52.518 103.38,60.979 103.351,60.979 97.681,52.518 95.848,52.518 95.848,62.813 
		97.243,62.813 97.243,54.351 97.272,54.351 103.003,62.813 104.776,62.813 104.776,52.518 	"/>
	<polygon fill="#031C2D" points="26.699,69.166 28.095,69.166 28.095,73.44 33.431,73.44 33.431,69.166 34.827,69.166 
		34.827,79.459 33.431,79.459 33.431,74.749 28.095,74.749 28.095,79.459 26.699,79.459 	"/>
	<path fill="#031C2D" d="M43.392,79.722c-0.785,0-1.507-0.139-2.166-0.414c-0.66-0.278-1.224-0.658-1.695-1.142
		c-0.47-0.485-0.838-1.057-1.104-1.716c-0.267-0.659-0.401-1.372-0.401-2.138c0-0.766,0.134-1.478,0.401-2.137
		c0.266-0.659,0.634-1.231,1.104-1.716c0.471-0.485,1.035-0.865,1.695-1.142c0.659-0.276,1.381-0.414,2.166-0.414
		s1.507,0.138,2.166,0.414c0.659,0.277,1.224,0.657,1.695,1.142c0.47,0.485,0.838,1.057,1.104,1.716
		c0.267,0.659,0.4,1.371,0.4,2.137c0,0.766-0.133,1.479-0.4,2.138c-0.267,0.659-0.635,1.231-1.104,1.716
		c-0.471,0.484-1.036,0.864-1.695,1.142C44.898,79.583,44.177,79.722,43.392,79.722 M43.392,78.413c0.591,0,1.124-0.109,1.6-0.327
		c0.474-0.218,0.882-0.512,1.221-0.88c0.34-0.368,0.601-0.802,0.785-1.301c0.185-0.5,0.277-1.03,0.277-1.593
		c0-0.562-0.092-1.092-0.277-1.592c-0.184-0.499-0.445-0.933-0.785-1.301c-0.339-0.368-0.747-0.661-1.221-0.88
		c-0.476-0.218-1.009-0.328-1.6-0.328s-1.124,0.11-1.599,0.328c-0.476,0.219-0.883,0.512-1.222,0.88
		c-0.34,0.368-0.601,0.802-0.785,1.301c-0.184,0.5-0.277,1.03-0.277,1.592c0,0.563,0.093,1.093,0.277,1.593
		c0.184,0.499,0.445,0.933,0.785,1.301c0.339,0.368,0.746,0.662,1.222,0.88C42.268,78.304,42.801,78.413,43.392,78.413"/>
	<polygon fill="#031C2D" points="53.817,70.474 50.502,70.474 50.502,69.165 58.528,69.165 58.528,70.474 55.213,70.474 
		55.213,79.461 53.817,79.461 	"/>
	<polygon fill="#031C2D" points="61.204,69.166 67.85,69.166 67.85,70.474 62.601,70.474 62.601,73.542 67.486,73.542 
		67.486,74.851 62.601,74.851 62.601,78.152 68.111,78.152 68.111,79.459 61.204,79.459 	"/>
	<polygon fill="#031C2D" points="71.572,69.166 72.968,69.166 72.968,78.152 77.692,78.152 77.692,79.459 71.572,79.459 	"/>
	<path fill="#031C2D" d="M80.907,77.308c0.252,0.378,0.574,0.657,0.967,0.836c0.393,0.18,0.797,0.269,1.213,0.269
		c0.233,0,0.471-0.036,0.713-0.109c0.243-0.072,0.463-0.182,0.662-0.327c0.198-0.146,0.361-0.324,0.487-0.538
		c0.126-0.213,0.188-0.46,0.188-0.741c0-0.398-0.126-0.701-0.378-0.909s-0.564-0.384-0.938-0.524
		c-0.373-0.14-0.78-0.276-1.222-0.407c-0.44-0.131-0.849-0.312-1.221-0.545c-0.374-0.233-0.687-0.546-0.938-0.938
		c-0.253-0.393-0.379-0.924-0.379-1.593c0-0.3,0.065-0.62,0.196-0.959c0.131-0.34,0.336-0.65,0.618-0.931
		c0.281-0.281,0.642-0.516,1.083-0.705s0.972-0.284,1.593-0.284c0.562,0,1.1,0.078,1.613,0.233c0.514,0.155,0.965,0.471,1.353,0.945
		l-1.134,1.033c-0.176-0.272-0.422-0.489-0.742-0.654c-0.319-0.165-0.684-0.248-1.09-0.248c-0.388,0-0.711,0.051-0.968,0.152
		c-0.257,0.102-0.463,0.233-0.618,0.393c-0.154,0.16-0.264,0.333-0.327,0.517c-0.063,0.184-0.094,0.353-0.094,0.508
		c0,0.436,0.125,0.771,0.378,1.004c0.252,0.233,0.564,0.422,0.938,0.567c0.374,0.145,0.78,0.277,1.222,0.392
		c0.441,0.117,0.848,0.279,1.221,0.487c0.373,0.209,0.687,0.491,0.938,0.844c0.252,0.354,0.378,0.841,0.378,1.461
		c0,0.495-0.094,0.941-0.283,1.338c-0.188,0.398-0.444,0.733-0.764,1.004s-0.698,0.48-1.134,0.625
		c-0.437,0.146-0.902,0.218-1.396,0.218c-0.659,0-1.284-0.116-1.875-0.349c-0.592-0.233-1.062-0.591-1.411-1.076L80.907,77.308z"/>
	<path fill="#967644" d="M39.657,91.415c-0.42,1.128-0.855,1.472-1.864,1.472h-0.636v-4.445c0-0.294,0.034-0.462,0.737-0.485
		l0.062-0.002v-0.216h-2.508v0.216l0.061,0.002c0.663,0.023,0.798,0.211,0.798,0.485v4.015c0,0.282-0.134,0.462-0.798,0.483
		l-0.061,0.002v0.225h4.353l0.078-1.719l0.003-0.062l-0.209-0.016L39.657,91.415z"/>
	<path fill="#967644" d="M44.309,87.61c-1.248,0-2.596,1.091-2.596,2.854c0,1.392,0.971,2.832,2.596,2.832
		c1.249,0,2.597-1.091,2.597-2.855C46.905,89.049,45.935,87.61,44.309,87.61 M45.934,90.457c0,1.195-0.181,2.567-1.594,2.567
		c-0.71,0-1.655-0.266-1.655-2.574c0-2.275,0.848-2.567,1.587-2.567C44.984,87.882,45.934,88.149,45.934,90.457"/>
	<path fill="#967644" d="M52.495,87.948l0.055,0.008c0.713,0.107,0.941,0.373,0.941,1.093v2.737l-2.999-4.047h-1.579v0.216
		l0.062,0.002c0.546,0.013,0.858,0.307,0.858,0.804v3.087c0,0.725-0.203,0.98-0.867,1.093l-0.053,0.01v0.216h2.167V92.95
		l-0.055-0.009c-0.759-0.112-0.881-0.414-0.881-1.093v-3.09l3.376,4.512l0.019,0.026h0.263v-4.247c0-0.697,0.124-0.968,0.814-1.093
		l0.053-0.01v-0.207h-2.174V87.948z"/>
	<path fill="#967644" d="M58.757,87.739h-2.354v0.216l0.062,0.003c0.662,0.022,0.798,0.21,0.798,0.484v4.015
		c0,0.282-0.134,0.462-0.798,0.483l-0.062,0.003v0.224h2.43c1.966,0,2.846-1.407,2.846-2.802
		C61.679,88.77,60.532,87.739,58.757,87.739 M60.708,90.411c0,1.921-0.476,2.476-2.119,2.476h-0.477v-4.868h0.53
		C59.981,88.019,60.708,88.399,60.708,90.411"/>
	<path fill="#967644" d="M66.367,87.61c-1.248,0-2.596,1.091-2.596,2.854c0,1.392,0.971,2.832,2.596,2.832
		c1.249,0,2.597-1.091,2.597-2.855C68.964,89.049,67.993,87.61,66.367,87.61 M67.992,90.457c0,1.195-0.181,2.567-1.594,2.567
		c-0.711,0-1.655-0.266-1.655-2.574c0-1.775,0.489-2.567,1.587-2.567C67.044,87.882,67.992,88.149,67.992,90.457"/>
	<path fill="#967644" d="M74.554,87.739v0.209l0.055,0.009c0.713,0.107,0.942,0.373,0.942,1.093v2.738l-3-4.049h-1.578v0.217
		l0.063,0.001c0.545,0.014,0.856,0.307,0.856,0.804v3.088c0,0.724-0.203,0.98-0.866,1.093l-0.053,0.009v0.216h2.166V92.95
		l-0.055-0.008c-0.759-0.112-0.881-0.415-0.881-1.093v-3.09l3.376,4.512l0.019,0.025h0.263V89.05c0-0.698,0.123-0.969,0.814-1.093
		l0.053-0.01v-0.208H74.554z"/>
	<polygon fill="#967644" points="57.368,19.926 56.411,18.499 56.364,18.475 56.364,18.473 56.364,18.475 56.364,18.473 
		56.364,18.475 56.318,18.499 55.363,19.927 55.354,19.977 56.311,24.47 56.315,24.48 56.365,24.51 56.367,24.51 56.417,24.48 
		56.421,24.47 57.377,19.977 	"/>
	<polygon fill="#967644" points="51.739,22.02 50.025,22.133 49.98,22.162 49.979,22.215 50.738,23.756 50.777,23.787 
		55.145,25.206 55.158,25.208 55.208,25.179 55.209,25.179 55.208,25.179 55.209,25.119 55.201,25.109 51.788,22.037 	"/>
	<polygon fill="#967644" points="50.738,27.94 49.981,29.481 49.982,29.535 50.026,29.561 51.742,29.676 51.789,29.66 
		55.203,26.584 55.209,26.575 55.209,26.516 55.159,26.485 55.146,26.486 50.779,27.908 	"/>
	<polygon fill="#967644" points="55.366,31.768 56.322,33.195 56.368,33.221 56.415,33.195 57.37,31.768 57.379,31.718 
		56.421,27.225 56.418,27.212 56.367,27.184 56.315,27.212 56.311,27.225 55.356,31.718 	"/>
	<polygon fill="#967644" points="60.994,29.674 62.708,29.56 62.753,29.531 62.755,29.479 61.995,27.938 61.956,27.905 
		57.589,26.487 57.575,26.484 57.525,26.513 57.525,26.574 57.532,26.584 60.945,29.656 	"/>
	<polygon fill="#967644" points="61.994,23.753 62.752,22.21 62.75,22.159 62.706,22.133 60.991,22.017 60.943,22.036 
		57.531,25.109 57.523,25.119 57.524,25.178 57.573,25.208 57.586,25.207 61.953,23.786 	"/>
	<polygon fill="#967644" points="68.428,15.602 68.327,13.933 68.313,13.896 68.312,13.895 68.275,13.879 66.606,13.78 
		66.547,13.819 65.656,16.48 65.66,16.547 65.66,16.548 65.729,16.553 68.387,15.661 	"/>
	<polygon fill="#967644" points="61.689,10.944 60.768,9.547 60.736,9.522 60.735,9.522 60.697,9.528 59.201,10.279 59.17,10.34 
		59.729,13.09 59.765,13.146 59.767,13.146 59.767,13.147 59.768,13.146 59.828,13.116 61.685,11.015 	"/>
	<polygon fill="#967644" points="53.526,10.278 52.029,9.53 51.99,9.523 51.989,9.523 51.958,9.549 51.036,10.946 51.042,11.017 
		52.9,13.119 52.96,13.146 52.961,13.146 52.962,13.146 52.999,13.09 53.557,10.341 	"/>
	<polygon fill="#967644" points="46.122,13.784 44.452,13.884 44.414,13.897 44.414,13.899 44.4,13.937 44.3,15.606 44.339,15.666 
		47,16.556 47.067,16.551 47.068,16.551 47.068,16.55 47.072,16.482 46.18,13.823 	"/>
	<polygon fill="#967644" points="41.464,20.522 40.067,21.444 40.043,21.475 40.043,21.476 40.049,21.515 40.798,23.012 
		40.86,23.042 43.61,22.483 43.664,22.446 43.666,22.446 43.666,22.445 43.667,22.444 43.666,22.444 43.637,22.384 41.533,20.526 	
		"/>
	<polygon fill="#967644" points="40.798,28.686 40.05,30.183 40.043,30.222 40.043,30.223 40.069,30.253 41.466,31.175 
		41.537,31.171 43.637,29.314 43.667,29.252 43.667,29.251 43.667,29.25 43.61,29.212 40.861,28.655 	"/>
	<polygon fill="#967644" points="44.304,36.089 44.403,37.759 44.419,37.796 44.419,37.798 44.456,37.811 46.126,37.911 
		46.184,37.872 47.076,35.212 47.071,35.145 47.071,35.144 47.071,35.143 47.07,35.143 47.002,35.139 44.345,36.031 	"/>
	<polygon fill="#967644" points="51.042,40.748 51.963,42.145 51.995,42.169 52.036,42.164 53.531,41.416 53.562,41.352 
		53.004,38.603 52.966,38.547 52.966,38.545 52.965,38.544 52.965,38.545 52.904,38.576 51.046,40.678 	"/>
	<polygon fill="#967644" points="59.205,41.414 60.702,42.162 60.743,42.169 60.774,42.142 61.695,40.746 61.69,40.676 
		59.832,38.574 59.773,38.545 59.772,38.545 59.771,38.545 59.771,38.546 59.732,38.601 59.174,41.35 	"/>
	<polygon fill="#967644" points="66.609,37.908 68.279,37.808 68.315,37.792 68.318,37.792 68.332,37.756 68.432,36.084 
		68.392,36.027 65.731,35.136 65.665,35.141 65.664,35.141 65.664,35.142 65.658,35.209 66.551,37.869 	"/>
	<polygon fill="#967644" points="71.269,31.17 72.664,30.248 72.689,30.217 72.683,30.178 71.934,28.68 71.871,28.649 
		69.122,29.207 69.066,29.246 69.065,29.248 69.066,29.248 69.097,29.308 71.198,31.166 	"/>
	<polygon fill="#967644" points="71.934,23.005 72.682,21.509 72.688,21.47 72.688,21.469 72.662,21.438 71.267,20.518 
		71.194,20.521 69.094,22.379 69.065,22.438 69.065,22.441 69.122,22.479 71.869,23.037 	"/>
	<polygon fill="#967644" points="56.363,7.137 56.321,7.156 54.837,8.58 54.822,8.628 56.31,16.895 56.367,16.951 56.424,16.895 
		57.903,8.628 57.891,8.582 56.406,7.156 	"/>
	<polygon fill="#967644" points="51.919,18.142 51.942,18.066 49.09,10.167 49.054,10.133 47.057,9.641 47.009,9.645 46.981,9.684 
		46.409,11.657 46.419,11.708 51.842,18.122 	"/>
	<polygon fill="#967644" points="48.662,21.398 48.644,21.321 42.224,15.905 42.177,15.894 40.2,16.467 40.161,16.496 
		40.157,16.543 40.648,18.536 40.683,18.575 48.585,21.421 	"/>
	<polygon fill="#967644" points="47.471,25.846 47.416,25.788 39.148,24.31 39.102,24.322 37.677,25.807 37.657,25.849 
		37.677,25.894 39.098,27.375 39.148,27.391 47.416,25.905 	"/>
	<polygon fill="#967644" points="48.662,30.294 48.587,30.272 40.687,33.124 40.652,33.16 40.161,35.156 40.166,35.205 
		40.204,35.233 42.176,35.804 42.227,35.793 48.643,30.372 	"/>
	<polygon fill="#967644" points="51.918,33.55 51.841,33.569 46.425,39.987 46.414,40.035 46.987,42.012 47.016,42.052 
		47.062,42.056 49.056,41.564 49.095,41.53 51.941,33.626 	"/>
	<polygon fill="#967644" points="56.366,34.742 56.309,34.797 54.829,43.064 54.842,43.111 56.327,44.537 56.369,44.555 
		56.414,44.537 57.895,43.114 57.911,43.064 56.423,34.797 	"/>
	<polygon fill="#967644" points="60.814,33.551 60.792,33.626 63.644,41.526 63.679,41.56 65.677,42.051 65.726,42.048 
		65.753,42.009 66.322,40.036 66.313,39.986 60.894,33.571 	"/>
	<polygon fill="#967644" points="65.262,25.847 65.316,25.905 73.585,27.384 73.633,27.371 75.057,25.888 75.074,25.843 
		75.057,25.799 73.635,24.317 73.585,24.302 65.316,25.789 	"/>
	<polygon fill="#967644" points="64.07,21.399 64.146,21.421 72.047,18.569 72.082,18.533 72.571,16.537 72.567,16.488 
		72.528,16.46 70.558,15.889 70.506,15.899 64.091,21.321 	"/>
	<polygon fill="#967644" points="60.814,18.142 60.894,18.125 66.308,11.705 66.318,11.657 65.745,9.682 65.72,9.642 65.672,9.637 
		63.677,10.128 63.639,10.162 60.794,18.066 	"/>
	<polygon fill="#967644" points="64.729,18.622 64.976,17.287 64.964,17.245 64.921,17.231 63.583,17.484 63.549,17.51 61.342,20.8 
		61.338,20.81 61.352,20.859 61.398,20.872 61.41,20.867 64.704,18.659 	"/>
	<polygon fill="#967644" points="59.997,15.409 59.544,14.129 59.512,14.097 59.466,14.109 58.435,14.997 58.417,15.036 
		58.152,18.989 58.154,19 58.188,19.036 58.19,19.036 58.238,19.022 58.244,19.013 59.993,15.452 	"/>
	<polygon fill="#967644" points="54.292,14.992 53.258,14.11 53.215,14.101 53.185,14.13 52.734,15.416 52.736,15.458 
		54.484,19.015 54.492,19.023 54.54,19.035 54.576,19 54.577,18.99 54.312,15.03 	"/>
	<polygon fill="#967644" points="49.142,17.482 47.807,17.235 47.764,17.248 47.764,17.249 47.751,17.292 48.004,18.629 
		48.03,18.665 51.32,20.869 51.33,20.875 51.379,20.86 51.393,20.813 51.387,20.802 49.179,17.508 	"/>
	<polygon fill="#967644" points="45.929,22.214 44.648,22.667 44.618,22.701 44.63,22.745 45.517,23.776 45.556,23.794 
		49.508,24.059 49.519,24.058 49.556,24.021 49.542,23.974 49.533,23.967 45.972,22.218 	"/>
	<polygon fill="#967644" points="45.511,27.919 44.63,28.952 44.621,28.996 44.649,29.028 45.936,29.478 45.979,29.475 
		49.534,27.727 49.542,27.721 49.556,27.672 49.521,27.637 49.507,27.636 45.549,27.901 	"/>
	<polygon fill="#967644" points="48.002,33.069 47.756,34.405 47.768,34.446 47.81,34.46 49.149,34.209 49.185,34.182 
		51.389,30.892 51.394,30.881 51.38,30.833 51.332,30.819 51.322,30.823 48.027,33.033 	"/>
	<polygon fill="#967644" points="52.733,36.283 53.188,37.563 53.22,37.594 53.263,37.583 54.296,36.695 54.314,36.655 
		54.58,32.703 54.577,32.692 54.542,32.656 54.494,32.668 54.487,32.678 52.737,36.24 	"/>
	<polygon fill="#967644" points="58.439,36.701 59.473,37.582 59.516,37.592 59.548,37.562 60,36.276 59.994,36.233 58.247,32.678 
		58.24,32.668 58.191,32.658 58.156,32.692 58.156,32.704 58.42,36.662 	"/>
	<polygon fill="#967644" points="63.589,34.21 64.924,34.457 64.966,34.443 64.98,34.4 64.727,33.063 64.701,33.026 61.411,30.823 
		61.4,30.817 61.353,30.832 61.339,30.879 61.345,30.89 63.554,34.185 	"/>
	<polygon fill="#967644" points="66.803,29.478 68.083,29.023 68.114,28.992 68.103,28.948 67.215,27.916 67.175,27.897 
		63.224,27.633 63.212,27.635 63.176,27.669 63.176,27.671 63.19,27.717 63.199,27.725 66.76,29.474 	"/>
	<polygon fill="#967644" points="67.222,23.772 68.102,22.739 68.111,22.695 68.081,22.664 66.796,22.214 66.753,22.216 
		63.197,23.964 63.189,23.972 63.177,24.019 63.177,24.02 63.211,24.055 63.225,24.057 67.182,23.791 	"/>
	<polygon fill="#967644" points="60.454,20.086 60.289,19.118 60.269,19.083 60.229,19.083 59.308,19.425 59.285,19.455 
		58.414,22.219 58.411,22.229 58.432,22.264 58.431,22.265 58.432,22.267 58.433,22.267 58.435,22.267 58.475,22.267 58.484,22.259 
		60.441,20.124 	"/>
	<polygon fill="#967644" points="53.421,19.425 52.5,19.084 52.462,19.085 52.461,19.085 52.441,19.119 52.275,20.087 
		52.291,20.123 54.249,22.26 54.256,22.267 54.296,22.268 54.299,22.267 54.299,22.266 54.318,22.229 54.318,22.219 53.446,19.457 	
		"/>
	<polygon fill="#967644" points="49.333,25.185 48.577,25.813 48.56,25.847 48.56,25.848 48.577,25.881 49.333,26.507 
		49.372,26.513 52.201,25.887 52.209,25.884 52.231,25.848 52.231,25.847 52.231,25.846 52.209,25.81 52.201,25.806 49.372,25.178 	
		"/>
	<polygon fill="#967644" points="52.277,31.605 52.443,32.573 52.462,32.607 52.502,32.608 53.423,32.266 53.446,32.237 
		54.318,29.474 54.319,29.462 54.299,29.429 54.3,29.428 54.299,29.428 54.298,29.425 54.296,29.425 54.256,29.428 54.249,29.434 
		52.291,31.569 	"/>
	<polygon fill="#967644" points="59.31,32.267 60.23,32.608 60.268,32.607 60.27,32.607 60.289,32.574 60.455,31.604 60.44,31.57 
		58.485,29.432 58.475,29.426 58.434,29.426 58.431,29.427 58.431,29.428 58.413,29.463 58.413,29.473 59.284,32.236 	"/>
	<polygon fill="#967644" points="63.398,26.507 64.153,25.879 64.172,25.845 64.172,25.844 64.153,25.813 63.398,25.185 
		63.36,25.178 60.531,25.805 60.521,25.81 60.499,25.844 60.499,25.845 60.499,25.847 60.521,25.882 60.531,25.886 63.36,26.513 	
		"/>
	<polygon fill="#967644" points="64.07,30.294 64.089,30.372 70.509,35.788 70.556,35.799 72.53,35.226 72.571,35.199 
		72.575,35.151 72.085,33.157 72.051,33.119 64.147,30.273 	"/>
</g>
</svg>
