<?xml version="1.0" encoding="UTF-8"?> <svg xmlns="http://www.w3.org/2000/svg" id="logo-larger" width="285.176" height="49.473" viewBox="0 0 285.176 49.473"><path id="Path_34" data-name="Path 34" d="M202,426.34h3.78v-9.12h10.29V426.3h3.78v-21.51h-3.78v9H205.78v-9H202Zm39.465-.27a7.5,7.5,0,0,0,2.91-1.815,8.22,8.22,0,0,0,1.86-3,12.2,12.2,0,0,0,.66-4.215V404.815h-3.8v12.4a6.2,6.2,0,0,1-1.5,4.5,5.265,5.265,0,0,1-3.975,1.5,5.2,5.2,0,0,1-4-1.5,6.48,6.48,0,0,1-1.5-4.5V404.965h-3.78V417.22a12,12,0,0,0,.645,4.11,8.085,8.085,0,0,0,1.845,3,7.649,7.649,0,0,0,2.9,1.8,11.221,11.221,0,0,0,3.78.6,11.476,11.476,0,0,0,3.84-.6m14.025.27h3.78v-7.5h4.74l5.3,7.5h4.5L268,418.18a7.62,7.62,0,0,0,3.675-2.265,6.21,6.21,0,0,0,1.5-4.26h0a6.915,6.915,0,0,0-.465-2.58,6.241,6.241,0,0,0-1.32-2.07,7.261,7.261,0,0,0-2.625-1.59,10.5,10.5,0,0,0-3.6-.57H255.55V426.4Zm3.78-10.875v-7.3h5.5a5.28,5.28,0,0,1,3.3.915,3.165,3.165,0,0,1,1.17,2.655h0a3.21,3.21,0,0,1-1.2,2.64,5,5,0,0,1-3.225.975ZM281,426.4h15.12v-3.45H284.8V404.785h-3.78V426.34Zm22.5,0H319.63v-3.39H307.285v-5.79h10.8v-3.39h-10.8v-5.61h12.2v-3.39h-15.9v21.555Zm30.36,0h3.81v-8.6l8.565-12.96H341.9l-6.09,9.51-6-9.51h-4.5l8.565,13.05V426.4Zm32.64,0h3.78v-9.18h10.29V426.3h3.78v-21.51h-3.7v9H370.36v-9h-3.78V426.34Zm41.625-.525a11.338,11.338,0,0,0,3.57-2.415,10.875,10.875,0,0,0,2.34-3.54,11.22,11.22,0,0,0,.825-4.29h0a11.22,11.22,0,0,0-.825-4.29,10.785,10.785,0,0,0-5.85-5.91,11.566,11.566,0,0,0-4.5-.87,11.22,11.22,0,0,0-8.13,3.315,10.935,10.935,0,0,0-2.34,3.54,11.129,11.129,0,0,0-.825,4.29h0a11.131,11.131,0,0,0,.825,4.29,11,11,0,0,0,2.31,3.525,10.769,10.769,0,0,0,3.54,2.385,11.55,11.55,0,0,0,4.5.87,11.4,11.4,0,0,0,4.5-.885m-7.5-3.225a6.946,6.946,0,0,1-2.325-1.65,7.605,7.605,0,0,1-1.5-2.43,8.13,8.13,0,0,1-.54-3h0a8.129,8.129,0,0,1,.54-3,7.5,7.5,0,0,1,1.5-2.415,6.929,6.929,0,0,1,2.295-1.635,7.424,7.424,0,0,1,5.9,0,7.289,7.289,0,0,1,2.325,1.65,7.41,7.41,0,0,1,1.5,2.43,8.235,8.235,0,0,1,.54,3h0a8.1,8.1,0,0,1-.54,3,7.365,7.365,0,0,1-1.5,2.415,7.1,7.1,0,0,1-5.235,2.22,7.2,7.2,0,0,1-3-.6m33.615,3.48a7.5,7.5,0,0,0,2.91-1.815,8.281,8.281,0,0,0,1.86-3,12.316,12.316,0,0,0,.66-4.215V404.875H436V417.22a6.21,6.21,0,0,1-1.5,4.5,5.28,5.28,0,0,1-3.975,1.5,5.2,5.2,0,0,1-4.005-1.5,6.5,6.5,0,0,1-1.5-4.5V404.965h-3.78V417.22a12,12,0,0,0,.645,4.11,8.025,8.025,0,0,0,1.845,3,7.607,7.607,0,0,0,2.9,1.8,11.236,11.236,0,0,0,3.78.6,11.461,11.461,0,0,0,3.84-.6m24.375.135a7.05,7.05,0,0,0,2.43-1.26,5.851,5.851,0,0,0,1.59-2.04,6.255,6.255,0,0,0,.57-2.715h0a5.835,5.835,0,0,0-.435-2.325,4.86,4.86,0,0,0-1.3-1.755,7.771,7.771,0,0,0-2.175-1.275,23.294,23.294,0,0,0-3-.96q-1.5-.375-2.55-.7a7.068,7.068,0,0,1-1.5-.72,2.145,2.145,0,0,1-.795-.855,2.655,2.655,0,0,1-.21-1.095h0a2.25,2.25,0,0,1,.93-1.815,4.035,4.035,0,0,1,2.58-.735,7.86,7.86,0,0,1,3,.57,13.111,13.111,0,0,1,2.925,1.65l2.04-2.865a12.764,12.764,0,0,0-3.555-2.025,12.421,12.421,0,0,0-4.26-.69,9.12,9.12,0,0,0-3,.465,7.26,7.26,0,0,0-2.325,1.275,5.85,5.85,0,0,0-1.5,1.98,5.715,5.715,0,0,0-.555,2.535h0a6,6,0,0,0,.48,2.535,4.7,4.7,0,0,0,1.38,1.77,8.311,8.311,0,0,0,2.25,1.23,24.085,24.085,0,0,0,3,.9,22.139,22.139,0,0,1,2.445.675,6,6,0,0,1,1.5.735,2.265,2.265,0,0,1,.735.84,2.474,2.474,0,0,1,.2,1.035h0a2.31,2.31,0,0,1-1.035,1.965,4.635,4.635,0,0,1-2.79.75,8.744,8.744,0,0,1-3.615-.72,13.034,13.034,0,0,1-3.18-2.085l-2.25,2.685a12.991,12.991,0,0,0,4.215,2.6,13.5,13.5,0,0,0,4.77.84,10.618,10.618,0,0,0,3.1-.435m12.135.12H487v-3.39H474.655v-5.73H485.5v-3.39H474.685v-5.61h12.2v-3.39H470.86v21.555Z" transform="translate(-202 -404.559)" fill="#fca268"></path><path id="Path_35" data-name="Path 35" d="M269.07,442.76h2.8v-6.735h7.605v6.735h2.8V426.77h-2.8v6.645h-7.635V426.77h-2.8v15.99Zm30.21-.39a8.325,8.325,0,0,0,2.655-1.8,8.025,8.025,0,0,0,1.74-2.625,8.25,8.25,0,0,0,.615-3.2h0a8.265,8.265,0,0,0-2.325-5.8,8.145,8.145,0,0,0-2.625-1.77,8.611,8.611,0,0,0-3.39-.645,8.445,8.445,0,0,0-3.375.66,8.326,8.326,0,0,0-2.655,1.8,8.055,8.055,0,0,0-1.74,2.625,8.28,8.28,0,0,0-.615,3.195h0a8.28,8.28,0,0,0,.615,3.2,8.19,8.19,0,0,0,1.71,2.61,7.994,7.994,0,0,0,2.625,1.77,8.535,8.535,0,0,0,3.39.645,8.43,8.43,0,0,0,3.375-.66m-5.535-2.385a5.19,5.19,0,0,1-1.725-1.23,5.492,5.492,0,0,1-1.125-1.815,6,6,0,0,1-.4-2.2h0a6,6,0,0,1,.4-2.2,5.624,5.624,0,0,1,1.11-1.8,5.362,5.362,0,0,1,7.8.03,5.326,5.326,0,0,1,1.125,1.8,6.091,6.091,0,0,1,.4,2.2h0a6,6,0,0,1-.405,2.205,5.474,5.474,0,0,1-1.11,1.785,5.265,5.265,0,0,1-3.885,1.65,5.355,5.355,0,0,1-2.19-.45m19.29,2.775h2.835v-13.4h5.07v-2.61H307.98v2.61h5.07v13.4Zm13.155,0h12v-2.52h-9.21v-4.29H337V433.4H328.98v-4.155h9v-2.52H326.115v15.99Zm18.735,0h11.22v-2.565H347.73v-13.5h-2.8v15.99Z" transform="translate(-170 -393.559)" fill="#fca268"></path><path id="Path_36" data-name="Path 36" d="M84.535,28.695H.01V26.88H84.535v1.815Z" transform="translate(0 13.911)" fill="#fca268"></path><path id="Path_37" data-name="Path 37" d="M218.175,28.7H133.65V26.88h84.525V28.7Z" transform="translate(67 12.911)" fill="#fca268"></path></svg> 