<svg width="156" height="20" viewBox="0 0 156 20" fill="none" preserveAspectRatio="xMidYMid meet" aria-label="pavilion" tabindex="0" class="r-z80fyv r-me02qy"><path fill-rule="evenodd" clip-rule="evenodd" d="M117.285 0C109.776 0 104.682 3.87283 104.682 9.97396C104.682 16.1189 109.835 19.9474 117.285 19.9474C124.794 19.9474 129.888 16.0745 129.888 9.97396C129.888 3.85245 124.762 0 117.285 0ZM117.285 16.3185C112.779 16.3185 109.508 13.6685 109.508 9.97396C109.508 6.27887 112.779 3.62925 117.285 3.62925C121.864 3.62925 125.062 6.21962 125.062 9.97396C125.062 13.7283 121.864 16.3185 117.285 16.3185ZM76.0198 0.285472V19.6619H95.8062V15.8947H80.8177V0.285472H76.0198ZM72.7058 19.6619H67.9368V0.28566H72.7058V19.6619ZM13.6042 0.285849C18.7638 0.285849 21.6055 2.60075 21.6055 6.74679C21.6055 10.8928 18.7638 13.2081 13.6042 13.2081H4.59774V19.6619H0V0.285849H13.6042ZM4.59774 9.63264H13.404C15.6092 9.63264 16.9791 8.54623 16.9791 6.74679C16.9791 4.94698 15.6092 3.86094 13.404 3.86094H4.59774V9.63264ZM102.686 19.6619H97.9164V0.28566H102.686V19.6619ZM150.497 16.5077V0.285472H155.152V19.6619H147.555L136.515 3.49792V19.6619H131.86V0.285472H139.418L150.497 16.5077ZM60.8377 0.285472L53.1717 17.6075L45.5047 0.285472H40.1157L48.9974 19.6619H57.3451L66.2266 0.285472H60.8377ZM18.6023 19.6619L27.4843 0.285472H35.7606L44.6423 19.6619H39.2532L37.2942 15.2357H25.8792L23.9202 19.6619H18.6023ZM35.7853 11.8262L31.5872 2.34038L27.3881 11.8262H35.7853Z" fill="#000000"></path></svg>