<?xml version="1.0" encoding="UTF-8"?>
<svg width="401px" height="162px" viewBox="0 0 401 162" version="1.1" xmlns="http://www.w3.org/2000/svg" xmlns:xlink="http://www.w3.org/1999/xlink">
    <!-- Generator: Sketch 43.2 (39069) - http://www.bohemiancoding.com/sketch -->
    <title>image2vector</title>
    <desc>Created with Sketch.</desc>
    <defs></defs>
    <g id="Page-1" stroke="none" stroke-width="1" fill="none" fill-rule="evenodd">
        <g id="image2vector">
            <path d="M336.707,78.89 C337.426,78.979 338.506,78.977 339.107,78.886 C339.708,78.795 339.12,78.722 337.8,78.724 C336.48,78.726 335.988,78.801 336.707,78.89" id="path0" fill="#000000"></path>
            <path d="M386.109,70.6 C386.109,71.59 386.187,71.995 386.282,71.5 C386.378,71.005 386.378,70.195 386.282,69.7 C386.187,69.205 386.109,69.61 386.109,70.6" id="path1" fill="#808080"></path>
            <path d="M80.2,2.139 C77.406,3.099 75.045,4.269 74.4,5.012 C74.29,5.139 73.524,5.75 72.698,6.37 C63.3,13.427 61.83,30.364 69.748,40.385 C78.312,51.225 97.609,51.319 106.439,40.564 C114.702,30.5 114.305,15.377 105.558,7 C99.644,1.336 88.66,-0.769 80.2,2.139 M165.259,3.327 C164.786,4.622 164.394,5.844 164.386,6.041 C164.379,6.238 164.025,7.12 163.6,8 C163.175,8.88 162.821,9.762 162.814,9.959 C162.806,10.157 161.978,12.587 160.973,15.359 C159.968,18.132 158.24,22.92 157.133,26 C156.026,29.08 154.976,31.96 154.8,32.4 C154.624,32.84 153.813,35.09 152.998,37.4 C150.711,43.879 149.125,46.378 147.108,46.675 C146.643,46.744 146.189,47.025 146.098,47.3 C145.973,47.681 147.039,47.8 150.567,47.8 C154.419,47.8 155.2,47.699 155.2,47.2 C155.2,46.87 154.934,46.6 154.609,46.6 C152.819,46.6 152.703,44.895 154.198,40.548 C154.982,38.267 156.105,34.999 156.693,33.287 C157.984,29.529 157.383,29.739 166.395,29.886 L173.391,30 L174.291,31.8 C174.786,32.79 175.194,33.827 175.196,34.105 C175.198,34.383 175.383,34.923 175.606,35.305 C177.928,39.28 179.659,46.4 178.4,46.8 C176.326,47.458 178.035,47.8 183.4,47.8 C189.251,47.8 190.618,47.423 187.7,46.616 C185.182,45.919 184.147,44.434 181.415,37.6 C180.36,34.96 179.184,32.08 178.802,31.2 C178.42,30.32 177.783,28.7 177.385,27.6 C176.987,26.5 176.543,25.42 176.396,25.2 C176.25,24.98 175.712,23.63 175.2,22.2 C174.688,20.77 174.148,19.42 174,19.2 C173.852,18.98 173.312,17.63 172.8,16.2 C172.288,14.77 171.75,13.42 171.604,13.2 C171.457,12.98 171.014,11.9 170.618,10.8 C170.222,9.7 169.656,8.26 169.36,7.6 C169.064,6.94 168.388,5.237 167.859,3.816 C166.628,0.514 166.306,0.454 165.259,3.327 M25.603,1.655 C25.604,1.845 26.144,2.307 26.803,2.681 L28,3.363 L28,24.6 L28,45.837 L26.803,46.519 C24.857,47.625 25.347,47.8 30.4,47.8 C34.924,47.8 36.577,47.361 34.25,46.777 C32.632,46.371 32.4,45.101 32.4,36.643 C32.4,26.989 32.174,27.4 37.467,27.4 C41.512,27.4 41.166,27.189 45.004,32 C45.882,33.1 46.707,34.09 46.837,34.2 C46.968,34.31 47.743,35.282 48.56,36.36 C55.987,46.161 57.424,47.207 64.1,47.674 C68.104,47.954 68.852,47.38 65.525,46.582 C61.71,45.667 59.634,44.005 54.908,38.086 C53.64,36.499 52.504,35.11 52.382,35 C52.261,34.89 50.913,33.18 49.387,31.2 C47.861,29.22 46.38,27.358 46.096,27.061 C45.669,26.616 45.889,26.318 47.36,25.344 C55.907,19.682 55.641,6.445 46.9,2.497 C44.888,1.588 25.596,0.825 25.603,1.655 M112.8,1.749 C112.8,1.941 113.488,2.208 114.33,2.342 C116.517,2.692 117.994,4.422 121.213,10.4 C121.924,11.72 123.086,13.88 123.797,15.2 C126.34,19.927 127.751,22.425 128.767,24 C129.799,25.598 129.8,25.613 129.919,35.708 L130.039,45.815 L128.822,46.508 C126.856,47.626 127.337,47.8 132.4,47.8 C136.924,47.8 138.577,47.361 136.25,46.777 C134.611,46.366 134.4,45.131 134.4,35.962 C134.4,25.848 133.747,27.898 140.758,16 C142.444,13.14 144.153,10.162 144.558,9.382 C146.09,6.429 148.644,3.184 149.896,2.6 C151.892,1.669 151.467,1.4 148,1.4 C145.141,1.4 143.918,1.814 145.3,2.314 C145.814,2.5 144.166,6.196 142.05,9.6 C141.503,10.48 140.863,11.567 140.628,12.016 C138.887,15.338 133.346,24.182 133.065,24.088 C132.873,24.024 132.146,22.898 131.45,21.586 C130.754,20.274 129.343,17.67 128.315,15.8 C127.286,13.93 125.801,11.23 125.014,9.8 C121.505,3.421 121.333,2.985 122.101,2.423 C123.347,1.512 122.877,1.4 117.8,1.4 C115.05,1.4 112.8,1.557 112.8,1.749 M194.803,1.7 C194.804,1.865 195.344,2.307 196.003,2.681 L197.2,3.363 L197.199,23.481 C197.197,45.705 197.222,45.478 194.601,46.672 C192.437,47.659 194.108,47.8 207.923,47.8 L222.246,47.8 L222.885,46.3 C223.237,45.475 224.171,43.283 224.962,41.43 C225.753,39.576 226.4,37.911 226.4,37.73 C226.4,36.948 225.723,37.512 224.996,38.9 C222.334,43.984 217.874,46.2 210.302,46.2 C201.221,46.2 201.6,47.218 201.6,22.816 C201.6,2.209 201.601,2.2 203.8,2.2 C204.13,2.2 204.4,2.02 204.4,1.8 C204.4,1.556 202.533,1.4 199.6,1.4 C196.96,1.4 194.801,1.535 194.803,1.7 M90.556,2.214 C111.047,5.176 114.126,41.107 94.358,46.585 C89.298,47.987 81.838,46.762 78.973,44.058 C78.707,43.806 77.998,43.244 77.398,42.809 C75.243,41.247 72.855,37.632 70.785,32.8 C69.302,29.337 68.838,21.989 69.809,17.326 C71.818,7.678 77.24,2.91 87.4,1.857 C87.62,1.834 89.04,1.995 90.556,2.214 M43.156,3.446 C49.845,6.336 51.182,21.36 45.1,25.288 C42.558,26.93 34.746,26.883 33.313,25.217 C32.214,23.939 31.848,3.956 32.908,3.076 C34.167,2.032 40.404,2.256 43.156,3.446 M167.568,14.403 C168.468,16.821 169.381,19.16 169.596,19.6 C170.218,20.873 172.8,27.831 172.8,28.234 C172.8,28.442 169.694,28.6 165.628,28.6 L158.456,28.6 L158.795,27.5 C158.982,26.895 159.976,24.06 161.003,21.2 C162.03,18.34 163.05,15.46 163.268,14.8 C163.487,14.14 163.819,13.24 164.005,12.8 C164.192,12.36 164.56,11.298 164.823,10.44 C165.398,8.567 165.393,8.559 167.568,14.403 M78.4,57.44 C78.4,57.681 78.151,58.446 77.846,59.14 C77.542,59.833 76.621,62.29 75.8,64.6 C74.979,66.91 74.058,69.367 73.754,70.06 C73.449,70.754 73.2,71.454 73.2,71.617 C73.2,71.781 72.108,74.903 70.772,78.557 C67.594,87.254 66.132,91.372 65.785,92.6 C65.629,93.15 65.362,93.78 65.19,94 C65.019,94.22 64.682,95.12 64.442,96 C63.645,98.92 61.777,101.652 60.025,102.46 C57.55,103.602 58.02,103.8 63.2,103.8 C68.076,103.8 68.957,103.537 66.8,102.722 C65.04,102.058 65.144,100.002 67.201,94.8 C67.375,94.36 68.14,92.29 68.901,90.2 L70.284,86.4 L78.181,86.4 L86.079,86.4 L87.38,89.8 C88.096,91.67 89.337,94.91 90.138,97 C91.723,101.136 91.924,102.501 91,102.855 C89.33,103.496 90.938,103.8 96,103.8 C101.329,103.8 103.17,103.384 100.258,102.837 C97.74,102.365 96.354,100.201 92.802,91.2 C91.673,88.34 90.514,85.46 90.226,84.8 C89.937,84.14 89.378,82.7 88.982,81.6 C88.586,80.5 88.143,79.42 87.996,79.2 C87.85,78.98 87.312,77.63 86.8,76.2 C86.288,74.77 85.75,73.42 85.604,73.2 C85.457,72.98 85.014,71.9 84.618,70.8 C84.222,69.7 83.664,68.26 83.376,67.6 C83.089,66.94 82.2,64.78 81.402,62.8 C80.603,60.82 79.737,58.705 79.477,58.1 C79.001,56.993 78.4,56.624 78.4,57.44 M107.2,78.54 C107.2,101.406 107.125,102.403 105.36,102.846 C103.253,103.375 104.609,103.8 108.4,103.8 C110.8,103.8 112.4,103.64 112.4,103.4 C112.4,103.18 112.137,103 111.816,103 C109.633,103 109.6,102.707 109.6,83.3 L109.6,65.351 L111.257,67.276 C112.168,68.334 113.023,69.29 113.157,69.4 C113.29,69.51 114.66,71.034 116.2,72.787 C117.74,74.539 119.27,76.263 119.6,76.618 C120.395,77.473 124.722,82.388 126.438,84.385 C127.187,85.256 128.07,86.258 128.4,86.612 C129.455,87.742 134.622,93.544 136.035,95.185 C136.786,96.056 137.67,97.054 138,97.401 C138.33,97.749 139.757,99.331 141.171,100.917 C142.584,102.503 143.889,103.8 144.071,103.8 C144.252,103.8 144.4,94.092 144.4,82.226 C144.4,59.622 144.461,58.801 146.183,58.369 C148.163,57.872 146.698,57.4 143.176,57.4 C141.059,57.4 139.6,57.563 139.6,57.8 C139.6,58.02 139.86,58.2 140.177,58.2 C141.925,58.2 142,59.01 142,77.789 L141.999,95.6 L141.054,94.502 C140.535,93.898 139.03,92.188 137.711,90.702 C136.392,89.216 134.702,87.28 133.957,86.4 C133.211,85.52 132.498,84.71 132.371,84.6 C132.244,84.49 130.646,82.69 128.82,80.6 C125.945,77.31 121.451,72.217 120.2,70.833 C119.98,70.589 118.542,68.952 117.004,67.195 C115.465,65.438 114.115,63.91 114.004,63.8 C113.892,63.69 112.476,62.115 110.858,60.3 C109.239,58.485 107.754,57 107.558,57 C107.352,57 107.2,66.148 107.2,78.54 M171.2,57.238 C148.698,61.312 144.127,92.036 164.572,101.786 C171.943,105.301 189.495,105.752 191.132,102.468 C193.358,98 194.063,94.678 192.253,97.18 C186.629,104.96 172.871,105.088 164.2,97.442 C154.314,88.725 153.029,71.494 161.637,63.066 C168.069,56.768 183.966,56.317 189.468,62.275 C190.538,63.433 192,66.04 192,66.789 C192,67.099 192.18,67.464 192.4,67.6 C192.658,67.759 192.8,66.212 192.8,63.248 L192.8,58.649 L190.9,58.405 C189.855,58.271 188.28,57.979 187.4,57.756 C185.729,57.332 172.938,56.923 171.2,57.238 M216.077,58.1 C214.988,60.952 213.2,66.091 213.2,66.369 C213.2,66.539 212.951,67.246 212.646,67.94 C212.342,68.633 211.427,71.09 210.613,73.4 C209.8,75.71 208.969,77.913 208.767,78.295 C208.565,78.677 208.4,79.189 208.4,79.434 C208.4,79.679 208.151,80.446 207.846,81.14 C207.542,81.833 206.624,84.29 205.806,86.6 C204.989,88.91 204.163,91.16 203.972,91.6 C203.78,92.04 203.23,93.57 202.749,95 C201.277,99.376 199.933,101.496 198.061,102.399 C195.562,103.603 195.976,103.8 201,103.8 C205.603,103.8 206.475,103.527 204.6,102.673 C203.166,102.019 203.238,99.396 204.794,95.6 C204.974,95.16 205.52,93.63 206.006,92.2 C206.493,90.77 207.141,89.033 207.446,88.34 C207.75,87.646 208,86.878 208,86.631 C208,86.312 210.313,86.215 216.054,86.292 L224.107,86.4 L225.464,90 C226.21,91.98 227.545,95.461 228.43,97.736 C230.062,101.931 230.086,103 228.551,103 C228.248,103 228,103.18 228,103.4 C228,103.648 230.2,103.8 233.8,103.8 C239.293,103.8 241.203,103.39 238.27,102.84 C235.989,102.412 233.68,99.14 231.608,93.4 C231.092,91.97 230.548,90.62 230.4,90.4 C230.252,90.18 229.712,88.83 229.2,87.4 C228.688,85.97 228.15,84.62 228.004,84.4 C227.857,84.18 227.413,83.1 227.015,82 C226.343,80.14 225.256,77.489 224.39,75.6 C224.188,75.16 222.835,71.74 221.383,68 C217.211,57.255 217.105,57 216.793,57 C216.63,57 216.308,57.495 216.077,58.1 M250.461,57.771 C244.764,59.894 241.473,65.105 242.235,70.796 C242.914,75.875 246.252,78.91 255.152,82.542 C265.161,86.626 268.91,93.058 264.918,99.294 C261.288,104.966 249.094,105.014 245.2,99.371 C244.87,98.893 244.42,98.299 244.2,98.051 C243.622,97.399 242.209,94.277 241.598,92.3 C241.309,91.365 240.9,90.6 240.689,90.6 C240.479,90.6 240.425,91.005 240.571,91.5 C240.792,92.255 241.97,99.143 241.993,99.814 C241.997,99.931 242.585,100.368 243.3,100.784 C244.015,101.199 244.69,101.643 244.8,101.77 C248.128,105.599 259.934,105.4 265.89,101.414 C275.613,94.906 272.19,83.415 258.8,77.615 C249.308,73.503 247.609,72.208 246.595,68.316 C243.626,56.919 261.618,53.658 267.192,64.583 C268.349,66.852 268.8,66.601 268.8,63.689 C268.8,60.89 268.52,60.481 265.8,59.308 C260.447,57 254.207,56.375 250.461,57.771 M25.603,57.7 C25.604,57.865 26.144,58.307 26.803,58.681 L28,59.363 L28,79.194 C28,100.984 27.982,101.165 25.619,102.509 C23.472,103.731 24.171,103.8 38.757,103.8 L53.113,103.8 L55.166,98.927 C57.647,93.035 57.602,92.436 54.949,96.071 C51.411,100.921 46.816,102.895 39.933,102.524 C32.165,102.105 32.4,102.846 32.4,78.792 C32.4,58.497 32.429,58.2 34.4,58.2 C34.62,58.2 34.8,58.02 34.8,57.8 C34.8,57.557 33,57.4 30.2,57.4 C27.67,57.4 25.601,57.535 25.603,57.7 M274.4,61.4 C274.4,66.024 274.688,66.34 275.8,62.938 C277.007,59.248 277.786,58.936 285.43,59.084 C293.925,59.248 292.977,56.509 293.111,81.284 L293.221,101.825 L292.013,102.513 C290.067,103.62 290.54,103.8 295.4,103.8 C298.2,103.8 300,103.643 300,103.4 C300,103.18 299.758,103 299.462,103 C297.62,103 297.6,102.773 297.6,81.63 C297.6,56.583 296.678,58.819 306.907,59.068 C313.431,59.226 314.146,59.569 315.392,63.134 C316.51,66.333 316.8,65.976 316.8,61.4 L316.8,57.4 L295.6,57.4 L274.4,57.4 L274.4,61.4 M323.2,57.569 C323.2,57.662 323.749,58.288 324.421,58.959 L325.642,60.18 L325.521,79.89 L325.4,99.6 L324.48,101.079 C323.974,101.893 323.209,102.67 322.78,102.806 C320.307,103.591 323.128,103.8 336.22,103.8 L350.441,103.8 L351.046,102.3 C351.379,101.475 352.019,99.996 352.469,99.013 C353.91,95.862 354.034,95.4 353.436,95.4 C353.136,95.4 352.599,96.016 352.241,96.77 C349.976,101.543 340.865,104.12 333.738,102.004 C330.267,100.973 330.22,100.845 330.068,92.092 C329.872,80.757 329.922,80.664 336.401,80.294 C343.046,79.915 347.2,81.285 347.2,83.854 C347.2,84.264 347.38,84.6 347.6,84.6 C347.845,84.6 348,82.667 348,79.6 C348,74.594 347.7,73.493 346.983,75.867 C346.29,78.162 345.109,78.643 339.763,78.813 C329.905,79.125 329.913,79.134 330.077,68.541 C330.232,58.584 329.755,59.247 336.893,59.067 C345.431,58.85 347.057,59.471 348.568,63.524 C349.592,66.274 349.781,65.587 349.202,61.213 L348.697,57.4 L335.949,57.4 C328.937,57.4 323.2,57.476 323.2,57.569 M358.4,57.8 C358.4,58.02 358.58,58.2 358.8,58.2 C360.792,58.2 360.8,58.296 360.8,80.819 L360.8,101.837 L359.603,102.519 C357.667,103.62 358.146,103.8 363,103.8 C367.202,103.8 368.817,103.412 366.805,102.885 C365.477,102.538 365.2,100.864 365.2,93.2 C365.2,83.34 364.96,83.8 370.118,83.8 C374.889,83.8 373.828,83.069 379.404,90.197 C388.865,102.291 389.963,103.173 396.126,103.625 C400.004,103.91 401.612,103.391 398.603,102.827 C394.327,102.025 391.772,99.665 383.204,88.6 C380.904,85.63 378.875,83.095 378.695,82.966 C378.514,82.837 379.108,82.218 380.015,81.59 C389.419,75.073 387.909,60.372 377.594,58.026 C374.372,57.293 358.4,57.105 358.4,57.8 M373.796,58.843 C379.072,60.168 381.214,63.352 381.507,70.305 C381.896,79.519 379.522,82.417 371.679,82.301 C366.64,82.227 366.18,82.092 365.633,80.524 C365.114,79.035 365.044,60.265 365.554,59.46 C366.342,58.217 370.164,57.931 373.796,58.843 M80.211,70.86 C80.535,71.554 80.8,72.398 80.8,72.737 C80.8,73.076 80.966,73.455 81.169,73.581 C81.372,73.706 81.665,74.386 81.82,75.091 C81.975,75.797 82.259,76.65 82.45,76.987 C82.901,77.78 85.2,83.886 85.2,84.291 C85.2,84.461 82.03,84.6 78.155,84.6 L71.111,84.6 L71.391,83.1 C71.545,82.275 71.817,81.42 71.994,81.2 C72.172,80.98 72.504,80.17 72.732,79.4 C73.502,76.803 77.139,66.528 77.371,66.296 C77.497,66.17 77.609,65.692 77.62,65.233 C77.63,64.775 78.085,65.57 78.63,67 C79.176,68.43 79.887,70.167 80.211,70.86 M221.017,78.557 C222.218,81.724 223.2,84.379 223.2,84.457 C223.2,84.536 219.96,84.6 216,84.6 C212.04,84.6 208.801,84.555 208.802,84.5 C208.803,84.445 209.227,83.23 209.745,81.8 C211.697,76.407 214.628,68.018 215.476,65.4 C215.671,64.798 216.961,67.861 221.017,78.557" id="path3" fill="#636262"></path>
            <path d="M0,80.8 L0,160.253 L1.1,160.127 L2.2,160 L2.2,80.8 L2.2,1.6 L1.1,1.473 L0,1.347 L0,80.8 M77.2,113.952 C59.356,117.21 52.347,141.24 65.39,154.444 C73.693,162.849 87.511,163.52 97.51,156.004 C98.88,154.974 100,154.011 100,153.862 C100,153.713 100.411,153.144 100.912,152.596 C107.61,145.285 108.466,131.393 102.74,122.922 C97.757,115.55 87.731,112.028 77.2,113.952 M113.6,135.738 C113.6,159.68 113.623,159.4 111.669,159.4 C111.411,159.4 111.2,159.58 111.2,159.8 C111.2,160.04 112.8,160.2 115.2,160.2 C117.6,160.2 119.2,160.04 119.2,159.8 C119.2,159.58 118.853,159.4 118.429,159.4 C116.054,159.4 115.999,158.943 116.013,139.446 L116.025,121.6 L117.068,122.8 C117.972,123.84 122.647,129.089 123.801,130.359 C124.021,130.601 126.265,133.14 128.786,136 C133.774,141.657 134.436,142.405 137.649,146.021 C138.832,147.353 141.06,149.868 142.6,151.61 C144.14,153.352 146.047,155.502 146.837,156.389 C147.627,157.275 148.694,158.495 149.209,159.1 C151.238,161.486 151.2,161.884 151.2,137.994 L151.2,115.788 L152.5,114.996 L153.8,114.203 L149.8,114.233 C147.6,114.25 146.07,114.362 146.4,114.484 C148.473,115.246 148.401,114.542 148.391,133.762 L148.381,151.6 L146.691,149.795 C145.761,148.802 143.92,146.751 142.6,145.238 C141.28,143.724 140.02,142.283 139.8,142.035 C137.018,138.905 135.81,137.538 133.6,135.021 C131.075,132.146 130.285,131.248 124.8,125.017 C123.37,123.392 121.93,121.77 121.6,121.411 C121.27,121.053 119.74,119.329 118.2,117.58 C114.497,113.374 114.523,113.4 114.029,113.4 C113.729,113.4 113.6,120.12 113.6,135.738 M227.445,113.841 C215.75,115.548 206.992,128.58 209.015,141.265 C213.121,167.02 249.471,168.282 256.05,142.899 C258.217,134.54 256.075,125.603 250.571,120.046 C245.208,114.629 237.048,112.44 227.445,113.841 M263.6,135.511 C263.6,159.28 263.59,159.4 261.577,159.4 C261.15,159.4 260.8,159.58 260.8,159.8 C260.8,160.041 262.467,160.2 265,160.2 C267.533,160.2 269.2,160.041 269.2,159.8 C269.2,159.58 268.93,159.4 268.6,159.4 C266.416,159.4 266.4,159.262 266.4,140 C266.4,123.04 266.433,122.234 267.1,122.919 C267.485,123.315 268.88,124.89 270.2,126.419 C272.54,129.131 274.79,131.68 276,132.991 C276.33,133.348 277.86,135.065 279.4,136.807 C280.94,138.548 282.47,140.262 282.8,140.616 C283.891,141.785 286.168,144.362 288.6,147.181 C289.92,148.71 291.27,150.25 291.6,150.604 C292.328,151.384 296.976,156.625 298.779,158.7 C301.301,161.602 301.2,162.468 301.2,137.994 L301.2,115.788 L302.5,114.996 L303.8,114.203 L299.8,114.214 C296.679,114.222 295.976,114.321 296.6,114.662 C298.419,115.657 298.4,115.452 298.398,133.976 L298.395,151.6 L296.298,149.211 C295.144,147.897 293.3,145.82 292.2,144.597 C291.1,143.373 289.12,141.13 287.8,139.613 C286.48,138.096 285.13,136.564 284.8,136.208 C284.199,135.56 283.469,134.728 279,129.595 C277.68,128.079 276.33,126.555 276,126.208 C275.67,125.86 273.6,123.512 271.4,120.988 C265.437,114.148 264.721,113.4 264.136,113.4 C263.695,113.4 263.6,117.302 263.6,135.511 M163.6,114.15 C160.509,114.318 159.295,114.507 159.898,114.726 C162.089,115.522 162,114.581 162,137.029 C162,159.578 162.017,159.4 159.8,159.4 C159.47,159.4 159.2,159.552 159.2,159.738 C159.2,160.299 180.296,160.696 183.438,160.194 C202.145,157.206 210.228,133.927 197.19,120.59 C196.093,119.468 191.917,116.6 191.38,116.6 C191.237,116.6 190.554,116.348 189.86,116.04 C185.822,114.247 175.496,113.504 163.6,114.15 M26.711,115.002 L28.021,115.801 L27.911,136.301 C27.789,158.843 27.821,158.56 25.3,159.243 C22.584,159.979 25.706,160.2 38.82,160.2 L53.241,160.2 L53.838,158.7 C54.167,157.875 54.6,156.84 54.8,156.4 C55.763,154.284 57.2,150.58 57.2,150.212 C57.2,149.378 56.467,149.833 56.093,150.9 C54.282,156.07 46.938,159.522 39.233,158.823 C32.099,158.177 32.364,159.113 32.496,134.992 L32.6,116.032 L33.959,115.116 L35.318,114.2 L30.359,114.201 L25.4,114.203 L26.711,115.002 M87.742,115.38 C91.815,116.781 95.43,119.507 97.299,122.585 C97.771,123.363 98.261,124.09 98.387,124.2 C100.11,125.703 101.373,131.429 101.387,137.8 C101.408,147.644 99.25,152.735 93.16,157.212 C90.428,159.22 84.036,160.303 80.01,159.439 C73.028,157.942 69.12,154.23 64.766,144.957 C61.959,138.978 63.821,125.334 68.061,120.811 C68.685,120.145 69.197,119.483 69.198,119.339 C69.202,118.764 73.845,116.043 75.954,115.38 C79.161,114.371 84.809,114.371 87.742,115.38 M177.6,115.207 C190.787,116.386 198.4,124.896 198.4,138.456 C198.4,149.908 194.694,155.595 185.2,158.711 C179.394,160.617 168.961,159.562 167.19,156.889 C166.276,155.512 166.067,116.574 166.969,115.826 C167.735,115.19 171.268,114.644 173.4,114.833 C174.28,114.911 176.17,115.079 177.6,115.207 M238.196,115.556 C241.992,116.933 244.982,119.27 247.8,123.062 C251.356,127.847 252.736,140.502 250.432,147.2 C244.161,165.429 221.12,163.584 215,144.362 C209.216,126.199 222.403,109.823 238.196,115.556" id="path4" fill="#9B9B9A"></path>
        </g>
    </g>
</svg>