<?xml version="1.0" encoding="UTF-8"?>
<svg id="Layer_1" xmlns="http://www.w3.org/2000/svg" version="1.1" viewBox="0 0 900 415.52">
  <!-- Generator: Adobe Illustrator 29.6.1, SVG Export Plug-In . SVG Version: 2.1.1 Build 9)  -->
  <defs>
    <style>
      .st0 {
        fill: #2a4a22;
      }
    </style>
  </defs>
  <path class="st0" d="M244.35,121.67c-3.44,3.96-5.72,8.64-4.85,14.47.68,4.52,5.75,6.95,9.73,5.71,5.75-1.79,8.18-7.12,8.18-14.27,0-7.61-7.87-11.9-13.06-5.91Z"/>
  <path class="st0" d="M486.56,224.26l-4.69.44,1.42,14.97,4.69-.44c8.47-.8,11.83-3.94,11.38-8.63-.44-4.69-4.33-7.14-12.8-6.34h0Z"/>
  <path class="st0" d="M419.85,231.23c-10.76,2.7-14.49,11.52-12.02,21.37,2.51,10.01,9.92,15.87,20.76,13.15,10.59-2.66,14.28-11.29,11.94-21.35-2.63-9.8-10.09-15.82-20.68-13.17h0Z"/>
  <path class="st0" d="M878.72,88.57c-13.84-10.62-34.42-9.28-50.35-2.9-3.41,1.37-11.17,4.6-11.17,4.6-4.43-11.08,1.27-20.74,10.9-22.93,9.1-2.07,3.99-12.42-10.05-10.83-28.89,3.26-40.67,38.66-64.82,53.84,5.96-25.56-15.4-37.27-35.06-25.61-27.88,16.52-52.01,49.81-83.39,37.67,18.83-18.2,35.4-31.13,42.62-39.54,6.34-7.39,5.17-13.28-7.9-13.06-9.34.15-24.35.58-48.11,3.12-10.32,1.1-6.71,16.75,6.36,15.33,7.52-.82,13.57-1.35,21.37-1.92-7.41,8.93-19.88,17.43-28.61,26.64-8.78,9.36-41.18,26.23-36.58,2.89,5.72-29.02,4.53-48.68-28.61-27.84,1.19-4.03,4.23-8.99-.11-10.1-.87-.22-6.83-1.22-9.42-.77-2.32.41-2.94,1.25-3.65,3.01-9.85,24.5-28.87,62.78-48.63,60.76-7.89-.81-9.48-11.02-9.48-11.02,22.4-4.2,50.55-45.21,23.14-55.72-32.97-12.63-44.73,61.83-72.61,82.31-25.86,19-30.1-8.11-22.81-27.95,2.03-5.53,4.47-17.35,11.67-16.47,3.79.95,5.48,3.89,4.52,8.3-1.43,5.91-3.95,12.05-3.76,18.14.45,5.98,8.69,8.72,12.02,3.19,14.09-23.41,6.87-44.19-21.86-41.37-25.75,2.53-33.48,32.92-39.99,54.11-3.01,11.28-5.82,18.72-7.99,23.41-8.55,18.42-15.15-15.74-22.35-40.46-4.04-13.87-21.01-4.89-28.12,3.08,1.03-5.4,4.19-11.19-4.86-11.12-4.37.03-12.59-.65-13.59,4.27-2.1,10.32-3.44,19.31-6.18,31.73-2,9.08-22.47,34.11-37.41,48.35-1.01.97-2.85,2.85-5.34,3.37-3.31-20.1,4.9-39.4,7.23-59.23.43-8.72-13.07-7.23-16.21-.73-3.35,6.92-14.43,52.29-13.19,68.94.86,11.45,13.35,21.26,23.81,14.87,9.24-5.65,16.65-12.75,22.73-21.48,7.1-10.2,10.95-16.19,15.84-25.61.78-1.5,3.3-8.7,2.21-2.72-1.71,9.4-2.09,11.66-3.34,19.71-.45,2.91-.13,8.04,3.53,7.31,4.37-.87,8.35-2.35,11.56-3.83,2.14-.98,3.46-1.73,4.01-6.43.69-5.92,4.96-25.74,6.37-30.19,2.51-7.89,12.65-34.14,16.14-20.56,3.65,14.19,3.68,37.38,23.06,38.34,22.23.51,30.43-19.36,37.93-36.74,15.81,37.82,61.92,6.35,78.55-14.97,18.31,22.11,38.68,13.75,55.58-5.08-.55,2.24-1.79,7.62-2.68,11.52-.38,1.65-.29,3.88,1.83,4.1s7.77,0,11.4-.74c3.6-.74,4.88-3.52,5.58-5.33,4.5-11.63,11.53-27.44,17.45-36.37,3.13-5.45,13.47-17.71,11.62-3.64-5.62,42.67,13.31,38.38,45.8,31.81,35.02-8.95,34.97,16.42,74.19-17.22-1.66,17.66,13.48,27.65,28.24,22.93,11.89-3.88,17.7-8.91,29.7-19.04,8.11-1.38,12.32-2.8,19.26-7.27,13.86-8.93,24.62-21.36,35.61-33.71,2.03,4.75,2.65,8.28,2.63,10.07-11.72,6.86-46.01,39.68-23.81,53.63,18.73,11.77,40.48-4.65,42.08-24.65.54-6.82.29-16.21.19-23.09,0,0,6.84-2.09,11.15-3.69,28.74-10.68,55.7,11.71,31.78,31.62-10.6,8.83-35.75,19.28-48.76,23.3-30.39,9.4-73.02,19.17-116.91,24.88-76.2,9.92-175.89,1.59-238.31,7.41-110.11,10.27-212.23,55.72-266.03,142.36,26.63,16.22,92.62,47.17,112.49,57.53,10.47-14.46,79.46-88.11,185.85-93.31,176.45-8.63,275.77-31.67,338.65-81.78,26.06-20.76,51.89-45.39,57.99-79.35,2.41-14.44.03-33.11-12.59-42.09h0ZM499.31,86.02c4.64,0,5.84,4.6,4.53,8.08-.74,1.98-8.7,18-21.1,23.17-2.27-17.45,11.4-31.25,16.56-31.25h.01ZM732.14,123.42c-3.8,3.39-7.97,5.87-12.54,7.29-4.21,1.31-8.11-1.47-8.99-4.19-2.83-8.76-.03-17.14,7.21-23.86,1.05-.98,3.44-2.99,3.75-2.83.13,1.54.25,3.08.41,4.61.67,6.45,4.88,10.55,9.7,14.07,2.82,2.06,3.05,2.6.46,4.91h0ZM744.52,103.3c-.11,2.55-1.02,4.9-2.29,6.58-.2.27-.53.31-.65.31-1.63-.09-3.67-1.32-4.69-2.25-2.67-2.44-3.29-6.17-2.74-9.97.65-4.44,5.99-5.64,7.81-3.71,2.25,2.38,2.73,4.93,2.54,9.04h.02ZM801.36,138.03c-3.41,3.14-10.3,2.89-10.26-3.43.05-8.1,11.12-22.15,17.82-25.65,4.42,10.53.02,22.1-7.57,29.08h.01ZM316.05,337.87c-5.92,4.92-14.64,8.91-22.21,9.39-2.82.18-3.9-.14-4.54-2.86l-1.67-6.73c-.53-2.26-.19-3.49,2.59-4.04,6.77-1.29,13.32-4.3,17-7.36,3.36-2.79,5.18-5.65,2.72-8.61-6.71-8.08-31.54,10.37-44.69-5.47-7.57-9.12-6.51-20.54,4.21-29.45,4.56-3.79,11.58-7.05,17.03-7.65,2.76-.26,3.81.35,4.54,2.86l1.81,6.74c.54,2.12,0,3.25-2.59,4.04-4.17,1.16-8.69,2.89-11.49,5.21-3.04,2.52-4.56,5.41-2.57,7.81,6.25,7.52,31.8-10.05,44.36,5.07,8.37,10.08,6.7,21.74-4.5,31.04h0ZM387.45,292.11l-5.26,2.85c-2.18,1.18-3.81.7-4.99-1.48l-11.08-20.47-19.76,12.58,9.42,17.39c1.18,2.18.7,3.81-1.48,4.99l-5.26,2.85c-2.18,1.18-3.81.7-4.99-1.48l-26.71-49.35c-1.18-2.18-.7-3.81,1.48-4.99l5.26-2.85c2.18-1.18,3.8-.7,4.99,1.48l10.95,20.23,19.76-12.58-9.28-17.15c-1.18-2.18-.7-3.81,1.48-4.99l5.26-2.85c2.18-1.18,3.81-.7,4.99,1.48l26.71,49.35c1.18,2.18.7,3.81-1.48,4.99h-.01ZM431.57,278.3c-17.1,4.29-31.29-4.57-35.83-22.67-4.5-17.94,3.79-32.61,21.06-36.94,17.02-4.27,31.17,4.77,35.83,22.67,4.37,18.14-3.96,32.65-21.06,36.94ZM513.38,266.46l-3.54,1.17c-2.82.93-3.19.47-5.49-2.8l-10.05-14.07c-1.7.41-3.51.66-5.48.85l-4.36.41,1.15,12.17c.21,2.22-.76,3.39-2.98,3.6l-5.35.51c-2.22.21-3.39-.76-3.6-2.98l-4.59-48.53c-.21-2.22.76-3.39,2.98-3.6l13-1.23c15.55-1.47,24.96,4.11,26.22,17.52.71,7.49-1.51,13.01-6.38,16.79l10.32,15.21c1.65,2.5,1.13,4.04-1.85,4.99h0ZM561.34,261.93l-28.01,1.75c-2.07.13-3.2-.8-3.25-2.87l-1.3-45.24c-.05-2.07.8-3.12,2.87-3.25l26.4-1.65c2.07-.13,3.12.8,3.25,2.87l.29,4.67c.12,1.99-.81,3.05-2.8,3.17l-19.05,1.19.23,9.82,16.23-2.09c2.06-.28,3.12.8,3.25,2.87l.29,4.67c.12,1.99-.82,2.89-2.8,3.17l-16.61,2.19.2,9.28,20.05-1.26c2.07-.13,3.12.8,3.25,2.87l.29,4.67c.12,1.99-.81,3.05-2.8,3.17h.02ZM594.1,258.59l-6.35,1.17-.22.02-4.69.89c-1.95.38-2.99-.71-3.15-2.67l-3.48-42.92c-.16-1.96.71-2.99,2.67-3.15l11.5-.93c15.28-1.24,27.14,4.17,28.52,21.12,1.3,16.01-10.51,23.92-24.8,26.47h0ZM644.27,256.03l-4.52.56c-1.88.23-2.89-.56-3.12-2.44l-5.38-43.77c-.23-1.88.56-2.89,2.44-3.12l4.52-.56c1.88-.23,2.89.56,3.12,2.44l5.38,43.77c.23,1.88-.56,2.89-2.44,3.12ZM691.75,211.54l-11.79,2.04,5.55,32.16c.31,1.81-.41,2.83-2.22,3.14l-4.36.75c-1.81.31-2.83-.41-3.14-2.22l-5.55-32.16-11.86,2.05c-1.74.3-2.76-.42-3.06-2.16l-.82-4.76c-.31-1.81.41-2.83,2.22-3.14l33.23-5.74c1.81-.31,2.83.41,3.14,2.22l.82,4.76c.3,1.74-.42,2.76-2.16,3.06h0ZM748.53,229.61c-3.34,3.63-7.88,6.39-12.3,7.69-12.41,3.66-23.07-2.42-26.95-15.57-3.84-13.03,1.79-24.04,14.32-27.73,4.36-1.29,9.68-1.43,14.38-.17.9.28,1.2.86,1.05,2.2l-.51,5.17c-.13,1.39-.79,1.93-2.41,1.72-2.33-.33-6.71-.46-9.76.44-7.67,2.26-10.1,8.73-8.04,15.72,2.09,7.11,7.61,11.11,15.28,8.85,3.05-.9,6.66-3.38,8.44-4.93,1.25-1.05,2.09-.96,2.96.15l3.23,4.06c.85,1.04.91,1.7.31,2.42v-.02ZM797.49,212.14l-3.6,1.81c-1.5.75-2.58.39-3.33-1.1l-7.05-14.01-13.57,8.07,5.99,11.91c.75,1.5.39,2.58-1.1,3.33l-3.6,1.81c-1.5.75-2.58.39-3.33-1.1l-17-33.79c-.75-1.5-.39-2.58,1.1-3.33l3.6-1.81c1.5-.75,2.58-.39,3.33,1.1l6.97,13.85,13.57-8.07-5.91-11.74c-.75-1.5-.39-2.58,1.1-3.33l3.6-1.81c1.5-.75,2.58-.39,3.33,1.1l17,33.79c.75,1.5.39,2.58-1.1,3.33h0Z"/>
  <path class="st0" d="M591.56,221.88l-4.15.34,2.12,26.12,3.97-.69c8.37-1.56,15.52-6.39,14.85-14.68-.77-9.53-8.5-11.76-16.79-11.09h0Z"/>
  <path class="st0" d="M215.62,112.68c19.94-.56,37.86-18.83,31.33-39.44-.93-2.93-4.25-2.92-5.72-.75-5.94,8.75-15.63,17.58-26.48,17.58-.4-6.29-1.77-13.57-2.63-17.99-6.1-31.22-38.05-62.42-62.86-23.53-12.1,18.97.81,46.58,17.41,57.59,4.57,3.03,11.84,6.03,17.76,8.02,4.08,26.29-17.82,129.05-20.21,138.12-.83,3.17-3.75,3.37-6.64,1.71-16.28-11.35-19.39-41.78-20.99-60.03-4.17-47.51-1.43-98.56-28.5-140.69-4.76-7.41-23.05-22.75-47.74-17.83C28.03,41.88,5.34,65.48,5.86,98.32c.4,25.08,6.39,52.59,27.83,67.32,20.06,13.79,39.19-1.78,42.64-11.21,1.6-4.37-1.63-2.7-4.41-2.68-26.57.2-38.69-48.56-31.52-69.98,7.76-23.15,35.53-27.67,42.41-12.53,31.67,69.81-6.07,169,59.85,221.47,9.22,7.34,29.54,20.44,37.73,6.25,24.21-41.96,29.06-92.17,33.07-139.59,1.11-13.18,1.23-35.86,2.16-44.69ZM166.42,68.91c-5.24-9.74,6.9-18.18,11.71-13.31,7.46,7.55,10.38,17.92,10.38,28.17-11.63,0-18.61-8.37-22.1-14.86h0Z"/>
</svg>