<?xml version="1.0" encoding="UTF-8"?>
<svg xmlns="http://www.w3.org/2000/svg" baseProfile="tiny" version="1.2" viewBox="0 0 201.7 115.77">
  <!-- Generator: Adobe Illustrator 28.6.0, SVG Export Plug-In . SVG Version: 1.2.0 Build 709)  -->
  <g>
    <g id="Layer_1">
      <g>
        <path d="M85.35,4.06c1.5.14,3.24.32,4.99.47,8.03.67,16.04,1.38,24.01,2.6,3.39.52,6.83.69,10.22,1.19,8.68,1.26,17.34,2.6,26.01,3.95,2.28.36,4.53.93,6.8,1.34,2.82.5,5.66.9,8.49,1.4,4.78.85,9.55,1.71,14.32,2.63,4.38.84,8.74,1.77,13.11,2.66.54.11,1.09.22,1.62.39,3.2,1.06,4.13,2.32,3.87,5.66-.25,3.1-.61,6.19-1.05,9.27-.86,6-1.84,11.98-2.71,17.97-.74,5.14-2.58,9.63-6.74,13.06-4.55,3.76-8.84,7.84-13.42,11.56-3.46,2.81-6.95,5.61-10.33,8.51-5.39,4.63-11.06,8.92-16.27,13.76-2.4,2.23-4.74,4.51-7.38,6.47-1.86,1.38-3.8,2.63-5.86,3.7-1.83.95-3.78,1.21-5.81,1.01-3.18-.31-6.33-.82-9.47-1.41-3.53-.66-7.1-1.15-10.56-2.05-6.63-1.72-13.41-2.83-19.96-4.9-2.81-.89-5.72-1.45-8.56-2.23-5.3-1.45-10.59-2.96-15.88-4.45-7.83-2.2-15.66-4.35-23.48-6.6-7.59-2.18-15.15-4.46-22.72-6.7-1.61-.47-3.23-.89-4.83-1.37-1.95-.59-3.26-1.81-4.03-3.77-1.03-2.63-1.37-5.41-1.99-8.12-1.07-4.66-1.85-9.38-2.73-14.08-.7-3.76-1.33-7.53-2.05-11.28-.32-1.68.27-2.98,1.47-4.06.47-.42,1.04-.75,1.59-1.07,7.55-4.32,15.2-8.45,22.89-12.52,6.14-3.25,12.34-6.39,18.61-9.37,7.79-3.7,15.64-7.26,23.63-10.52,4.5-1.84,10.15-3.12,14.18-3.1ZM86.19,6.55c-1.34.07-2.86.08-4.37.23-4.11.41-7.92,1.91-11.63,3.54-7.38,3.25-14.8,6.39-22.06,9.91-5.32,2.57-10.61,5.2-15.95,7.71-6.28,2.95-12.26,6.52-18.35,9.86-2.17,1.19-4.27,2.5-6.38,3.81-1.32.82-2.05,2.03-1.84,3.62.26,1.97.56,3.95.93,5.9.9,4.69,1.84,9.38,2.79,14.06.68,3.36,1.47,6.69,2.11,10.06.5,2.63,2.2,3.93,4.59,4.64,2.98.89,5.94,1.85,8.92,2.71,4.9,1.42,9.82,2.78,14.73,4.16,6.98,1.97,13.91,4.11,20.95,5.86,7.97,1.98,15.84,4.31,23.8,6.31,5.33,1.34,10.59,2.96,15.99,4.07,8.58,1.77,17.13,3.75,25.81,5.01,4.08.59,7.74.09,11.25-2.64,4.86-3.77,9.32-7.99,14.17-11.76,5.47-4.25,10.59-8.95,15.93-13.36,6.71-5.54,13.36-11.14,19.78-17.01.41-.38.77-.8,1.15-1.22,2.26-2.47,3.12-5.61,3.7-8.73,1.41-7.6,2.26-15.3,3.09-22.98.14-1.27.3-2.54.34-3.81.06-1.74-.49-2.49-2.09-3.06-.52-.19-1.07-.34-1.62-.44-6.84-1.14-13.53-3.05-20.38-4.13-3.69-.58-7.37-1.32-11.05-1.94-6.43-1.09-12.88-2.13-19.33-3.17-9.29-1.5-18.58-2.99-27.9-4.3-3.4-.47-6.82-.77-10.22-1.21-5.54-.72-11.1-1.3-16.86-1.7Z"/>
        <path d="M192.91,25.62c.18.1.37.15.41.26.05.12,0,.34-.09.43-.33.34-.69.66-1.05.96-3.16,2.71-6.71,4.88-10.18,7.15-5.21,3.41-10.46,6.77-15.64,10.22-5.78,3.84-11.58,7.66-17.17,11.79-4.81,3.55-9.68,7.04-14.67,10.35-2.16,1.43-2.82,3.33-2.88,5.65-.08,3.19.25,6.37.38,9.55.23,5.4.12,10.82.35,16.23.07,1.6.25,3.16-.16,4.73-.06.22-.07.51-.36.48-.27-.02-.33-.29-.35-.53-.11-1.35-.45-2.66-.53-4.03-.46-7.88-1.01-15.76-1.55-23.64-.04-.55-.2-1.1-.33-1.64-.53-2.11-1.26-2.73-3.44-3.01-5.06-.65-10.12-1.29-15.18-1.98-6.56-.9-13.1-1.93-19.55-3.42-7.69-1.78-15.41-3.41-23.03-5.48-13.77-3.76-27.61-7.29-41.43-10.89-3.25-.84-6.54-1.5-9.79-2.34-2.24-.58-4.43-1.33-6.64-2.03-.27-.09-.69-.24-.63-.59.1-.56.61-.43.97-.34,2.01.51,4.01,1.07,6.02,1.57,2.02.5,4.04.94,6.1,1.25,2.05.3,4.07.79,6.08,1.3,4.72,1.2,9.48,2.21,14.2,3.37,5.96,1.46,11.91,2.98,17.87,4.47,4.26,1.06,8.52,2.09,12.78,3.14,8.52,2.11,17.12,3.86,25.74,5.54,5.71,1.12,11.48,1.89,17.23,2.76,2.62.4,5.24.49,7.88.53,3.05.04,5.83-.73,8.36-2.46,4.21-2.88,8.46-5.72,12.68-8.6,7-4.76,13.9-9.66,21-14.25,5.76-3.72,11.45-7.58,17.41-10.99,2.28-1.31,4.44-2.83,6.67-4.24.8-.51,1.59-1.06,2.51-1.27Z"/>
        <path d="M72.4,26.65c-1.12-.11-3.24.4-5.34.84-7.18,1.5-14.42,2.74-21.53,4.57-7.27,1.87-14.49,3.9-21.58,6.36-2.71.94-5.42,1.93-8.23,2.57-.36.08-.88.4-1.01-.07-.11-.41.53-.5.87-.66,3.06-1.38,6.21-2.52,9.35-3.69,6.36-2.37,12.86-4.31,19.38-6.13,4.75-1.33,9.61-2.28,14.41-3.45,3.33-.81,6.69-1.49,10.08-2.05.16-.03.31-.15.46-.13,3.28.34,4.37-1.76,5.06-4.43.79-3.1,1.94-6.08,3.29-8.98.23-.5.47-1.01.74-1.5.06-.12.26-.26.36-.24.31.06.23.34.2.55-.06.39-.13.79-.26,1.17-1.11,3.26-1.91,6.59-2.49,9.97-.01.08-.05.15-.06.23-.4,3.22-.31,3.04,2.61,3.52,5.59.92,11.17,1.88,16.77,2.72,8.76,1.31,17.44,3.03,26.16,4.55,4.47.78,8.92,1.69,13.39,2.48,1.84.33,3.48-.15,5.16-.54,5.83-1.34,11.63-2.79,17.46-4.12,5.13-1.17,10.25-2.38,15.43-3.32,4-.72,8.01-1.38,12.01-2.13.62-.12,1.27-.1,1.91-.14.22-.01.52-.03.57.23.05.26-.22.39-.45.46-3.04.98-6.17,1.66-9.28,2.38-7.3,1.69-14.62,3.33-21.91,5.06-5.12,1.21-10.21,2.53-15.32,3.81-.39.1-.77.24-1.16.31-2.2.45-3.48,1.78-3.95,3.97-1.11,5.14-2.26,10.28-3.39,15.42-.36,1.64-.66,3.29-1.09,4.91-.12.45-.08,1.39-.76,1.24-.48-.11-.26-1-.2-1.52.15-1.34.39-2.68.61-4.02.55-3.22,1.08-6.45,1.67-9.67.4-2.19.93-4.37,1.33-6.56.57-3.11.52-3.17-2.53-3.81-5.93-1.24-11.85-2.54-17.8-3.68-8.46-1.62-16.91-3.3-25.42-4.58-4.8-.73-9.59-1.74-15.54-1.92Z"/>
        <path d="M68.56,87.78c5.33,1.31,10.67,2.6,15.99,3.95,7.02,1.77,14.03,3.6,21.14,5.03,4.29.86,8.57,1.8,12.86,2.66.81.16,1.54.42,2.14.97.16.15.24.39.35.59-.2.11-.38.23-.59.32-.77.34-1.51.2-2.31,0-8.04-2.01-16.08-4.02-24.14-5.93-7.92-1.87-15.6-4.57-23.44-6.71-.68-.19-1.31-.56-1.96-.84l-.03-.03Z"/>
        <path d="M156.77,59.54c2.28-2.38,5.04-4.16,7.68-6.07,6.27-4.54,12.6-8.98,18.72-13.73.06-.05.13-.09.19-.14.95-.66,1.84-.8,2.14-.33.3.47-.16,1.34-1.05,1.91-4.16,2.68-8.36,5.29-12.47,8.03-4.05,2.7-8,5.54-12,8.31-1.04.72-2,1.6-3.23,2.02h.01Z"/>
        <path d="M74.08,51.68c-11.15-1.62-21.66-3.9-32.06-6.72-1-.27-1.97-.66-2.94-1.03-.28-.11-.68-.31-.59-.64.15-.51.64-.35,1-.25,1.54.43,3.07.87,4.59,1.32,5.66,1.67,11.43,2.88,17.18,4.22,3.88.9,7.75,1.87,11.68,2.5.23.04.47.09.69.18.3.11.58.25.87.37-.31.03-.62.06-.43.04Z"/>
        <path d="M136.31,17.72c-3.38-.52-6.75-1.11-10.14-1.62-5.2-.79-10.4-1.54-15.6-2.3-3.31-.48-6.62-.94-9.93-1.42-.31-.04-.83-.11-.77-.39.1-.5.65-.27.97-.23,3.31.45,6.62.93,9.93,1.4,5.91.83,11.82,1.72,17.7,2.77,2.59.46,5.2.76,7.79,1.22.48.09,1.1-.03,1.48.47-.47.21-.96.16-1.42.09Z"/>
        <path d="M103.03,89.83c2.9.5,5.81.99,8.71,1.49.66.11,1.42.38,1.29,1.12-.14.79-1.04.61-1.63.57-.7-.05-1.4-.27-2.09-.46-2.23-.62-4.45-1.27-6.67-1.9-.31-.09-.73-.18-.66-.54.07-.35.51-.21.8-.23.08,0,.16.02.24.03,0-.03,0-.05.01-.08Z"/>
        <path d="M182.55,47.79c.41.13.48.4.33.73-.21.45-.61.71-1.02.96-3.66,2.24-7.24,4.6-10.75,7.05-.19.14-.5.53-.76.09-.04-.07.22-.39.39-.52,3.45-2.55,6.9-5.1,10.36-7.64.44-.32.88-.7,1.46-.69Z"/>
        <path d="M68.59,87.81c-.17-.29-.33-.14-.48.02,0,0,.1.15.11.14.12-.05.23-.13.34-.19l.03.03Z"/>
        <polygon points="156.76 59.55 156.65 59.6 156.77 59.54 156.76 59.55"/>
      </g>
    </g>
  </g>
</svg>