<?xml version="1.0" encoding="UTF-8"?>
<svg xmlns="http://www.w3.org/2000/svg" baseProfile="tiny" version="1.2" viewBox="0 0 213.36 186.77">
  <!-- Generator: Adobe Illustrator 28.6.0, SVG Export Plug-In . SVG Version: 1.2.0 Build 709)  -->
  <g>
    <g id="Layer_1">
      <g>
        <g>
          <path d="M163.29,183.96c-5.05.01-10.06-.61-14.93-1.8-5.3-1.29-10.56-2.88-15.22-5.86-1.92-1.22-2.79-3.24-3.17-5.4-.95-5.38-2.02-10.75-2.63-16.18-.35-3.18-1.14-6.31-1.4-9.49-.27-3.28-.59-6.55-1.14-9.78-.72-4.2-.74-8.47-1.65-12.66-.42-1.94-.5-4.02-.63-6.05-.18-2.83-.49-5.65-.96-8.46-.45-2.68-.94-5.38-1.11-8.09-.19-3.08-.86-6.1-.97-9.16-.09-2.54-.63-5-.88-7.5-.29-3-.66-6.02-1.26-9-.52-2.59-.48-5.29-.86-7.92-.62-4.33-.93-8.68-1.39-13.03-.31-2.88-.65-5.76-.95-8.65-.09-.82-.29-1.27-1.26-1.54-1.32-.37-2.68-.66-3.95-1.23-.95-.43-1.32-1.06-1.29-2.04.14-3.73,1.59-6.78,4.69-8.95,3.15-2.2,6.65-3.72,10.23-5.03,3.52-1.3,7.14-2.29,10.84-2.99,3.54-.67,7.09-1.21,10.66-1.63,2.41-.29,4.83-.35,7.22-.67.47-.06.7-.09.59-.7-.61-3.44-1.12-6.89-1.75-10.33-.76-4.1,2.61-7.57,6.8-6.93,1.38.21,2.39,1.45,2.6,3.29.44,3.82,1.28,7.57,2.02,11.34.19.97.44,1.92.58,2.89.08.58.37.68.87.69,5.01.09,10.01.49,14.98,1.03,3.22.34,6.39,1.1,9.59,1.61,4.32.69,8.48,1.95,12.59,3.37,2.8.97,5.32,2.44,7.37,4.66,1.61,1.75,2.24,3.9,2.57,6.15.17,1.17-.73,2.2-2.1,2.7q-2.19.8-2.2,3.14c-.02,2.7-.49,5.36-.67,8.04-.16,2.37-.29,4.74-.47,7.11-.17,2.16-.22,4.31-.64,6.47-.37,1.85-.17,3.82-.32,5.73-.24,2.91-.69,5.79-.99,8.69-.23,2.18-.35,4.38-.61,6.56-.33,2.79-.55,5.85-.75,8.66-.06,1.27-.25,3.17-.37,4.49-.29,2.66-.35,4.21-.57,6.62-.27,2.91-.85,5.77-1,8.7-.15,2.77-.33,5.54-.58,8.3-.31,3.48-.88,6.93-.97,10.44-.08,3.09-.82,6.17-1.08,9.26-.18,2.13-.29,4.25-.5,6.38-.22,2.2-.57,4.38-.83,6.58-.24,2.07-.33,4.15-.64,6.21-.44,2.96-1.05,5.9-1.37,8.88-.15,1.36-.51,2.61-.89,3.89-.81,2.73-2.96,4.07-5.32,5.09-4.12,1.78-8.53,2.64-12.93,3.31-1.98.3-4,.5-6.03.61-1.67.09-3.33.18-5,.2ZM180.53,53.45c2.96-.07,5.59.12,8.17.52,2.43.37,4.94.78,6.65,2.93.23.29.58.64,1.09.62,1.1-.04,2.08.45,3.09.79,2.3.77,1.86,2.84.75,4.03-.72.78-1.68,1.2-2.59,1.66-.42.21-.73.39-.76.93-.24,4.15-1.03,8.22-1.91,12.28-.44,2.03-1.54,3.4-3.57,4.06-1.39.45-2.83.25-4.23.53-.6.12-.97.04-.63.87.85,2.07,1.36,4.2.54,6.43-.19.51-.07.7.57.78,2.93.39,5.68,1.37,8.28,2.8.15.08.42.08.33.35-.01.04-.29.02-.44-.01-1.98-.51-3.96-1.01-5.92-1.56-2.6-.73-4.6.2-5.67,2.75-.98,2.33-1.99,4.65-2.36,7.18-.6,4.08-.81,4.63,3.19,6.49,2.74,1.28,5.66,1.95,8.58,2.67.47.12,1.5-.09,1.38.5-.11.57-1.1.18-1.7.24-.08,0-.15-.03-.23-.05-3.52-.59-6.96-1.52-10.29-2.81-.46-.18-.82-.25-.74.39.28,2.1-.77,3.59-2.21,4.9-.44.4-.54.85-.45,1.4.37,2.05.73,4.11,1.11,6.16.58,3.1,1.21,6.2,1.75,9.31.69,3.92,1.3,7.86,1.97,11.79.53,3.15,1.11,6.29,1.64,9.44.72,4.28,1.4,8.56,2.11,12.84.37,2.26.99,4.48,1.03,6.79.01.71-.22,1.33-.7,1.7-2.29,1.79-4.74,3.07-7.8,2.06-.79-.26-1.23-.68-1.5-1.5-1.41-4.14-1.79-8.49-2.66-12.74-.97-4.8-1.7-9.64-2.57-14.45-.87-4.81-1.6-9.64-2.44-14.45-.61-3.49-1.28-6.98-1.94-10.46-.27-1.45-.28-1.45-1.82-1.02-.64.18-1.29.4-1.95.47-2.28.24-4.46.08-6.14-1.79-2-2.23-3.41-4.78-4.16-7.67-.25-.95-.41-1.18-1.56-.86-4.61,1.28-9.33,2.04-14.16,1.84-.41-.02-.68.13-.97.33-3.1,2.14-6.51,3.56-10.21,4.3-.2.04-.45.15-.54-.02-.13-.24.18-.32.33-.4.56-.29,1.14-.55,1.73-.79,1.95-.79,3.89-1.59,5.68-2.69.64-.39,1.41-.83,1.59-1.54.12-.47-.73-.72-1.08-1.15-2.06-2.5-2.95-5.49-3.64-8.56-.63-2.82.09-4.59,2.4-6.18q2.42-1.66.83-4.16c-.11-.17-.21-.34-.33-.5-.97-1.42-2.47-1.95-4.17-1.57-2.04.46-4.06.96-5.94,1.9-.28.14-.69.22-.75.05-.1-.27.3-.38.52-.52,2-1.29,4.3-1.8,6.55-2.39,1.53-.4,2.86.06,4.14.92,1.14.77,1.84,1.86,2.4,3.04.4.84.87,1.05,1.74.61,1.27-.65,2.59-1.18,3.89-1.77.41-.19.75-.32.42-.95-1.41-2.64-2.46-5.41-2.83-8.41-.05-.44-.21-.8-.85-.38-1.6,1.07-3.4,1.54-5.32,1.28-1.21-.16-2.42-.41-3.61-.71-2.6-.65-5.08-1.59-7.04-3.53-.92-.92-1.71-2.07-1.53-3.37.34-2.37.79-4.75,1.67-7,.2-.52.43-1.03.59-1.56.12-.41.11-.71-.48-.85-1.03-.25-2.04-.63-3.03-1.03-.63-.25-1.25-.65-1.29-1.43-.04-.76.49-1.21,1.11-1.56,1.65-.94,3.48-1.31,5.32-1.57,1.08-.15,1.74-.57,2.31-1.54,1.19-2.05,2.74-3.81,5.14-4.53,1.62-.49,3.25-.14,4.81.23,2.4.58,4.67,1.55,6.62,3.12,1.13.92,2.33.45,3.53.31,1-.12.53-1,.8-1.51.07-.14.14-.29.21-.43,1.09-2.38,3.3-3.35,5.51-4.24.65-.26.82-.56.72-1.14-.08-.42-.17-.87-.22-1.28-.17-1.45-.84-1.47-1.91-1.48-1.68-.02-3.21.09-4.86-.01-3.72-.22-7.46-.25-11.19-.56-2.49-.21-4.98-.36-7.46-.73-2.78-.41-5.57-.77-8.34-1.21-1.83-.29-3.65-.63-5.46-1.05-.69-.16-.85.09-.71.62.41,1.46.38,2.98.61,4.47.25,1.6.52,3.22.67,4.82.22,2.38.56,4.75.75,7.14.17,2.13.8,4.18,1.07,6.29.2,1.53.19,3.07.45,4.6.55,3.27,1.12,6.55,1.39,9.85.24,2.92.8,5.78,1.13,8.68.35,3.08.75,6.16,1.02,9.24.29,3.28.83,6.51,1.2,9.76.27,2.39.62,4.78.9,7.17.22,1.84.46,3.69.56,5.54.11,2.1.69,4.13.81,6.24.08,1.44.23,2.93.56,4.33.4,1.7.56,3.43.73,5.14.27,2.72.69,5.43.91,8.16.2,2.49.75,4.95,1.09,7.43.35,2.55.73,5.1,1.13,7.65.43,2.74,1,5.46,1.3,8.22.18,1.69,1.03,3.16,2.37,4.12,1.27.91,2.77,1.54,4.21,2.18,3.55,1.58,7.26,2.68,11.06,3.46,2.13.44,4.25.99,6.4,1.2,2.47.25,4.97.15,7.46.25,2.8.12,5.54-.33,8.29-.7,4.91-.66,9.75-1.56,14.22-3.88,1.85-.96,3.31-2.07,3.44-4.39.1-1.73.47-3.45.7-5.18.55-4.15,1.28-8.29,1.62-12.47.25-3.06.89-6.06,1.03-9.14.11-2.24.43-4.47.68-6.7.16-1.49.53-2.98.51-4.46-.03-1.92.4-3.77.59-5.65.28-2.63.61-5.26.68-7.9.06-2.2.47-4.35.6-6.53.11-1.72.4-3.46.61-5.19.43-3.43.52-6.9.84-10.34.2-2.15.47-4.31.59-6.44.16-2.93.77-5.8.85-8.73.04-1.42,0-2.9.31-4.24,1.01-4.34.95-8.79,1.5-13.17.56-4.45,1.02-8.92,1.35-13.41.23-3.16.39-6.35.85-9.5.08-.54.1-.87-.73-.69-3.89.87-7.8,1.66-11.73,2.35-3.2.56-6.42.93-9.64,1.35-1.39.18-2.81.04-4.16.31-2.6.52-5.15.53-7.85.84-.95.06-1.7.12-2.06.65-.31.45.07,1.22.13,1.97.04.45.21.65.66.64.48-.01.96-.03,1.44.01,2.74.24,5.55.34,7.18,3.12.19.32.43.32.7.22,1.13-.38,2.29-.18,3.11-.22ZM164.37,45.13c1.74-.12,3.35-.27,4.83-.33,2.1-.09,4.2-.26,6.29-.49,3.06-.34,6.11-.92,9.18-1.12,2.7-.17,5.33-.74,7.99-1.08,2.73-.35,5.42-1.08,8.12-1.68,2.08-.46,4.16-.92,6.17-1.65.7-.25,1.61-.57,1.33-1.54-.38-1.28-.72-2.58-1.56-3.71-2.3-3.06-5.71-4.28-9.12-5.29-4.5-1.33-9.11-2.28-13.75-3.03-4.19-.67-8.39-1.09-12.62-1.4-2.42-.17-4.85-.18-7.25-.61-.44-.08-1.12-.38-1.26.41-.17,1.01.4,2,1.11,2.01,4.06.06,8.09.36,12.13.72,3.47.31,6.9.97,10.36,1.35,2.25.24,4.41.9,6.63,1.33,3.09.6,6.26.99,8.99,2.83,1.19.8,1.34,2.13.23,3.06-.84.7-1.82,1.1-2.86,1.41-4.8,1.41-9.71,2.14-14.68,2.66-5.13.54-10.25,1.2-15.41,1.15-2.12-.02-4.22.23-6.36.15-2.22-.09-4.49.19-6.74.19-3.18,0-6.35-.34-9.53-.39-1.69-.03-3.41-.07-5.11-.2-3.59-.27-7.18-.64-10.77-.92-3.51-.28-7.01-.69-10.38-1.75-1.1-.34-2.36-.78-2.49-2.27-.11-1.33.86-1.99,1.84-2.56,1.89-1.1,3.88-2.05,5.99-2.6,4.17-1.1,8.38-1.97,12.67-2.54,4.17-.55,8.31-1.21,12.52-1.37,1.92-.07,1.88-.1,1.62-2-.11-.83-.45-1.09-1.25-.99-2.75.34-5.5.64-8.25.97-5.08.59-10.11,1.47-15.06,2.8-4.49,1.21-8.83,2.71-12.87,5.07-2.58,1.51-4.46,3.51-5.34,6.39-.47,1.54-.07,2.29,1.52,2.64,3.58.79,7.14,1.62,10.77,2.2,2.5.4,4.99.83,7.5,1.12,2.79.33,5.58.66,8.39.85,3.99.27,7.98.57,11.98.63,4.97.07,9.72-.03,14.49-.4ZM183.68,37.03c.77-.1,1.5-.11,2.08-.22,1.83-.38,3.7-.42,5.54-.6,2.87-.28,5.74-.59,8.46-1.64.6-.23,1.54-.57,1.54-1.17,0-.56-.77-.89-1.38-1.28-.03-.02-.22-.12-.26-.14-2.23-1.11-4.7-1.3-7.07-1.88-3.53-.87-7.14-1.35-10.72-1.94-2.81-.47-5.64-.82-8.49-1.02-2.61-.18-5.19-.68-7.81-.62-.77.02-1.57-.25-1.96.43-.32.57-.12,1.13.05,1.95.14.71.24,1.45,1.33,1.4.56-.03,1.16.25,1.71.46.63.24,1.24.53,1.27,1.39.03.79-.42,1.19-1.01,1.61-1.65,1.16-3.59.9-5.41,1.07-2.35.23-4.73,0-7.06-.45-.77-.15-1.56-.28-2.22-.78-1.03-.78-1.04-1.76.17-2.14,1.29-.41,1.09-1.25.94-2.1-.09-.51-.13-1.01-.2-1.53-.07-.59-.27-1.1-1.37-1.07-1.5.04-2.97.08-4.43.25-5.04.68-9.88,1.26-14.74,2.36-4.19.95-8.4,1.85-12.16,4.08-.33.19-.72.43-.7.91.02.52.31.68.77.86.25.1.52.18.79.25,2.99.82,6.02,1.22,9.11,1.51,3.39.32,6.78.68,10.18.87,4.22.23,8.44-.01,12.67.22,3.4.18,6.83.17,10.23-.06,2.54-.17,5.09-.16,7.62-.22,1.96-.05,3.95-.14,5.88-.27,2.31-.16,4.32-.19,6.65-.48ZM150.28,92.07c.35.07.94-.14,1.48-.35,4.92-1.93,9.39-4.62,13.31-8.15,1.52-1.37,2.4-3.15,2.21-5.31-.29-3.28-1.89-6-3.67-8.66-.36-.55-.75-.71-1.37-.7-1.63.04-3.24.29-4.88.28-2.32-.03-4.64.14-6.96.21-.28,0-.55.03-.77.25-1.33,1.32-2.82,2.47-3.8,4.15-1.06,1.81-1.77,3.81-3.05,5.51-.14.18-.25.38-.21.65.54,3.45,1.35,6.81,3.26,9.81.98,1.54,2.4,2.22,4.44,2.32ZM157.54,99.1c-.11-2.39-.69-4.51-1.02-6.66-.09-.57-.4-.76-.99-.44-.9.49-1.81.98-2.76,1.36-1.84.72-3.71,1.56-5.65.25-.52-.35-1.07-.71-1.47-1.19-.41-.49-.85-.4-1.27-.22-3.02,1.3-5.97,2.74-8.68,4.61-1.19.82-1.93,2.05-1.78,3.56.25,2.71,1.32,5.17,2.43,7.62.95,2.09,2.27,2.86,4.76,2.67,1.43-.1,2.87-.06,4.29-.22,2.83-.31,5.61-.91,8.33-1.8.57-.19.98-.44.91-1.18-.26-2.59.84-4.72,2.33-6.7.43-.58.71-1.14.57-1.67ZM187.52,79.57c.44,0,.89.06,1.31-.01,1-.16,2.03-.08,2.96-.67,1.21-.76,1.62-1.97,1.85-3.21.58-3.12,1.04-6.27,1.51-9.41.2-1.3,0-1.47-1.24-1.17-5.9,1.4-11.93,1.91-17.93,2.59-.79.09-1.13.33-1.12,1.16.03,1.95.57,3.84.65,5.77.11,2.41,1.68,3.3,3.66,3.92,2.72.85,5.54.85,8.34,1.03ZM125,75.15c-.16,1.05.24,1.92.98,2.57,2.95,2.63,6.53,3.59,10.37,3.64,2.73.03,4.36-1.79,5.63-3.96,1.36-2.34,2.48-4.78,3.19-7.42.23-.86-.07-.84-.68-.84-1.35,0-2.7-.15-4.04-.29-4.17-.41-8.3-1.13-12.39-2.04-.43-.1-.74-.08-.93.44-.91,2.58-1.84,5.15-2.13,7.89ZM182.08,54.52c-.8,0-1.61-.1-2.39.02-1.31.2-2.87.29-3.3,1.85-.7,2.55-1.04,5.19-1.24,7.82-.18,2.43.09,2.52,2.52,2.06,2.02-.38,4.06-.64,6.11-.83,3.63-.33,7.2-1.01,10.77-1.76.56-.12.86-.44.94-1.03.37-2.77-.97-5.27-3.56-6.39-3.14-1.35-6.48-1.65-9.85-1.74ZM163.81,119.34c1.41.18,2.62-.48,3.9-.89.77-.25.9-.67.78-1.33-.79-4.42-1.62-8.83-2.34-13.26-.26-1.59-.72-2.95-2.13-3.85-.6-.38-1.21-.75-1.65-1.34-.37-.5-.72-.11-1.02.09-1.02.69-1.89,1.57-2.8,2.41-2.35,2.18-2.8,4.98-2.24,7.87.58,3.02,1.71,5.91,3.68,8.37.98,1.22,2.09,2.18,3.81,1.93ZM136.6,55.93c-1.83-.2-3.27.43-4.41,1.86-1.71,2.15-2.96,4.55-4.01,7.06-.21.51.05.74.64.83,2.1.32,4.2.72,6.29,1.11,3.19.6,6.42.77,9.65,1.04.94.08,1.3-.35,1.45-1.15.16-.9.4-1.79.47-2.69.12-1.6.51-3.31-.96-4.55-2.63-2.22-5.72-3.3-9.12-3.51ZM185.8,86.47c.04-1.22-.34-2.37-.6-3.53-.12-.51-.27-1.3-1.03-1.31-1.41-.02-2.71-.53-4.07-.76-4.29-.74-5.5-1.95-6.37-6.24-.04-.19-.12-.38-.16-.58-.15-.82-.8-.68-1.31-.61-.73.09-.42.56-.29.99.13.45.2.92.29,1.39.62,3.41,1.22,6.83,1.85,10.24.65,3.57,1.34,7.13,1.97,10.7.1.54.22,1.06.4,1.57.51-.3,1.01-.6,1.52-.91.03-.02.06-.05.09-.08,1.9-2.24,4.09-4.2,6-6.44,1.16-1.35,1.57-2.8,1.72-4.43ZM176.15,108.86c-.38-1.95-.77-3.9-1.14-5.85-.62-3.31-1.24-6.63-1.85-9.94-.09-.5-.17-.86-.85-.88-1.92-.05-3.58-.91-5.22-1.81-.23-.13-.45-.45-.72-.21-.21.19-.1.52-.05.8.87,4.83,1.73,9.66,2.59,14.5.06.36.17.68.49.92,1.88,1.37,4.02,2.18,6.2,2.91.4.13.61.04.54-.43ZM183.38,149.63c-.24-1.29-.49-2.57-.71-3.86-.44-2.58-.85-5.17-1.31-7.75-.07-.39-.05-.93-.65-1.01-2.18-.28-4.06-1.3-5.89-2.42-.16-.1-.35-.28-.52-.09-.08.09-.06.3-.03.44.24,1.28.52,2.55.75,3.83.53,2.91,1.08,5.82,1.52,8.74.1.68.34,1.06.9,1.4,1.47.89,3.04,1.48,4.74,1.79.9.17,1.46.06,1.21-1.06ZM185.04,164.92c.27-.21,1.02.37.83-.65-.71-3.82-1.36-7.65-1.99-11.48-.1-.63-.38-.93-1-.95-1.75-.05-3.32-.68-4.85-1.44-.29-.14-.58-.57-.93-.28-.26.21,0,.6-.04.92-.02.15.03.32.06.47.46,2.72.88,5.44,1.4,8.14.21,1.1.15,2.42,1.05,3.2,1.53,1.32,3.46,1.83,5.48,2.07ZM180.76,134.6c-.08-.51-.16-1.01-.25-1.52-.53-2.96-1.06-5.93-1.6-8.89-.08-.42-.07-.84-.72-.89-1.96-.14-3.78-.79-5.51-1.71-.24-.13-.61-.35-.74-.27-.31.22-.04.57.02.87.51,3,.99,6.01,1.54,9.01.12.63.13,1.36.81,1.78,1.69,1.04,3.55,1.7,5.4,2.38.56.21,1.17.16,1.05-.75ZM178.46,121.68c-.66-3.62-1.25-6.94-1.87-10.25-.06-.33-.15-.71-.63-.75-2.17-.19-4.02-1.14-5.78-2.35-.19-.13-.5-.3-.63-.23-.24.14-.02.42.01.65.4,3.15,1.21,6.24,1.58,9.4.08.66.12,1.45.82,1.91,1.67,1.11,3.51,1.81,5.47,2.16.56.1,1.42.31,1.02-.54ZM161.33,27.39s0-.08,0-.12c-.8-3.88-1.6-7.76-2.39-11.64-.04-.22-.14-.43-.37-.37-1.89.47-3.33-.67-4.9-1.33-.34-.14-.67-.67-.99-.38-.2.18-.14.77-.05,1.15.71,3.03,1.19,6.1,1.72,9.17.11.64-.06,1.5.73,1.92,1.81.97,3.65,1.85,5.74,2.1.54.07.51-.16.52-.49ZM151.16,59.61c.22,1.63.54,3.64,1.62,5.45.28.47.47.58,1.02.39,1.3-.44,2.6-.96,4-1.05.71-.04.98-.39.85-1.1-.56-3.19-1.11-6.39-1.63-9.59-.1-.62-.44-.77-.9-.59-2.58,1-5.03,2.72-4.96,6.48ZM169.27,51.86c-.5.18-1.47-.39-1.29.81.16,1.05.43,2.08.61,3.13.59,3.29,1.19,6.59,1.72,9.89.14.88.45,1.24,1.37,1.19.83-.04,1.45,0,1.47-1.16,0-.82.12-1.66.2-2.49.25-2.41.44-4.84,1.2-7.15.51-1.55.2-2.53-1.28-3.24-1.26-.61-2.63-.83-4.01-.98ZM163.89,47.46c-1.87.2-3.21.44-4.57.36-.47-.02-.8.24-.7.74.45,2.32.44,4.72,1.15,7,.12.38.31.58.61.8,1.71,1.27,3.66,1.98,5.67,2.59.71.21.78.12.65-.61-.56-3.12-1.05-6.26-1.55-9.39-.17-1.04-.56-1.73-1.26-1.5ZM168.92,79.36c-.28,2.22-1.16,4.14-2.83,5.69-.91.85-.79,3.02.21,3.73,1.69,1.2,3.53,2.07,5.57,2.49.66.14,1,.08.84-.84-.76-4.29-1.58-8.57-2.39-12.86-.2-1.03-.57-1.22-1.42-1.37-.71-.12-.55.12-.52.6.07.88.65,1.64.55,2.56ZM164.48,67.54c.81-.4,1.95-.09,3.05-.24.57-.08.81-.34.68-.98-.36-1.75-.65-3.51-.96-5.27-.09-.49-.29-.71-.84-.8-1.89-.32-3.69-.88-5.27-2.04-.2-.15-.44-.47-.73-.28-.26.16-.14.51-.15.78-.02.36.08.7.17,1.05.23.87.49,1.77.52,2.66.07,2.05.95,3.61,2.5,4.87.23.18.45.32,1.02.26ZM183.29,173.77c.86,0,1.61-.39,2.35-.75,1.31-.63,1.64-1.28,1.33-2.68-.26-1.16-.59-2.31-.71-3.5-.05-.54-.28-.83-.9-.87-1.8-.12-3.51-.57-5.07-1.51-.22-.13-.46-.45-.72-.21-.21.19-.1.51-.05.79.39,1.97.78,3.94,1.15,5.91.37,1.97,1.15,2.82,2.62,2.83ZM152.7,7.57c-1.22-.43-1.15.28-.99,1.13.16.85.29,1.71.4,2.57.04.33.03.68.35.84,1.74.91,3.41,2,5.43,2.27.74.1.93-.2.82-.84-.38-2.25-.79-4.5-1.14-6.76-.12-.75-.44-.5-.87-.34-1.29.49-2.54,1.1-4,1.12ZM158.99,33.31c.87,0,1.74-.01,2.61,0,.5.01.76-.16.68-.69-.16-1.02-.33-2.03-.5-3.05-.05-.26-.22-.41-.49-.44-2.09-.22-3.97-1-5.77-2.06-.43-.25-.79-.17-.63.5.22.92.38,1.86.59,2.78.81,3.58.03,2.86,3.52,2.95ZM162.6,87.77c-.16.1-.37.22-.56.36-.7.52-1.35,1.11-2.1,1.54-.76.43-.73.89-.41,1.56,1.14,2.45,3.02,4.34,4.73,6.35.14.17.33.43.57.25.1-.07.08-.37.05-.56-.55-3.01-1.08-6.02-1.86-8.98-.06-.21.14-.62-.42-.52ZM148.49,59.13c-.19.1-1.21-.24-.72.82,1.04,2.25.56,4.46.04,6.7-.09.38-.6.9-.06,1.13.38.16.94.38,1.46.01.68-.48,1.39-.92,2.12-1.32.51-.27.41-.55.2-.96-.9-1.78-1.54-3.65-1.78-5.64-.08-.7-.41-.88-1.28-.74ZM180.61,109.29c0-.12,0-.24-.02-.36-.49-2.83-1.43-5.52-2.49-8.18-.09-.23-.23-.5-.5-.31-.27.19-.69.34-.66.78.04.43.14.85.22,1.28.44,2.48.89,4.95,1.33,7.43.12.65.14,1.78.6,1.77.76-.02,1.11-.99,1.43-1.71.09-.21.07-.47.09-.71ZM167.62,68.39c-.54.09-1.08.2-1.63.27-1.31.18-1.42.37-.67,1.38.31.42.57.85.78,1.32.41.9.85,1.78,1.25,2.68.4.92,1.36,1.17,2.05,1.07.62-.09.24-.96.13-1.52-.28-1.44-.55-2.88-.76-4.33-.11-.73-.48-.95-1.15-.89ZM157.36,67.83c1.28.15,2.53-.18,3.79-.23.16,0,.93.11.38-.44-1.03-1.05-2.38-1.76-3.83-1.54-1.69.26-3.32.92-4.85,1.74-.22.12-.62.18-.51.54.08.26.41.11.63.14,1.47.18,2.91-.44,4.38-.2ZM159.09,98.59c.63-.42,1.24-.8,1.82-1.21.21-.15.13-.35-.03-.5-1.56-1.5-2.33-3.45-3.08-5.42-.07-.19-.04-.53-.43-.33-.28.14-.43.24-.32.62.59,2.12,1.13,4.25,1.71,6.37.05.17.01.53.35.47ZM127.37,61.97c.07-.59-.27-.52-.45-.46-1.5.46-3.04.8-4.45,1.49-.49.24-.57.57-.02.79,1.02.41,2.06.76,3.11,1.11.12.04.38-.01.43-.1.5-.98.98-1.97,1.39-2.82ZM197.2,59.03c-.59-.14-.52.24-.44.46.34.9.47,1.82.44,2.77,0,.23.07.6.37.4.81-.52,1.83-.85,2.09-1.96.08-.32.08-.66-.25-.84-.72-.39-1.45-.79-2.21-.83ZM171.99,68.21c-.99-.22-1.28.15-.96,1.1.15.44.26.93.23,1.39-.06.98.39,1.04,1.22,1,1.09-.06.66-.7.64-1.23-.02-.4-.07-.8-.03-1.19.1-.86-.16-1.31-1.11-1.07ZM153.14,6.29c.94-.09,2.18-.3,3.28-1.01.23-.15.56-.22.42-.58-.12-.32-.38-.58-.73-.49-1.25.31-2.59.42-3.57,1.4-.15.15-.44.28-.24.57.12.18.32.23.85.11ZM180.15,101.8c.04-.11.09-.21.12-.31.16-.61.38-1.22.44-1.84.08-.85.67-1.58.55-2.46-.59.58-1.16,1.18-1.77,1.75-.25.24-.67.38-.47.82.3.67.66,1.33,1,1.98.01.03.07.04.13.06Z"/>
          <path d="M159.36,165.61c4.52-.11,8.99.25,13.42,1.21.85.18,1.67.48,2.44.9.27.15.65.29.54.68-.1.33-.48.2-.74.22-.96.07-1.91-.1-2.83-.35-2.34-.63-4.75-.79-7.13-1.1-3.41-.44-6.82-.4-10.24-.23-1.03.05-2.05.18-3.08.22-.33.01-.88.19-.94-.24-.07-.5.54-.48.88-.56,1.98-.46,4-.5,6.01-.64.55-.04,1.11-.07,1.66-.11Z"/>
          <path d="M144.66,166.6v1.43c-.28-.42-.49-.87-.62-1.36-.51-1.84-.62-3.74-.89-5.61-.51-3.52-.95-7.04-1.38-10.57-.08-.63-.43-1.52.22-1.81.3-.14.52.94.61,1.5.33,2.02.61,4.05.89,6.07.41,3.01.81,6.02,1.19,9.04.06.43,0,.88,0,1.31,0,0-.01,0-.02,0Z"/>
          <path d="M138.07,161.61c.06.71.11,1.3.08,1.64-.45-.21-.39-.71-.44-1.04-.47-2.97-.87-5.95-1.3-8.92-.36-2.46-.73-4.93-1.08-7.39-.22-1.53-.41-3.06-.59-4.59-.03-.22-.15-.91-.12-1.14.28.21.42.9.48,1.14,1.06,4.62,1.54,9.32,2.17,14,.31,2.3.5,4.31.8,6.3Z"/>
          <path d="M187.65,105.71c0,.25-.16.31-.38.34-.67.1-3.32-1.52-3.56-2.19-.06-.15-.11-.32.05-.43.07-.05.22-.02.3.03,1.16.67,2.32,1.35,3.47,2.04.06.04.08.13.12.2Z"/>
          <path d="M143,31.27s.08,0,.12,0c.44-.09.82,0,1.14.34-.3.28-.67.12-1.01.14-4.2.33-8.42.52-12.53,1.58-.18.05-.41.2-.46-.08-.03-.17.23-.14.37-.2,1.58-.65,3.28-.84,4.94-1.13,2.46-.42,4.94-.63,7.44-.65Z"/>
          <path d="M149.45,88.08c-.49-.02-.89.06-1.23-.23-.31-.25-.74-.55-.62-.91.07-.22.52.19.8.22.78.1,1.57.18,2.34-.13.23-.09.65-.16.76.11.14.36-.23.56-.52.65-.52.16-1.05.39-1.53.28Z"/>
          <path d="M144.05,108.23c-.57-.13-1.14-.25-1.7-.41-.15-.04-.45-.04-.39-.32.01-.06.29-.13.41-.09,1.01.33,2.02.22,3.04.14.15-.01.3.04.45.07-.11.1-.2.26-.33.29-.49.13-.99.22-1.48.33Z"/>
          <path d="M186.98,76.61c-.22-.05-.55-.08-.56-.14-.02-.29.25-.22.43-.26,1.28-.25,2.28-1.03,3.32-1.73.12-.08.22-.26.4-.11.01,0-.06.14-.11.2-.94,1.08-2.11,1.74-3.48,2.04Z"/>
          <path d="M138.21,75.06c-.03.07-.04.16-.09.22-1,1.17-2.02,2.33-3.53,2.87-.1.04-.27.06-.32.01-.15-.17.03-.29.15-.35,1.35-.65,2.2-1.89,3.38-2.74.12-.09.26-.15.39-.22,0,.07.01.15.02.22Z"/>
          <path d="M182.34,85.95c.04.37-.03,1.07-.29,1.74-.07.17-.2.4-.42.33-.21-.08-.16-.34-.11-.52.32-1.24.33-2.48.01-3.72-.03-.13,0-.39.08-.42.26-.1.3.19.4.32.44.58.29,1.28.34,2.28Z"/>
        </g>
        <g>
          <path d="M53.41,182.01c-3.1.1-6.09.04-9.07-.22-6.28-.55-12.44-1.66-18.39-3.79-1.76-.63-3.43-1.4-5.12-2.16-1.18-.53-1.62-1.37-1.87-2.5-.6-2.74-1.06-5.52-1.59-8.27-.63-3.3-1.24-6.61-1.63-9.95-.54-4.63-1.43-9.22-2.01-13.84-.33-2.63-.6-5.26-.81-7.91-.26-3.27-.84-6.51-1.25-9.77-.39-3.11-.63-6.24-1.14-9.33-.54-3.3-.73-6.62-1.14-9.93-.17-1.38-.22-2.78-.26-4.17-.04-1.32-.19-2.61-.4-3.91-.13-.79-.54-1.22-1.28-1.54-1.48-.63-2.7-1.52-3.56-3.01-1.1-1.9-.79-4.72.7-5.78,1.16-.82,1.22-1.94,1.34-3.09.67-6.21,2.94-11.81,6.33-17.03,3.61-5.55,8.66-9.33,14.65-11.77,4.4-1.79,9.03-2.93,13.83-3.26,2.5-.17,4.98-.51,7.49-.45.58.01.8-.22.97-.79,1.71-5.74,3.44-11.48,5.22-17.2,1.17-3.79,2.42-7.55,3.64-11.32.61-1.9,1.89-2.99,3.54-3.05,1.53-.06,3.41,1.12,4.03,2.47.2.43.25.82.08,1.26-1.98,5.09-3.3,10.4-5.22,15.51-.57,1.51-.9,3.11-1.39,4.66-.84,2.67-1.69,5.34-2.6,7.99-.3.86-.09,1.12.79,1.2,4.03.37,7.95,1.26,11.78,2.57,3.16,1.09,6.1,2.59,8.91,4.38,3.84,2.44,7,5.6,9.48,9.39,2.07,3.16,3.44,6.63,4.29,10.33.54,2.34.84,4.71,1.15,7.08.06.5.39.65.74.83,3.88,1.92,2.73,4.74.64,6.67-.4.37-.91.7-1.42.86-1.19.35-1.56,1.24-1.59,2.3-.09,3.1-.71,6.14-1.01,9.21-.34,3.5-.9,6.99-1.11,10.49-.14,2.3-.41,4.58-.57,6.87-.23,3.27-.72,6.53-.88,9.8-.13,2.69-.6,5.34-.82,8.02-.33,4.15-.82,8.27-.96,12.44-.11,3.16-.55,6.31-.7,9.49-.16,3.43-.43,6.85-.72,10.27-.18,2.06-1.24,3.65-2.99,4.75-3.87,2.44-8.19,3.44-12.67,4.05-3.06.42-6.11.86-9.18,1.1-2.1.16-4.23.03-6.23.03ZM61.88,178.66c2.4-.32,6.1-.71,9.76-1.36,2.52-.45,5.05-1.09,7.22-2.58,1.1-.75,2.14-1.69,2.38-3.02.8-4.55.95-9.18,1.12-13.78.12-3.27.29-6.54.66-9.76.52-4.46.8-8.93,1.33-13.38.42-3.55.69-7.12,1.07-10.68.51-4.86.9-9.74,1.52-14.59.58-4.53,1.03-9.08,1.61-13.62.17-1.3.01-1.41-1.3-1.02-3.26.98-6.46,1.83-9.82,2.25-3.5.43-7,.89-10.51,1.2-5.35.47-10.85.44-16.21.52-3.69.05-7.24-.17-10.93-.33-.72-.03-1.59-.08-2.3-.13-4.39-.3-8.79-.6-13.18-.95-2-.16-4-.39-5.99-.65-1.84-.24-3.67-.57-5.5-.87-.73-.12-1.01.12-.96.9.05.75.33,1.47.27,2.24-.14,1.92.4,3.78.53,5.69.18,2.64.67,5.26.87,7.9.23,3,.72,5.97,1.07,8.95.38,3.27.91,6.52,1.35,9.77.32,2.32.61,4.64.91,6.95.41,3.14.93,6.27,1.22,9.42.39,4.26,1.2,8.46,1.84,12.68.46,3,1.33,5.93,1.77,8.93.35,2.39,1.51,3.79,3.78,4.46.94.27,1.84.71,2.74,1.11,2.64,1.18,5.41,2.01,8.25,2.43,3.79.57,7.6.97,11.44,1.16,4.23.2,8.45.34,13.98.18ZM78.34,87.33c1.21.06,2.39-.22,3.57-.36.5-.06.99-.27,1.47-.45,2.72-1,3.74-2.83,3.05-5.52-.04-.15-.19-.33-.02-.42.18-.09.24.13.32.26.43.6.58,1.3.64,2.01.13,1.59-.52,2.84-1.75,3.81-.14.11-.23.3-.35.45.11.02.23.08.33.05,1.23-.3,2.46-.61,3.68-.93.51-.13.67-.51.61-1.01-.13-1.06-.22-2.12-.38-3.18-.43-2.9-1.21-5.71-2.14-8.5-1.01-3.03-2.63-5.72-4.48-8.2-1.59-2.14-3.72-3.91-5.93-5.49-4.3-3.06-9.03-5.2-14.12-6.59-.85-.23-1.42-.35-1.86.7-.16.38-.97,1.19-1.32,1.33-1.35.56-1.86.86-3.34.88-4.74.07-9.48.12-14.21-.25-1.25-.1-2.5-.41-3.71-.79-.77-.24-1.59-.62-1.76-1.6-.07-.43-.39-.5-.71-.43-.81.16-1.63.29-2.41.55-3.22,1.05-6.32,2.31-9.27,4.07-4.11,2.46-7.69,5.36-10.11,9.54-.87,1.5-1.87,2.94-2.42,4.59-1.26,3.78-2.39,7.59-2.73,11.59-.19,2.21-.16,2.32,2.01,2.92.38.1.77.17,1.15.24.15.03.35.09.44.02.22-.17,0-.33-.08-.5-1.15-2.72-.22-5.18,2.4-6.62,1.4-.77,2.95-.84,4.45-1.14,1.29-.26,1.38-.42.65-1.58-.96-1.55-1.24-3.22-.6-4.91.87-2.32,2.88-3.26,5.11-3.82,1.88-.47,1.96-.62,1.15-2.35-1.04-2.2-.64-4.89,1.21-6.45,2.16-1.82,4.63-2.89,7.57-2.27.7.15,1.41.21,2.13.26,2.85.19,5.63.74,8.41,1.34,1.5.33,2.98.91,4.54.79,2.73-.2,5.42-.69,8.1-1.24,2.63-.55,5.27-1.29,8-.64,1.41.34,2.91.41,4.14,1.33.89.67,1.35,1.81.95,2.58-.28.55-1.25,1.1-1.02,1.42.14.2.76.21,1.55.31.15.02.66.08.81.1,2.39.42,4.64,1.18,6.3,3.03,1.11,1.24,2,2.63,1.58,4.49-.54,2.35-2.26,3.53-4.24,4.5-.17.08-.49.03-.48.26,0,.22.31.18.49.22,1.08.23,2.17.43,3.25.68,1.85.42,3.7.89,5.37,1.84.13.07.34.23.33.26-.14.28-.3.04-.47,0-2.45-.61-4.89-1.23-7.41-1.57-3.97-.53-7.92-.81-11.93-.45-3.51.31-7.02.61-10.52.97-3.03.31-6.07.66-9.07,1.09-3.73.54-7.46.93-11.22,1.11-.28.01-.76-.16-.78.24-.02.35.47.33.77.39,1.59.31,3.19.63,4.78.92,3.96.72,7.92,1.51,11.9,2.12,2.74.42,5.43,1.06,8.17,1.47,3.82.57,7.65,1.14,11.48,1.64,2.63.34,5.28.57,7.92.85ZM58.07,96.59c3.67-.12,7.29-.24,10.93-.7,3.69-.46,7.42-.64,11.07-1.45,3.46-.77,6.93-1.48,10.24-2.83,1.12-.45,2.01-1.1,2.58-2.16.21-.39.44-.77.1-1.2-.35-.44-.84-.51-1.3-.37-1.26.36-2.57.48-3.82.82-4.57,1.24-9.27,1.63-13.96,1.97-2.61.19-5.23.34-7.85.47-4.33.22-8.67.38-13,.49-2.81.08-5.63-.29-8.45-.34-4.18-.07-8.35-.28-12.51-.62-1.43-.12-2.86-.11-4.28-.26-2.79-.28-5.58-.59-8.37-.91-1.8-.2-3.6-.46-5.41-.64-2.01-.2-3.96-.7-5.95-1.01-.6-.09-1.42-.31-1.77.56-.32.79-.43,1.57.1,2.36,1.04,1.57,2.76,2,4.36,2.41,4.77,1.2,9.68,1.64,14.55,2.11,5.13.49,10.27.9,15.43,1.03,3.58.09,6.76.1,10.34.21,2.19.07,4.79.04,6.97.04ZM71.98,88.88c1.39-.05,2.77-.29,4.17-.22.15,0,.42-.07.42-.12.02-.2-.19-.2-.33-.19-.97.09-1.9-.19-2.85-.28-2.41-.22-4.84-.32-7.2-.79-5.07-1.01-10.21-1.62-15.29-2.55-3.65-.67-7.3-1.28-10.95-1.93-2.45-.44-4.89-.9-7.33-1.39-2.9-.59-5.83-1.02-8.76-1.4-2.34-.3-4.68-.82-7.04-.08-1.59.5-2.93,1.31-3.42,2.97-.35,1.19.13,2.31,1,3.14.81.78,1.86,1.24,2.96,1.42,2.66.43,5.36.58,8.04.94,2.99.4,6.02.43,9.01.79,3.92.47,7.86.49,11.8.67,1.79.08,3.59,0,5.39.04,3.47.08,6.95,0,10.39-.34,3.33-.32,6.68-.22,9.99-.69ZM29.49,78.59c1.89,0,3.26.14,4.59-.03,2.91-.36,5.84-.45,8.75-.86,3.09-.44,6.2-.79,9.32-1.08,3.47-.32,6.91-.97,10.41-.92.36,0,.71-.04,1.07-.08.24-.02.48-.06.6-.31-.18-.06-.36-.13-.55-.17-2.9-.58-5.82-1.07-8.7-1.75-5.53-1.3-11.03-2.73-16.66-3.59-3.88-.6-7.73-1.29-11.68-1.16-1.3.04-2.5.29-3.65.85-2.44,1.17-3.37,4.07-2.04,6.34.7,1.19,1.79,1.85,3.05,2.31,1.97.73,4.01.36,5.49.46ZM65.61,64.38c-2.7-.3-5.71.11-8.69.54-5.66.82-11.11,2.76-16.83,3.29-.47.04-1,.07-1.39.45.45.06.86.07,1.29.14.08.01.16.02.24.04,4.16.89,8.3,1.86,12.49,2.65,5.52,1.04,10.97,2.36,16.55,3.12,2.94.4,5.58-.07,8.1-1.51,1.66-.95,2.17-2.91,1.38-4.65-.92-2.02-2.72-2.77-4.65-3.38-2.67-.84-5.41-.77-8.48-.69ZM33.49,67.84c4.08-.2,8.09-.87,12.07-1.77,3.28-.74,6.52-1.66,9.86-2.12,1.41-.2,2.81-.45,4.21-.67.19-.03.4.02.49-.23-.19-.05-.37-.11-.56-.13-.59-.06-1.17-.03-1.77-.15-4.03-.79-8.02-1.75-12.01-2.7-3.87-.92-7.72-1.96-11.74-2.29-2.05-.17-3.87-.01-5.55,1.07-1.65,1.07-2.72,2.59-2.45,4.68.23,1.75,1.25,3.02,2.89,3.63,1.45.54,2.99.79,4.56.69ZM51.21,55.12c1.04,0,1.98.25,2.39-1.33.81-3.14,2.04-6.16,2.96-9.28,1.63-5.5,3.5-10.92,5.22-16.38.52-1.65,1.3-3.22,1.68-4.92.12-.56.11-.78-.54-.82-.88-.05-1.73-.3-2.44-.83-.61-.46-.8-.29-1.03.37-2.43,6.87-4.35,13.89-6.46,20.86-1.02,3.38-2.11,6.75-3.15,10.13-.67,2.19-.65,2.19,1.36,2.19ZM63.33,58.1c-3.98.03-7.78,1.42-11.76,1.47-.13,0-.37.01-.3.25.04.12.14.25.32.29.85.18,1.55.4,2.31.48,2.61.27,5.13.98,7.7,1.47,2.28.43,4.49.38,6.67-.37.61-.21,1.39-.45,1.45-1.24.06-.75-.62-1.05-1.19-1.33-1.64-.8-3.4-1.04-5.21-1.01ZM46.46,55.25c.4.02,1.09.01,1.2-.47.16-.71.4-1.37.64-2.04.33-.9.03-1.23-.88-1.17-1.86.12-3.72.13-5.57.35-.89.11-1.76.42-2.62.69-.34.11-.67.37-.69.75-.02.39.34.61.66.77.35.17.72.36,1.1.42,2.03.3,4.06.54,6.15.69ZM55.98,54.7c.87-.03,1.83-.09,2.44-.48.46-.29.81-.43.87-1.21.05-.68-.89-.69-1.47-.77-.08-.01-.34-.03-.42-.04-1.49-.24-1.74-.12-2.16,1.52-.21.85.01.97.73.98ZM63.39,21.31c.26,0,.55.04.73-.25.19-.31-.03-.53-.19-.73-.65-.79-1.5-1.12-2.5-1.02-.31.03-.7.11-.79.41-.11.38.25.64.55.83.67.43,1.45.53,2.21.76Z"/>
          <path d="M37.82,106.75c-2.69.25-5.71-.07-8.72-.26-2.62-.16-5.22-.66-7.83-1.03-.38-.05-.75-.23-1.12-.36-.29-.1-.5-.28-.49-.6.01-.34.26-.47.56-.51.27-.04.56-.17.82-.12,2.64.52,5.33.72,8,1.04,2.09.25,4.2.35,6.31.42,2.86.09,5.73.11,8.59.09,2.29-.02,4.58-.14,6.87-.2.22,0,1.2-.08,1.59,0-.4.23-1.33.5-1.56.55-1.39.27-2.79.6-4.2.74-2.81.28-5.64.32-8.81.23Z"/>
          <path d="M54.3,170.41c3.68-.17,7.33-.58,10.98-1.13,3.38-.51,6.62-1.54,9.93-2.31.64-.15,1.56-.53,1.77.22.22.79-.62,1.21-1.41,1.42-2.56.68-5.09,1.44-7.73,1.79-1.53.2-3.05.41-4.58.6-3.65.43-5.97.19-9.63.18-.8,0-1.75-.19-1.97-.27-.1-.03-.72-.17-.91-.32.13-.21,1.19-.08,1.34-.09.86-.03,1.34.02,2.21-.09Z"/>
          <path d="M60.63,163.81c-.44.05-1.72.07-2.18-.15.37-.23,1.7-.4,1.97-.46,3.37-.67,6.75-1.26,10.06-2.19,1.82-.51,3.59-1.22,5.38-1.83.3-.1.6-.23.9-.27.39-.05.85-.11,1.01.39.17.53-.16.79-.6.99-2.43,1.1-5,1.67-7.6,2.2-2.98.6-6,.9-8.94,1.3Z"/>
          <path d="M66.16,155.64c-.1-.03-.44.14-.45-.22,0-.11.27-.29.45-.33,3.62-.83,7.08-2.14,10.53-3.46.41-.16.8-.29,1.03.17.23.46-.24.61-.52.79-1.45.91-3.12,1.27-4.72,1.77-2.03.63-4.1,1.07-6.32,1.28Z"/>
        </g>
      </g>
    </g>
  </g>
</svg>