<?xml version="1.0" encoding="UTF-8"?>
<svg xmlns="http://www.w3.org/2000/svg" baseProfile="tiny" version="1.2" viewBox="0 0 248.05 182.86">
  <!-- Generator: Adobe Illustrator 28.6.0, SVG Export Plug-In . SVG Version: 1.2.0 Build 709)  -->
  <g>
    <g id="Layer_1">
      <g>
        <path d="M77.75,12.87c4.64.02,9.24.52,13.85.88,3.58.28,7.13.84,10.7,1.22,2.29.25,4.56.8,6.78,1.42,3.69,1.03,7.32,2.15,10.69,4.12,3.34,1.94,5.77,4.47,6.99,8.14.15.45.32.91.42,1.37.42,1.98,1.13,3.72,2.83,5.07,1.24.99,1.88,2.58,2.43,4.08.97,2.62,1.84,5.27,2.74,7.91,1.82,5.32.58,10.05-2.79,14.36-1.04,1.33-2.24,2.51-3.61,3.49-.93.66-1.32,1.47-1.35,2.62-.04,1.59-.33,3.17-.4,4.76-.08,1.82.83,2.71,2.58,2.4,1.89-.33,3.73-.94,5.2-2.28,1.18-1.08,2.33-2.19,3.24-3.52.9-1.32,1.9-2.57,3.06-3.68,1.94-1.85,4.2-2.82,6.9-2.84,3.17-.02,3.19-.31,3.38-3.67.22-3.91-.02-7.83.26-11.73.14-1.96-.26-3.44-1.87-4.83-3.36-2.88-4.92-6.62-4.34-11.12.19-1.51.33-3.02.59-4.51.69-4.06,2.91-7.07,6.58-8.88,1.64-.81,2.43-1.81,2.38-3.68-.06-2.43,1.36-4.22,3.11-5.7,2.54-2.15,5.53-3.58,8.74-4.32,7.54-1.75,15.17-2.03,22.87-1.25,2.7.27,5.41.42,8.12.56,3.84.2,7.6.96,11.35,1.66,5.41,1.02,10.73,2.47,15.99,4.12,3.89,1.23,7.65,2.76,11.18,4.86,3.56,2.12,5.44,5.32,6.26,9.22.31,1.46.75,2.96.25,4.5-.2.63.2,1.05.53,1.51.51.71.98,1.46,1.48,2.18,1.33,1.92,1.79,4.06,1.67,6.37-.09,1.83-.12,3.63.18,5.49.26,1.63-.33,3.3-1.25,4.77-1.61,2.59-3.89,4.49-6.58,5.78-1.84.88-2.81,2.18-3.39,4.03-1.61,5.18-3.28,10.33-4.93,15.5-.15.46-.34.9-.43,1.37-.18.91-.04,1.65.85,2.27,1.85,1.27,3.37,2.91,4.87,4.58,3.76,4.18,5.74,9.15,6.8,14.58.97,5.01.22,9.83-1.57,14.54-.8,2.1-1.78,4.09-3.06,5.94-2.09,3.02-4.72,5.42-7.98,7.1-2.36,1.21-4.59,2.56-6.47,4.47-1.82,1.85-4.11,2.57-6.69,2.8-3.56.31-7.18.5-10.46,2.25-.49.26-1.05.4-1.59.52-2.07.45-3.63,1.58-4.7,3.42-.99,1.7-2.38,3.1-4.19,3.81-2.68,1.06-3.82,3.15-4.03,5.73-.2,2.5-1.13,4.4-3.12,5.91-1.23.93-1.87,2.35-2.41,3.8-1.16,3.14-1.85,6.45-3.24,9.51-1.33,2.92-3.07,5.48-6.24,6.59-1.95.68-3.98,1.14-6.1,1.03-3.13-.16-6.26.04-9.23,1.07-3.61,1.26-7.21,2.52-10.89,3.59-1.83.53-3.38,1.73-5.29,2.2-2.76.68-5.02-.18-7.15-1.75-1.29-.96-2.26-2.26-3.22-3.53-1.82-2.43-3.61-4.88-5.36-7.37-1.66-2.37-3.61-4.47-5.76-6.38-1.26-1.12-2.65-2.01-4.39-2.32-1.44-.25-2.65-1.08-3.7-2.1-.8-.78-1.58-1.6-2.44-2.31-2.08-1.72-3.57-1.6-5.4.37-.27.29-.54.59-.78.9-2.43,3.15-5.66,4.41-9.52,3.69-2.71-.51-4.93.26-7.23,1.6-2.69,1.57-5.63,2.64-8.72,3.18-2.89.51-5.58-.22-8.11-1.5-2.41-1.23-4.98-1.53-7.6-1.9-4.24-.61-8.44.23-12.65.07-4.95-.2-9.84-.79-14.66-1.99-3.41-.85-6.82-1.69-10.09-2.95-8-3.1-15.21-7.46-20.72-14.18-5.69-6.95-7.99-14.94-5.92-23.76,1.42-6.08,4.79-11.12,10.06-14.7,1.47-1,2.78-2.15,3.95-3.47,4.56-5.13,9.92-9.23,15.89-12.59,3.31-1.86,2.95-1.07,2.22-4.72-.76-3.76-1.54-7.51-2.24-11.27-.24-1.28-.74-2.08-2.01-2.67-2.31-1.08-4.48-2.43-6.22-4.4-2.74-3.12-3.79-6.6-2.45-10.63.3-.91.66-1.8,1.04-2.68.24-.54.27-1.05.15-1.63-1-4.73.51-8.76,3.93-11.92,1.61-1.49,2.09-3.04,2.02-5.01-.12-3.38,1.35-6.05,3.87-8.14,3.23-2.68,6.96-4.53,10.9-5.93,6.49-2.31,13.22-3.59,20.05-4.39,4.84-.57,9.69-1.05,14.57-1.05ZM215.47,108.93c1.01.23,1.88-.28,2.78-.57,1.06-.35,2.09-.79,3.14-1.18.29-.11.66-.19.78.21.05.17-.1.48-.26.61-1.28,1.09-2.63,2.07-4.22,2.69-6.67,2.62-13.61,3.97-20.75,4.34-2.31.12-4.63.19-6.91.5-4.37.61-8.52,1.99-12.57,3.74-3.66,1.59-7.38,3.05-11.35,3.67-2.44.39-4.93.45-7.37.84-6.78,1.1-13.31,3.23-19.93,5-4.64,1.24-9.32,2.08-14.15,2.11-2.89.01-5.71-.52-8.58-.63-8.31-.33-16.41.72-24.24,3.53-4.07,1.46-8.22,2.56-12.46,3.37-3.31.63-6.2-.09-8.46-2.63-1.13-1.27-2.5-2-4.11-2.25-1.57-.25-3.15-.52-4.77-.45-4.02.16-7.96-.4-11.87-1.29-2.41-.55-4.6-.26-6.49,1.47-.35.32-.77.58-1.13.89-1.99,1.73-4.21,2.07-6.7,1.26-5.2-1.7-9.72-4.47-13.42-8.48-1.85-2-3.28-4.33-4.03-7-.06-.21-.08-.61,0-.65.42-.18.47.23.61.48.24.42.48.83.72,1.24,3.87,6.43,9.63,10.31,16.72,12.37,2.66.77,6.09-1.02,7.09-3.56.11-.29.16-.63.12-.94-.18-1.43-.46-2.83-.91-4.21-.18-.55-.48-.83-1.04-.64-1.68.56-3.28,1.28-4.57,2.54-1.24,1.22-1.26,2.15-.17,3.55.21.26.89.36.47.86-.19.23-.58-.06-.86-.21-2.19-1.19-2.52-2.34-1.28-4.48.24-.41.52-.81.82-1.18,1.45-1.81,2.18-3.87,2.28-6.18.07-1.61.37-3.17,1.37-4.51.51-.68.51-1.46.48-2.28-.06-1.46-.59-2.81-.9-4.21-1.22-5.53-2.51-11.04-3.79-16.56-.27-1.18-.34-1.2-1.39-.77-.59.24-1.16.52-1.72.84-3.76,2.14-7.21,4.7-10.42,7.61-4.39,3.99-7.78,8.64-9.74,14.28-.61,1.74-.8,3.57-1.25,5.35-.05.21-.26.38-.4.57-.14-.18-.38-.34-.41-.54-.34-1.9-.35-3.79.12-5.7.36-1.46,1.04-2.85.9-4.41l.05.02c-3.43,2.62-4.83,6.47-6.13,10.33-.79,2.35-1.24,4.82-.98,7.3.31,2.92.94,5.75,2.24,8.49,2.07,4.36,4.96,8.03,8.66,10.97,5.28,4.19,11.11,7.44,17.57,9.56,7.03,2.3,14.22,3.65,21.61,3.83,2.88.07,5.76,0,8.63,0,2.96-.02,5.91.05,8.75,1.03,1.43.5,2.87.99,4.25,1.61,2.3,1.04,4.62,1.14,7.01.47,2.46-.69,4.85-1.56,7.05-2.91,2.1-1.28,4.43-2.04,6.87-1.43,3.29.82,5.98.09,8.24-2.41.32-.35.66-.69.98-1.04,2.79-3.08,6.36-3.97,10.25-3.24,2,.38,3.88,1.46,5.23,3.17.09.11.17.32.13.44-.11.28-.37.24-.59.14-1.23-.59-2.44-1.19-3.81-1.38-.42-.06-.81-.11-1.02.35-.15.33.03.65.23.87,1.25,1.36,2.52,2.67,4.51,2.93,1.55.2,2.81,1,4.02,1.98,3.32,2.71,6.03,5.93,8.35,9.51,1.7,2.62,3.58,5.09,5.77,7.33,1.34,1.37,2.92,1.9,4.74,1.88,1.21,0,2.45-.19,3.49-.73,2.45-1.26,5.12-1.77,7.69-2.62.98-.33,1.98-.64,2.92-1.05,3.39-1.49,6.82-2.73,10.63-2.31,1.03.11,2.09.09,3.11-.04,2.06-.25,4.17-.49,5.79-1.96,1.61-1.46,2.92-3.16,3.62-5.28.79-2.43,1.7-4.82,2.51-7.24.75-2.24,1.89-4.23,3.71-5.77.96-.81,1.51-1.84,1.76-3.05.18-.86.39-1.72.49-2.59.27-2.55,1.61-4.33,3.91-5.32,2.22-.96,3.87-2.49,5.18-4.47,1.25-1.89,2.83-3.23,5.24-3.32.46-.02.93-.25,1.36-.44,2.51-1.09,5.15-1.61,7.85-1.99,1.89-.27,3.83-.25,5.67-.85.52-.17,1.34-.26,1.29-.83-.04-.52-.83-.65-1.4-.69-.72-.05-1.44-.05-2.16-.08-.72-.04-1.47.03-2.15-.16-1.5-.42-2.99-.46-4.52-.29-.26.03-.66.28-.76-.16-.02-.09.48-.38.77-.46,1.95-.5,3.94-.7,5.94-.57,2.75.17,5.39-.28,8.01-1.11,8.42-2.66,13.73-8.41,15.86-16.8,2.35-9.23-.14-17.52-6.17-24.8-.97-1.17-2.12-2.19-3.41-3-.96-.6-1.14-.53-1.49.57-1.08,3.42-2.11,6.86-3.21,10.27-.59,1.82-1.3,3.6-1.9,5.42-.37,1.11-.05,1.45,1.09,1.24,1.88-.34,3.76-.71,5.69-.65,1.3.04,2.49-.48,3.63-1.09.48-.26,1.01-1.13,1.3-.82.54.58-.34,1.06-.64,1.56-.38.63-1,1-1.64,1.36-1.36.76-2.82,1.06-4.35,1.17-3.95.28-7.23,1.89-9.6,5.1-1.31,1.78-2.47,3.68-3.7,5.52v.13s.12,0,.12,0ZM112.41,127.69c1.36,0,2.72,0,4.08,0,.64,0,1.05-.3,1.12-.99.05-.48.17-.95.22-1.42.7-6.01,1.32-12.04,2.11-18.04.92-6.96,1.22-13.98,2.38-20.92.94-5.66,1.47-11.39,2.19-17.08.15-1.19-.1-1.39-1.32-.86-2.72,1.17-5.5,2.16-8.31,3.08-5.7,1.84-11.46,3.43-17.41,4.26-3.08.43-6.17.72-9.27,1.04-5.57.57-11.13,1.02-16.73.76-6.14-.29-12.24-1.01-18.28-2.07-3.99-.7-7.99-1.45-11.88-2.7-1.82-.58-3.69-1.02-5.49-1.67-.6-.22-.91.07-.92.67,0,.4,0,.8.08,1.19,1.12,5.46,2.07,10.97,3.45,16.37.94,3.7,1.64,7.45,2.53,11.16,1.73,7.2,3.15,14.47,4.52,21.75.26,1.41.71,2.78,1.04,4.17.21.87.71,1.3,1.63,1.43,2.68.39,5.35.86,8.02,1.32,2.69.46,5.41.34,8.11.49,3.22.18,6.28.63,8.62,3.37,1.48,1.74,3.71,2.07,5.97,1.73,4.04-.61,7.98-1.63,11.79-3.04,7.04-2.62,14.26-3.99,21.76-4ZM153.91,86.45h-.02c0,4.48.07,8.95-.03,13.43-.06,2.4.25,4.77.33,7.15.02.5.19.93.5,1.32,2.82,3.57,5.59,7.18,8.7,10.52,1.38,1.48,2.75,1.82,4.67,1.21,3.66-1.16,7.23-2.53,10.8-3.92,3.94-1.54,7.87-2.95,12.23-3.09,2.21-.07,4.46-.17,6.67-.42,3.72-.41,7.42-1.01,11.11-1.67,1.84-.33,3.17-.88,3.75-2.73.07-.22.19-.47.37-.61,2.55-2.15,3.46-5.56,5.92-7.79.34-.3.54-.8.69-1.25,1.67-4.82,3.37-9.64,4.96-14.49,2.59-7.89,5.11-15.79,7.63-23.7.37-1.17,1.02-2.33.63-3.64-1.22-.16-2.33.31-3.48.58-7.88,1.9-15.83,2.74-23.96,2.07-5.89-.48-11.76-1.04-17.58-2.05-9.14-1.58-18.1-3.8-26.62-7.6-1.98-.88-3.83-1.97-5.72-3.02-.85-.48-1.1-.33-1.19.65-.02.24-.01.48-.02.72-.14,6.79.1,13.57-.29,20.37-.34,5.97-.07,11.98-.07,17.97ZM207.64,57.18c5.45-.05,9.36.02,13.25-.57,5.54-.84,11.01-1.92,16.12-4.35,2.48-1.18,4.79-2.63,6.43-4.88,1.23-1.69,2.19-3.52,1.46-5.79-.37-1.15-.15-2.37.04-3.57.38-2.32-.43-4.38-1.5-6.37-.15-.29-.4-.52-.75-.51-.42,0-.4.4-.55.67-.5.93-.27,2.08-.91,2.95-.12.16-.38.3-.57.3-.26,0-.37-.29-.36-.54.12-2.15.2-4.31.4-6.46.28-2.87-.24-5.55-1.53-8.11-1.3-2.59-3.64-3.98-6.09-5.2-4.45-2.22-9.12-3.8-13.94-5.02-5.65-1.44-11.3-2.84-17.08-3.67-6.01-.86-12.07-1.03-18.12-1.42-5.6-.36-11.16.07-16.62,1.48-3.08.79-5.82,2.2-8.24,4.24-1.76,1.48-1.93,2.88-.75,4.86.58.97,1.33,1.82,2.21,2.51,3.18,2.45,6.62,4.46,10.37,5.88,5.9,2.23,11.99,3.8,18.2,4.97,6.05,1.14,12.16,1.7,18.3,1.99,2,.09,3.98-.22,5.97-.24,7.04-.08,14.02-.64,20.88-2.37.21-.05.61-.02.65.08.15.38-.22.53-.47.68-1.38.83-2.92,1.29-4.45,1.74-4.72,1.39-9.62,1.52-14.46,1.79-6.29.35-12.61.21-18.9-.38-1.67-.16-3.34-.31-4.98-.62-4.7-.87-9.41-1.71-14.01-3.09-4.84-1.45-9.55-3.1-13.93-5.65-2.01-1.17-3.87-2.54-5.7-3.96-.99-.76-1.48-.64-2.12.45-.57.96-.99,2.02-1.58,2.96-.45.71-.66,1.65-1.61,1.96-.43-.98.22-1.75.51-2.59.05-.15.15-.28.22-.42.14-.29.27-.63.02-.89-.28-.3-.59-.05-.83.12-.58.43-1.18.83-1.7,1.33-2.36,2.26-2.92,6.47-1.21,9.26.8,1.29,1.76,2.47,2.89,3.51,2.48,2.28,5.23,4.13,8.19,5.76,6.08,3.34,12.65,5.26,19.3,6.92,4.25,1.06,8.6,1.69,12.9,2.53,4.48.88,9.02,1.11,13.56,1.31,3.59.15,7.18-.02,10.77-.24,5.37-.33,10.61-1.25,15.72-2.89,2.98-.95,5.81-2.22,8.48-3.86.19-.12.47-.26.64-.03.16.21-.04.43-.2.62-.47.56-1.08.93-1.69,1.32-1.42.92-2.99,1.51-4.5,2.24-6.07,2.92-12.58,4.17-19.21,4.54-5.89.33-11.8.42-17.71-.21-3.49-.37-6.98-.78-10.43-1.39-7.78-1.38-15.48-3.11-22.88-5.97-6.1-2.36-11.69-5.54-16.25-10.34-.11-.12-.21-.25-.31-.36-.21-.23-.43-.54-.77-.29-.29.21-.26.57-.19.88.22,1.03.63,1.99,1.23,2.84.79,1.11,1.63,2.17,2.62,3.11,3.77,3.55,8.16,6.13,12.91,8.07,9.36,3.83,19.19,5.85,29.14,7.42,5.06.8,10.15,1.11,13.74.99ZM77.3,15.56c-2.8.21-5.43.19-8.07.37-3.82.27-7.65.48-11.42,1.14-6.62,1.15-13.16,2.62-19.17,5.78-2.4,1.26-4.86,2.56-6.47,4.84-2.14,3.02-1.88,4.68-.3,7.02,1.19,1.75,2.7,3.17,4.52,4.2,4.27,2.41,8.86,4.1,13.62,5.13,5.21,1.12,10.48,2.1,15.86,2.14.95,0,1.9.07,2.85.09,2.46.05,4.92.27,7.36.08,4.13-.31,8.26-.53,12.37-1.13,3.87-.57,7.71-1.23,11.55-1.92,5.19-.94,10.23-2.48,15.12-4.46,2.84-1.15,5.45-2.68,7.53-4.99,2.17-2.41,2.25-4.83.2-7.33-.75-.92-1.67-1.72-2.6-2.47-2.86-2.31-6.3-3.42-9.72-4.47-4.82-1.48-9.83-1.99-14.82-2.61-2.3-.29-4.62-.3-6.92-.59-3.89-.5-7.78-.79-11.52-.81ZM76.02,63.87c4.05.06,7.95-.12,11.85-.44,4.62-.38,9.19-.98,13.75-1.8,4.4-.79,8.73-1.93,13.01-3.18,4.31-1.26,8.41-3.08,12.07-5.71,5.1-3.68,5.73-9.88,2.41-15.37-.17-.28-.38-.56-.75-.45-.38.12-.33.49-.35.79-.07.96-.1,1.92-.22,2.87-.04.35-.15.87-.66.78-.35-.06-.35-.48-.35-.8.02-1.6-.06-3.2-.54-4.74-.39-1.25-.88-1.4-1.81-.43-.83.87-1.69,1.67-2.67,2.39-4.28,3.13-9.22,4.75-14.24,6.05-10.75,2.78-21.72,4.26-32.81,4.82-4.32.22-8.63-.08-12.91-.52-5.79-.59-11.52-1.66-17.1-3.35-4.77-1.44-9.33-3.32-13.02-6.85-.96-.92-1.48-.71-1.64.67-.2,1.72-.77,3.44-.17,5.21.09.28-.16.66-.52.67-.16,0-.45-.26-.48-.44-.22-1.17-.38-2.36-.56-3.54-.05-.3-.05-.66-.4-.79-.36-.14-.6.14-.81.37-1.03,1.17-1.48,2.62-1.97,4.06-.87,2.55-.46,4.85,1.1,7.03,1.75,2.44,4.27,3.81,6.9,4.99,8.08,3.63,16.66,5.46,25.36,6.69,5.85.83,11.76,1.18,17.55,1.03ZM127.94,128.2c3.64.06,7.08-1.04,10.54-1.92,5.1-1.3,10.17-2.69,15.27-3.98,2.01-.51,4.07-.81,6.1-1.25,1.32-.28,1.34-.33.42-1.41-3.68-4.32-6.76-9.08-10.07-13.68-.98-1.36-1.81-2.83-2.64-4.28-.92-1.61-.86-3.2.28-4.71.15-.19.3-.37.46-.55.4-.46.31-.89-.14-1.22-2.07-1.53-3.27-3.68-4.26-5.98-.42-.99-1.18-1.64-2.1-2.22-1.62-1.01-3.54-.9-5.25-1.56-.62-.24-.89.29-.8.82.4,2.45.95,4.86,2.65,6.82.36.41.7.84,1.05,1.26-.76.36-1.16-.29-1.63-.63-1.53-1.12-2.58-2.6-3.06-4.45-.32-1.24-.63-2.48-.87-3.73-.79-4.09-3.68-4.55-6.61-4.15-1.15.16-1.56.87-1.86,2.14-.43,1.88-.44,3.8-.68,5.69-.45,3.56-.93,7.13-1.13,10.7-.21,3.75-.95,7.43-1.16,11.18-.24,4.29-.85,8.56-1.23,12.85-.09.97-.53,2.01.22,2.93,1-.47,1.39-1.48,2.03-2.27.15-.18.27-.4.39-.6,2.51-4.55,4.69-9.25,6.31-14.2.41-1.25.39-2.48.1-3.77-.47-2.09-1.6-3.61-3.49-4.61-.18-.09-.27-.34-.41-.52.23-.04.47-.15.68-.1,1.61.43,2.84,1.4,3.83,2.71.18.24.48.56.71.55.47-.02.51-.54.6-.9.12-.46.12-.95.17-1.42.17-1.87-.2-3.65-.75-5.42-.83-2.7-2.11-5.17-3.68-7.49-.17-.26-.56-.62-.34-.79.42-.32.66.22.89.47,1.43,1.53,2.54,3.28,3.49,5.14,1.44,2.82,2.27,5.84,2.01,9-.24,2.94-.98,5.8-2.04,8.59-1.79,4.71-4.09,9.19-6.17,13.77-1.46,3.21-1.87,3.22,2.13,3.2ZM75.59,74.45c3.83-.08,7.65-.11,11.48-.42,6.14-.49,12.21-1.3,18.21-2.61,6.5-1.42,12.83-3.33,18.66-6.63,2.66-1.5,5.12-3.29,7-5.74,1.87-2.43,2.84-5.16,2.44-8.27-.05-.39-.07-.85-.55-.95-.37-.08-.53.24-.7.51-2.49,4.1-6.29,6.48-10.64,8.14-2.16.83-4.33,1.64-6.53,2.36-5.84,1.92-11.74,3.57-17.88,4.33-2.93.36-5.84.77-8.79,1.01-3.65.3-7.29.82-10.97.85-3.12.02-6.22-.32-9.32-.45-3.76-.16-7.49-.65-11.17-1.28-5.26-.9-10.5-1.89-15.62-3.5-5.79-1.82-11.65-3.45-16.17-7.9-.74-.73-1.06-.56-1.44.54-1.04,3.06.09,6.74,2.9,9,1.36,1.09,2.83,2.07,4.43,2.82,8.48,3.98,17.52,5.89,26.71,7.17,5.93.83,11.93,1.13,17.93,1.02ZM151.15,71.92c0-.64,0-1.28,0-1.91.01-.72.09-1.44.06-2.15-.08-2.12-1.14-3.15-3.27-3.35-1.94-.18-3.64.36-5.07,1.66-.82.75-1.54,1.61-2.28,2.45-1.31,1.5-2.54,3.07-3.9,4.53-2.36,2.52-5.42,3.55-8.77,3.83-.78.07-1.55.23-1.36,1.21.17.89.96.94,1.72.86.16-.02.31-.09.47-.1,2.47-.07,4.69.65,5.81,2.95.94,1.94,2.48,2.78,4.34,2.88,3.58.18,6.03,1.75,7.43,5.04.28.65.74,1.23,1.18,1.79.29.37.64.72,1.04.97,1.39.88,2.05.56,2.09-1.06.17-6.53.15-13.07.53-19.6ZM40.04,120.19c-.14.93.05,1.15.64.91.73-.3,1.64-.56,1.29-1.62-.24-.72-.03-2.03-.79-2.05-1.04-.02-.51,1.38-.95,2.04-.16.25-.17.6-.19.71ZM150.66,100.48c0-.64.04-.96-.01-1.27-.08-.48.18-1.33-.67-1.2-.67.11-.92.81-.81,1.51.05.31.18.6.31.9.2.49.32,1.31.91,1.18.65-.14.26-.93.28-1.12Z"/>
        <path d="M132.02,158.61c2.25,1.81,4.03,4.05,5.77,6.32.67.88,1.43,1.7,2.14,2.56,1.89,2.28,4.21,3.59,7.27,3.32.24-.02.48.01.71.04.62.07.74.55.77,1.03.03.48-.32.69-.74.76-1.6.26-3.15-.03-4.63-.6-2.23-.85-3.88-2.47-5.27-4.34-2.03-2.75-3.65-5.79-5.9-8.39-.12-.14-.05-.45-.07-.68l-.05-.03Z"/>
        <path d="M33.3,149.74c-8.38-2.48-15.31-7.04-20.41-14.22-.6-.84-1.23-1.68-1.54-2.69-.07-.23-.11-.5.13-.63.25-.14.47.07.62.24.32.36.63.72.89,1.12,4.48,6.94,10.85,11.59,18.23,15,.72.33,1.54.48,2.03,1.19l.05-.02Z"/>
        <path d="M27.81,99.83c-.3-.16-.22-.39-.06-.56,1.14-1.33,2.51-2.37,4.08-3.14.21-.11.48-.01.55.25.03.12-.02.35-.11.41-1.4,1.01-2.81,2.01-4.22,3-.06.04-.15.03-.23.04Z"/>
        <path d="M31.91,101.89c-.09-.1-.19-.2-.25-.32-.03-.05.02-.16.06-.21.49-.65,1.68-1.19,2.01-.91.05.04.09.13.08.19-.03.25-1.54,1.23-1.9,1.25Z"/>
        <path d="M33.25,149.76c.2.02.4.05.6.07-.05.02-.11.07-.15.06-.14-.04-.27-.1-.4-.15,0,0-.05.02-.05.02Z"/>
        <polygon points="132.07 158.64 131.93 158.66 132.02 158.61 132.07 158.64"/>
        <path d="M86.24,83.69c-.94-.11-2.14.21-3.3-.18,1.21-.44,2.36-.41,3.54-.49,5.81-.42,11.54-1.37,17.23-2.55,4.45-.93,8.79-2.25,13.07-3.77.73-.26,1.49-.84,2.14.04.39.53-.15,1.31-1.49,1.77-3.16,1.08-6.31,2.22-9.62,2.78-3.76.64-7.52,1.4-11.31,1.77-3.32.32-6.65.73-10.25.63Z"/>
        <path d="M94.51,89.42c-.39-.02-.63.01-.86-.05-.3-.08-.59-.23-.89-.35.2-.34.56-.19.83-.22,6.52-.63,12.9-1.89,19.09-4.09,1.12-.4,2.25-.79,3.45-.93.35-.04.63.07.79.38.17.34.02.64-.25.83-.72.51-1.51.86-2.37,1.09-6,1.62-12.03,3.04-18.29,3.16-.55.01-1.1.12-1.5.17Z"/>
        <path d="M61.23,123.01c-3.72-.27-7.41-.71-10.89-2.18-.43-.18-.85-.41-1.25-.65-.09-.06-.15-.3-.11-.42.04-.11.22-.24.34-.24.31,0,.65-.02.94.09,4.12,1.53,8.4,2.27,12.75,2.67.26.02.74-.11.7.34-.01.15-.52.34-.82.38-.55.06-1.11.02-1.66.02Z"/>
        <path d="M103.38,94.55c-.4-.02-.6,0-.8-.11-.25-.13.29-.32.52-.34,3.9-.32,7.62-1.42,11.32-2.64.59-.19,1.49-.6,1.72,0,.34.93-.78,1.03-1.36,1.24-2.39.85-4.83,1.54-7.4,1.65-1.42.06-2.65.15-3.99.2Z"/>
        <path d="M54.19,116.45c-1.83-.23-3.9-1.03-5.88-2.1-.27-.14-.49-.41-.67-.66-.15-.2-.12-.47.07-.64.1-.09.31-.17.42-.13.73.31,1.43.7,2.17,1,1.55.63,3.11,1.21,4.67,1.82.28.11.66.18.53.59-.03.11-.43.11-.66.14-.08.01-.16,0-.66-.03Z"/>
        <path d="M199.75,67.16c1.58.08,3.17.12,4.75.24,6.33.5,12.55-.41,18.75-1.5.63-.11,1.26-.3,1.88-.09.19.06.43.3.46.48.03.18-.12.47-.28.6-.44.37-.97.51-1.54.59-1.42.21-2.82.58-4.24.68-3.64.25-7.25.87-10.95.48-3.56-.37-7.16-.33-10.68-1.15-.29-.07-.57-.17-.86-.26.38-.14.52-.14.79-.15.64-.02.99.08,1.63.08.08,0,.2,0,.28,0Z"/>
        <path d="M212.49,75.78c-1.91-.08-4.05.12-6.05-.48-.18-.06-.48-.08-.41-.39.02-.07.29-.09.44-.1.8-.01,1.59-.01,2.39-.01,3.82,0,7.59-.41,11.31-1.29,1.24-.29,2.21-.08,2.09.4-.21.81-1,1-1.67,1.13-1.32.25-2.63.66-3.99.61-1.36-.06-2.68,0-4.1.12Z"/>
        <path d="M159.08,105.18c.52.01.84.39,1.21.68,2.63,2.1,5.53,3.76,8.56,5.19,1.22.58,2.46,1.13,3.83,1.29.23.03.53.11.5.38-.04.29-.36.28-.58.22-1.46-.39-2.95-.69-4.36-1.22-2.99-1.12-5.83-2.56-8.41-4.46-.5-.37-1.1-.7-1.22-1.4-.06-.33.05-.63.47-.68Z"/>
        <path d="M167.24,105.29c-.21.05-.37.15-.5.12-.46-.11-.92-.22-1.35-.4-2.6-1.05-4.87-2.64-6.94-4.51-.22-.2-.38-.49-.51-.77-.05-.1.03-.32.13-.41.09-.09.3-.16.42-.12.22.07.43.2.61.35,2.37,1.99,4.88,3.79,7.62,5.26.19.1.33.3.53.47Z"/>
        <path d="M182.85,17.95c-3.94.09-7.5-.29-11-1.14-.31-.07-.61-.18-.91-.28-.3-.1-.65-.19-.6-.6,0-.07.42-.15.64-.13,2.3.2,4.61.34,6.88.67,2.55.37,5.1.32,7.64.19,6.38-.33,12.66-1.36,18.76-3.31,1.13-.36,2.22-.87,3.34-1.28.2-.07.45,0,.68,0-.11.2-.18.47-.35.58-1.2.8-2.47,1.48-3.83,1.94-4.54,1.53-9.2,2.55-13.99,2.92-2.54.2-5.06.64-7.28.44Z"/>
        <path d="M182.21,39.73c-3.17-.07-6.14-1.09-9.05-2.16-5.19-1.91-10.09-4.43-14.67-7.52-.62-.42-1.9-.96-1.48-1.58.49-.73,1.35.26,1.98.67,6.44,4.26,13.43,7.36,20.78,9.67.82.26,1.72.35,2.41.96l.04-.04Z"/>
        <path d="M176.15,10.25c-1.31.13-2.72-.09-4.06-.64-.85-.35-.91-1.09-.22-1.68.5-.42,1.06-.71,1.73-.74.65-.03,1.32-.11,1.2.94-.07.59.39.84.91.87,2.31.12,4.61.12,6.81-.75.2-.08.36-.28.54-.43-.16-.17-.29-.4-.48-.49-.43-.18-.9-.28-1.35-.42-.19-.06-.39-.12-.58-.18.21-.09.42-.26.63-.26.87,0,1.76.04,2.55.45.89.46.95,1.33.11,1.87-.39.25-.85.43-1.31.55-2.07.56-4.17.97-6.48.9Z"/>
        <path d="M182.16,39.77c.17.05.35.1.52.16-.06.02-.13.07-.16.05-.11-.07-.21-.16-.32-.25l-.04.04Z"/>
        <path d="M78.05,39.88c10.86.28,21.48-1.98,31.68-6.3,2.5-1.06,4.91-2.32,7.21-3.77.19-.12.57-.29.63-.23.34.37-.12.54-.3.7-3.2,2.73-6.89,4.61-10.79,6.1-5.92,2.25-12.04,3.72-18.29,4.56-3.79.51-7.63.66-11.47.62-.48,0-.96,0-1.44.01-.67.02-1.21.08-1.3,1.01-.12,1.21-1.04,1.68-2.13,1.94-2.53.6-5.08.54-7.63.24-1.42-.17-2.84-.5-4.19-.95-1.28-.42-2.32-1.26-2-2.84.21-1.05-.28-1.46-1.16-1.67-2.8-.66-5.53-1.53-8.18-2.66-2.37-1.01-4.59-2.25-6.46-4.05-2.87-2.77-2.3-5.73,1.43-7.26.75-.3,1.47-.88,2.37-.53-.41.74-1.25.93-1.86,1.43-.37.3-.75.61-1.06.97-1.18,1.34-1.16,2.51.12,3.78,1.78,1.77,3.9,3.1,6.2,4.02,6.03,2.43,12.33,3.81,18.81,4.46,3.19.32,6.37.43,9.81.44ZM67.69,43.68c1.15,0,1.96.12,2.73-.03.79-.15,2.01-.13,2.02-1.21,0-1.13-1.22-1.09-2.03-1.19-1.57-.19-3.19-.08-4.74-.37-1.29-.25-2.49-.24-3.74.08-.53.14-1.22.05-1.28.77-.06.68.57.88,1.08,1.08.37.14.75.31,1.14.33,1.74.1,3.43.72,4.84.54Z"/>
        <path d="M73.35,30.65c7.38-.15,14.31.77,21.15,2.44.39.09.78.19,1.14.35.53.23,1.54.15,1.26,1.03-.23.7-1.14.45-1.7.28-3.22-.95-6.53-1.42-9.83-1.96-3.31-.54-6.63-.88-9.99-.92-3.27-.03-6.55-.08-9.82.01-3.51.1-6.97.61-10.38,1.43-.23.06-.62.29-.73-.16-.02-.08.33-.33.54-.39,2.52-.75,5.11-1.26,7.72-1.55,3.64-.41,7.3-.68,10.64-.56Z"/>
        <path d="M143.7,104.22c.14.2.29.38.41.59,1.77,3.35,4.29,6.14,6.79,8.95,1.08,1.21,1.98,2.5,2.6,3.99.17.41.16.8-.22,1.07-.38.27-.79.09-1.11-.14-.25-.18-.47-.44-.63-.71-1.79-3.12-4.24-5.79-5.95-8.97-.72-1.34-1.36-2.71-1.85-4.15-.07-.21-.24-.4-.05-.62Z"/>
        <path d="M52.98,68.89c-2.52-.47-5.2-.87-7.84-1.46-5.86-1.31-11.52-3.15-16.64-6.4-.87-.55-1.78-1.07-2.43-1.91-.14-.19-.17-.46.06-.62.11-.08.32-.12.43-.06.36.17.71.37,1.03.6,4.92,3.55,10.51,5.61,16.29,7.21,3.07.85,6.2,1.42,9.34,1.94.3.05.82-.03.82.28,0,.6-.6.25-1.07.44Z"/>
        <path d="M147.37,69.78c-.11.1-.21.26-.34.31-1.75.61-3.21,1.72-4.75,2.68-.18.11-.39.32-.6.07-.06-.07,0-.32.07-.42,1.37-1.65,3.09-2.71,5.21-3.07.25-.04.44.12.41.43Z"/>
        <path d="M144.92,75.2c-.07-.02-.2-.04-.2-.07-.01-.13-.04-.32.03-.39.33-.33.67-.66,1.04-.94.43-.32,1.17-.84,1.42-.45.42.65-.54.71-.91.99-.42.33-.77.8-1.38.85Z"/>
      </g>
    </g>
  </g>
</svg>