<?xml version="1.0" encoding="UTF-8"?>
<svg xmlns="http://www.w3.org/2000/svg" baseProfile="tiny" version="1.2" viewBox="0 0 213.36 149.62">
  <!-- Generator: Adobe Illustrator 28.6.0, SVG Export Plug-In . SVG Version: 1.2.0 Build 709)  -->
  <g>
    <g id="Layer_1">
      <g>
        <g>
          <path d="M113.41,52.44c-.32-4.62-.59-9.24-.79-13.87-.06-1.35.18-2.74.94-3.91,1.06-1.61.45-3.24.16-4.86-.09-.52-.58-.74-.98-1-1.56-.99-2.17-2.52-2.36-4.24-.26-2.39-.21-5.79.03-8.18.22-2.19,1.7-3.53,3.4-4.68,2.61-1.75,5.48-2.94,8.51-3.72,4.86-1.25,9.74-2.29,14.76-2.88,4.66-.55,9.33-.9,14-1.26,6.84-.53,13.72-.29,20.56.08,4.84.26,9.68.73,14.49,1.57,4.09.72,8.17,1.41,12.15,2.57,2.61.75,5.11,1.77,7.49,3.13,3.67,2.1,4.67,5.45,4.52,9.34-.05,1.19-.42,3.36-.6,4.54-.22,1.4-.72,2.62-1.93,3.45-.65.44-1.02,1.06-1.02,1.8,0,1.72-.49,3.48.74,5.08.58.75.8,1.93.8,2.94-.04,2.07-.08,2.87-.22,5.05-.06,1.12-.18,2.99-.22,3.87-.17,3.91-.47,7.32-.82,11.21-.59,6.59-.91,13.2-1.66,19.77-.34,3-.39,6.05-.69,9.06-.57,5.7-1.15,11.41-1.7,17.11-.27,2.78-.46,5.56-.68,8.34-.32,3.96-.56,7.93-.97,11.89-.15,1.4-.37,2.87-1.45,3.98-.35.36-.56.8-.49,1.3.16,1.22-.08,2.27-.19,3.5-.38,3.66-2.12,5.31-4.85,6.23-5.42,1.84-10.86,3.74-16.53,4.69-4.56.77-8.44,1.22-13.17,1.52-2.27.21-4.56.14-6.56.18-8.55.16-16.79-1.46-24.93-3.88-3.38-1-6.61-2.33-9.82-3.74-1.18-.52-1.86-1.44-1.97-2.77-.11-1.35-.27-2.7-.45-4.04-.14-1.02-.31-1.99-1.12-2.82-.91-.94-1.16-2.25-1.26-3.55-.34-4.7-.56-9.4-1.05-14.08-.75-7.14-.87-14.33-1.65-21.47-.37-3.4-.43-6.85-.65-10.28-.34-5.25-.68-10.51-1.02-15.76-.08-.94-.51-7.49-.77-11.23ZM160.42,27.77c5.66.03,11.3-.23,16.95-.75,6.93-.64,13.75-1.75,20.42-3.65,2.91-.83,5.81-1.81,8.12-3.92,1.72-1.58,1.75-3.13.04-4.7-.76-.69-1.62-1.38-2.55-1.75-1.92-.77-3.79-1.67-5.79-2.26-5.29-1.55-10.72-2.5-16.16-3.19-5.21-.66-10.47-1.04-15.74-1.13-9.73-.16-19.43.06-29.09,1.44-4.74.68-9.42,1.6-14,2.97-2.74.82-5.44,1.8-7.77,3.59-1.75,1.35-2.42,3.6-.04,5.36,1.69,1.25,3.51,2.21,5.47,2.88,7.67,2.61,15.62,3.84,23.65,4.52,5.48.47,10.98.69,16.49.58ZM160.98,42.44c3.07,0,6.33-.16,9.59-.39,5.4-.38,10.8-.88,16.16-1.77,4.8-.79,9.58-1.67,14.19-3.31,2.01-.71,2.95-1.97,3.02-4.08.07-2.41.13-2.41-2.29-1.97-.24.04-.48.08-.71.09-.22,0-.61,0-.64-.09-.09-.27.21-.41.41-.49,1.67-.63,3.08-1.68,4.51-2.69,1.1-.78,1.74-1.84,1.99-3.16.06-.31.2-1.66-.06-1.91-.38-.38-.74.02-1.05.17-.93.45-1.8,1.04-2.76,1.43-4.97,2.03-10.14,3.34-15.42,4.25-4.64.8-9.34,1.07-14.02,1.55-4.46.46-8.93.5-13.38.48-5.42-.02-10.86.08-16.27-.56-4.11-.49-8.26-.69-12.32-1.56-6.15-1.31-12.4-2.34-17.92-5.66-.25-.15-.6-.41-.81-.02-.14.25-.22,1.29-.11,1.91.44,1.59,1.62,2.46,3.03,3.19,4.31,2.23,9.02,3.15,13.66,4.27,2.62.63,5.36.77,8.04,1.19,5.12.8,10.28,1.42,15.45,1.62,7.42.28,14.85.26,22.28-.25,4.71-.33,9.36-.94,14.01-1.61,2.13-.31,4.23-.82,6.34-1.23.13-.02.34.05.41.14.11.15,0,.31-.19.36-.61.18-1.22.38-1.83.54-8.83,2.34-17.86,3.25-26.95,3.76-3.27.18-5.96.13-9.24.22-1.03.03-2.98-.05-4.1-.09-3.05-.07-5.61-.26-8.63-.47-4.78-.33-9.47-1.26-14.22-1.81-4.21-.49-8.27-1.71-12.33-2.88-.38-.11-.77-.19-1.17-.26-.35-.06-.61.06-.74.42-.56,1.55.14,3.27,1.71,3.9,1.26.5,2.57.85,3.86,1.28,9.54,3.17,19.43,4.39,29.38,5.19,2.94.24,6.15.32,9.11.32ZM156.42,90.37h-.04c0-10.47,0-20.94,0-31.41,0-4.08,0-8.15.03-12.23,0-.97-.3-1.78-1.21-2.14-1.07-.43-2.19-.47-3.19.23-.5.35-.67.89-.5,1.49.39,1.39.34,2.83.36,4.25.17,11.79.08,23.59.44,35.39.26,8.38.1,16.78.16,25.17.05,7.66-.16,15.32.35,22.97.08,1.26.42,1.59,1.77,1.66,1.42.07,1.83-.21,1.87-1.5.05-1.44-.03-2.88-.03-4.31,0-13.18,0-26.37,0-39.55ZM162.31,72.03c0-8.31,0-16.62,0-24.93,0-1.94-.52-2.42-2.41-2.28-1.44.11-2,.62-2.11,2.06-.07.95-.04,1.92-.04,2.88.03,6.71.07,13.41.09,20.12.01,3.59-.02,7.18,0,10.77.03,3.54.15,7.09.16,10.63,0,3.38-.14,6.76-.15,10.15,0,1.91.14,3.81.19,5.72.14,5.38-.21,10.76-.04,16.16.11,3.38.29,6.81-.09,10.21-.2,1.74.75,2.46,2.46,2.16.88-.15,1.48-.55,1.4-1.58-.03-.4.02-.8.02-1.2.06-13.02-.05-26.03.25-39.05.17-7.27.27-16.9.27-21.81ZM147.17,120.07c0,.8,0,1.6,0,2.4.03,3.68.07,7.35.09,11.03,0,.68.08,1.18.91,1.43,2.42.74,2.93.39,2.95-2.19,0-.24,0-.48,0-.72-.02-8.06-.05-16.12-.25-24.18-.16-6.31-.08-12.62-.15-18.93-.13-12.29-.29-24.59-.44-36.88-.02-1.84-.02-3.68-.15-5.51-.11-1.65-.98-2.38-2.46-2.28-1.36.08-1.97.8-2.02,2.38-.02.64-.03,1.28,0,1.92.15,3.82.48,7.65.44,11.47-.09,9.19.54,18.36.53,27.55,0,1.52.03,3.03.06,4.55.13,5.57.29,11.13.38,16.7.06,3.75.08,8.39.11,11.27ZM174.74,49.54c0-1.04.03-2.08,0-3.11-.05-1.59-.72-2.15-2.27-1.98-1.63.18-2.25.93-2.36,2.69-.21,3.5-.1,7-.27,10.5-.4,8.44-.43,16.89-.55,25.34-.09,6.15-.07,12.31-.15,18.46-.02,1.83.09,3.69-.1,5.48-.28,2.56-.17,5.1-.22,7.64-.1,5.11-.2,9.13-.31,14.3.01,1.63,0,2.8.05,4.35,0,1.25.42,1.82,2.16,1.63,1.49-.16,1.59-.24,1.65-1.75.05-1.12-.04-2.24.03-3.35.62-9.96.21-19.95.76-29.92.35-6.29.28-12.61.46-18.91.3-10.45.63-20.9,1.14-31.35ZM174.4,114.39c-.12,3.51-.26,7.02-.35,10.52-.07,2.63-.07,5.27-.08,7.9,0,.45-.08,1.01.48,1.23,1.35.53,3.14-.64,3.21-2.11.14-2.63.3-5.26.35-7.89.09-5.18.28-10.35.42-15.52.25-9.25.68-18.5.95-27.75.25-8.7.8-17.38,1.09-26.08.1-2.94.28-5.89.41-8.83.02-.53.2-1.14-.35-1.55-.87-.63-1.82-.5-2.75-.23-.83.24-1.36.75-1.41,1.7-.08,1.51-.29,3.02-.34,4.53-.16,4.38-.18,8.76-.43,13.14-.27,4.77-.16,9.56-.41,14.33-.37,6.93-.21,13.87-.55,20.81-.25,5.25-.2,14.56-.22,15.79ZM141.92,123.63c0,1.94-.02,5.21.01,8.49.02,1.54.28,1.81,1.69,2.15,1.85.45,2.24.15,2.23-1.86-.02-3.11-.18-6.22-.26-9.33-.28-10.86-.13-21.72-.51-32.59-.29-8.46-.36-16.93-.51-25.39-.11-6.39-.49-12.78-.59-19.17-.03-1.73-.73-2.19-2.72-2.07-1.57.09-1.82.34-1.77,2.12.12,3.67.29,7.34.42,11,.06,1.6-.03,3.21.13,4.79.62,6.28.31,12.59.73,18.89.38,5.57.27,11.17.42,16.76.21,8.29.46,16.58.73,26.21ZM136.16,111.03c-.17,3.83.34,7.96.38,12.11.02,2.56.05,5.11.1,7.67.04,1.88.07,1.88,2,2.26,1.79.35,1.87.31,1.9-1.58.04-2.48-.2-4.95-.27-7.42-.2-6.7-.18-13.41-.49-20.11-.27-5.9-.18-11.81-.47-17.71-.29-5.81-.25-11.64-.54-17.46-.32-6.53-.39-13.07-.62-19.61-.05-1.5.06-3.03-.32-4.51-.34-1.34-1.42-2.17-2.75-2.11-1.32.05-1.93.67-1.74,1.96.54,3.64.45,7.32.66,10.97.42,7.24.67,14.5.96,21.75.21,5.49.45,10.99.6,16.49.16,5.66.38,11.32.58,17.3ZM163.51,104.24c-.02,1.29-.12,19.5-.12,29.24,0,.4.04.8.09,1.19.04.35.27.53.61.64,1.89.57,2.94-.12,2.98-2.06.13-6.44.27-12.89.35-19.34.12-9.34.09-18.68.31-28.01.17-7.03.29-14.06.32-21.09,0-1.12.09-2.23.16-3.35.3-4.78.26-9.58.28-14.37,0-1.6-1.49-2.54-2.99-2.02-1.05.36-1.53,1.14-1.54,2.66-.15,12.6-.32,25.2-.44,37.8-.06,6.23,0,12.46,0,18.69ZM186.46,53.4c.02-.52.37-5.89.57-8.84.05-.79-.35-1.2-1-1.42-1.68-.58-3.62.67-3.7,2.46-.12,2.55,0,5.13-.26,7.66-.54,5.32-.24,10.67-.78,16-.28,2.76-.18,5.56-.29,8.34-.22,5.58-.52,11.15-.7,16.73-.15,4.7-.26,9.39-.39,14.09-.19,6.77-.47,13.55-.62,20.32-.03,1.12-.01,2.24,0,3.35,0,.43.21.75.69.82,1.62.23,2.83-.85,2.97-2.47.46-5.25.4-10.52.71-15.78.32-5.5.31-11.02.64-16.52.11-1.83.02-3.68.11-5.51.42-8.29.87-16.58,1.3-24.88.25-4.78.5-9.57.74-14.35ZM134.4,104.69h.04c-.15-2.95-.32-5.9-.44-8.85-.21-5.66-.36-11.33-.59-16.99-.26-6.3-.58-12.6-.86-18.9-.23-5.19-.42-10.37-.65-15.56-.09-1.99-.73-2.74-2.59-3.12-1.35-.27-1.89.17-1.93,1.61-.01.4.02.8.04,1.2.32,5.81.65,11.63.95,17.44.07,1.36.03,2.72.11,4.07.41,7.08.99,14.16,1.23,21.25.17,5.18.53,10.35.62,15.53.04,2.22.26,4.43.27,6.66.03,4.38.39,8.76.6,13.14.13,2.63.2,5.26.37,7.89.07,1.01,2.23,2.14,3.13,1.73.37-.17.38-.5.4-.8.05-.8.08-1.6.05-2.39-.07-1.98-.2-3.96-.26-5.95-.19-5.99-.35-11.98-.53-17.96ZM129.63,120.03c-.14-2.22-.33-4.52-.42-6.87-.25-5.5-.49-11.02-.63-16.53-.03-1.2-.04-2.4-.1-3.6-.42-8.53-.86-17.06-1.28-25.58-.05-1.04-.07-2.08-.13-3.12-.27-4.78-.55-9.55-.82-14.33-.15-2.63-.3-5.26-.47-7.89-.1-1.6-1.94-3.08-3.51-2.8-1.07.18-1.06,1-1,1.85.31,4.7.61,9.4.92,14.1.31,4.85.65,9.71.93,14.56.37,6.45.64,12.91,1.06,19.35.23,3.5.38,6.99.52,10.49.18,4.46.59,8.91.84,13.37.24,4.3.4,8.6.61,12.9.04.8.14,1.59.26,2.38.18,1.26,1.38,2.13,2.8,1.87,1.14-.21.72-1.24.76-1.97.05-.72-.08-1.7-.1-2.54-.06-2.02-.08-3.52-.23-5.65ZM184.6,126.64c-.04,1-.04,2.72-.04,4.08,0,.32.04.65.37.81,1.08.53,3.13-.67,3.22-1.94.18-2.39.35-4.77.45-7.17.21-4.79.33-9.57.58-14.36.41-7.89.91-15.78,1.35-23.67.21-3.67.35-7.34.58-11.01.23-3.58.57-7.16.81-10.74.33-4.86.61-9.72.9-14.57.09-1.52.14-3.03.22-4.55.03-.58,0-1.13-.61-1.43-1.81-.87-3.79.29-3.97,2.33-.06.72-.07,1.44-.1,2.15-.17,3.66-.2,7.34-.56,10.98-.51,5.17-.44,10.36-.86,15.53-.44,5.4-.53,10.82-.76,16.23-.23,5.34-.45,10.68-.68,16.03-.3,7.1-.61,14.19-.92,21.29ZM189.88,126.09c-.02.58-.04,1.28-.04,1.92-.01,2.05.26,2.2,2.15,1.54,1.1-.38,1.4-1.12,1.46-2.18.27-4.86.61-9.71.89-14.57.23-3.83.37-7.66.63-11.48.37-5.49.83-10.97,1.23-16.46.34-4.69.63-9.39.95-14.09.34-4.85.69-9.71,1.05-14.56.26-3.5.54-7,.79-10.5.09-1.27.21-2.55.2-3.83,0-1.09-.41-1.37-1.53-1.3-2,.11-2.85.91-3,2.92-.32,4.21-.61,8.42-.91,12.63-.32,4.53-.69,9.06-.92,13.6-.29,5.65-.59,11.3-.97,16.95-.49,7.31-.75,14.64-1.11,21.97-.29,5.81-.58,11.62-.88,17.44ZM158.33,142.59c3.03-.03,6.06-.2,9.09-.41,4.4-.31,8.67-1.2,12.97-2.05,4.57-.91,8.73-3.03,13.15-4.36,1.44-.43,2.11-1.62,2.21-3.12.11-1.6-.24-1.91-1.71-1.31-3.26,1.34-6.66,2.29-10.05,3.09-7.13,1.68-14.32,3.14-21.71,3.1-7.41-.04-14.81.23-22.11-1.83-3.91-1.1-7.89-1.93-11.74-3.27-1.05-.37-2.15-.6-3.22-.91-.36-.1-.74,0-.73.33.03.95.08,1.93.3,2.85.16.68.93.82,1.51,1.06,4.63,1.95,9.31,3.71,14.25,4.76,5.88,1.24,11.79,2.1,17.81,2.06ZM195.21,123.87c-.02.91-.11,2.45-.07,3.33.02.49.33.65.82.52,1.06-.3,1.52-1.08,1.77-2.07.69-2.72.74-5.42.98-8.35.33-3.93.38-6.61.68-10.1.16-1.9.35-3.81.51-5.94.64-6.62,1.41-13.28,2-19.87.61-6.76,1.34-13.5,1.73-20.28.39-6.69,1.12-13.36,1.69-20.04.05-.55,0-1.12-.03-1.67-.02-.35-.24-.55-.59-.65-1.57-.43-3.75,1.01-3.87,2.61-.31,3.89-.59,7.78-.86,11.68-.23,3.34-.4,6.69-.65,10.03-.39,5.16-.91,10.32-1.22,15.49-.19,3.03-.51,6.04-.61,9.07-.15,4.53-.58,9.06-.87,13.59-.23,3.58-.41,7.17-.65,10.75-.28,4.2-.71,10.81-.76,11.92ZM123.91,109.81c-.32-4.77-.69-9.54-.96-14.32-.38-6.69-.67-13.39-1.05-20.08-.45-7.88-.97-15.76-1.45-23.65-.21-3.42-.37-6.85-.58-10.27-.03-.47-.2-.94-.22-1.41-.06-1.4-1.05-1.91-2.16-2.23-1.25-.36-1.96.19-1.99,1.54-.04,2.07.12,4.13.32,6.2.47,5,1,9.99,1.19,15.02.21,5.56.83,11.11,1.24,16.66.35,4.69.6,9.38.99,14.07.53,6.35.82,12.72,1.47,19.07.47,4.59.63,9.21.93,13.82.05.8.12,1.59.44,2.34.33.77.84,1.34,1.63,1.65.54.21.95.2.97-.5.02-.8.01-1.6-.03-2.4-.29-5.17-.7-15.08-.74-15.52Z"/>
          <path d="M202.95,17.07c-1.3-.18-2.31-1.05-3.48-1.54-4.91-2.03-10.1-2.95-15.29-3.71-8.44-1.23-16.96-1.81-25.5-1.45-6.92.29-13.87.34-20.7,1.7-1.48.29-3,.36-4.51.52-.22.02-.53.03-.55-.26-.02-.27.27-.35.5-.39,3.67-.73,7.26-1.74,11.03-2.06,5.57-.48,11.13-.87,16.72-.85,7.82.03,15.6.55,23.34,1.79,5.22.84,10.31,2.06,15.22,4.02,1.22.49,2.29.91,3.2,2.18l.02.05Z"/>
        </g>
        <g>
          <path d="M46.41,18.13c7.04.05,13.76.17,20.42,1.03,6.4.83,12.82,1.7,18.88,4.17,1.57.64,3.03,1.44,4.39,2.42,1.79,1.28,2.71,3.1,2.84,5.3.12,2.15.19,5.29-.36,7.42-.29,1.13-.71,2.13-1.63,2.85-.61.48-.96,1-.99,1.8-.22,5.43-.79,10.83-1.05,16.26-.27,5.49-.5,11-1.14,16.48-.4,3.41-.48,6.85-.75,10.28-.28,3.58-.6,7.16-.95,10.73-.43,4.53-.95,9.05-1.34,13.58-.41,4.6-.75,9.21-1.05,13.82-.23,3.41-.45,6.83-.49,10.25-.04,3.19-2.25,5.11-4.52,5.82-3.95,1.24-7.85,2.63-11.91,3.56-4.69,1.07-9.43,1.64-14.22,1.8-1.84.06-3.65.28-5.48.37-7.42.35-14.61-1.14-21.72-2.98-3.45-.9-6.81-2.22-10.07-3.74-1.37-.64-2.13-1.69-2.21-3.16-.14-2.79-.53-5.55-.67-8.34-.26-5.5-.85-10.97-1.27-16.46-.21-2.78-.35-5.57-.55-8.35-.48-6.69-1.06-13.37-1.41-20.07-.19-3.5-.36-7.02-.6-10.52-.23-3.34-.28-6.69-.72-10.03-.33-2.52-.38-5.09-.51-7.64-.17-3.35-.73-6.67-.62-10.04.05-1.41-.21-2.65-1.6-3.47-.84-.49-1.19-1.41-1.47-2.38-.84-2.83-.69-6.67-.17-9.51.32-1.75,1.55-2.95,2.98-3.9,2.48-1.64,5.18-2.79,8.07-3.53,4.34-1.1,8.71-1.92,13.16-2.51,6.34-.83,12.69-1.18,18.74-1.33ZM80.45,44.51h-.04c-.38.47-.94.63-1.47.74-3.9.83-7.78,1.87-11.72,2.39-8.79,1.14-17.64,1.51-26.52,1.22-6.88-.23-13.66-1.37-20.46-2.36-3.17-.46-6.21-1.45-9.3-2.26-1.19-.31-1.46-.07-1.37,1.09.26,3.34.51,6.68.79,10.01.39,4.61.87,9.22,1.09,13.85.26,5.49.82,10.97,1.22,16.46.3,4.14.52,8.28.82,12.42.34,4.69.74,9.38,1.1,14.08.34,4.45.52,8.93,1.02,13.36.34,3.01.32,6.06.9,9.05.19,1,.62,1.56,1.5,1.93,3.68,1.55,7.39,3.01,11.3,3.88,4.05.9,8.15,1.43,12.29,1.85,6.59.67,13.08.08,19.55-.89,5.62-.84,11-2.68,16.29-4.74,1.34-.52,2.1-1.41,2.19-2.83.16-2.47.32-4.94.46-7.41.22-3.9.29-7.82.65-11.71.8-8.57,1.8-17.13,2.63-25.7.62-6.36,1.03-12.73,1.67-19.08.23-2.31.31-4.62.55-6.93.59-5.64,1.09-11.28,1.3-16.94.1-2.59.11-2.58-2.51-2.18-.21.03-.53.1-.54-.19,0-.15.27-.38.46-.47,1.31-.61,2.55-1.34,3.64-2.29.84-.74,1.65-1.54,1.78-2.75.04-.39.1-1.87-.29-2.06-.23-.11-.64.03-.9.18-4.06,2.19-8.51,3.25-12.96,4.17-7.83,1.62-15.82,2.02-23.8,2.36-3.67.16-7.34-.08-11.01-.2-5.04-.16-10.06-.46-15.01-1.28-6.3-1.04-12.61-2.13-18.37-5.15-.07-.04-.14-.08-.21-.11-.29-.12-.69-.33-.84.06-.12.33-.16,1.04-.06,1.67.28,1.17,1.04,1.95,2.1,2.47,1.65.81,3.34,1.5,5.09,2.08,6.49,2.17,13.24,2.9,19.96,3.74,5.71.71,11.46.98,17.22.95,4.96-.02,9.92-.22,14.85-.67,5-.46,9.97-1.21,14.96-1.84ZM45.55,39.74c5.52.19,11.18.07,16.82-.48,2.62-.25,5.23-.58,7.84-.91,4.05-.5,8.02-1.43,11.92-2.56,2.5-.73,5-1.7,6.94-3.62,1.11-1.09,1.16-1.89.26-3.17-.66-.95-1.62-1.57-2.63-2.03-2.11-.94-4.25-1.8-6.51-2.38-6.51-1.68-13.15-2.55-19.82-3.17-3.09-.28-6.14-.46-9.28-.5-2.06-.06-3.57-.07-5.64-.04-1.03.01-2.54.02-3.65.07-3.04.18-5.71.47-8.56.72-3.82.33-7.59.84-11.35,1.56-4,.76-7.93,1.78-11.67,3.46-1.1.49-2.15,1.08-2.98,1.97-1.08,1.14-1.09,2.47-.02,3.63.48.52,1.01,1.1,1.64,1.36,1.47.61,2.86,1.37,4.39,1.87,5.18,1.67,10.52,2.61,15.9,3.3,5.38.69,10.8,1.03,16.39.93Z"/>
          <path d="M36.66,55c-7.22-.25-14.25-1.64-21.22-3.42-.3-.08-.6-.22-.84-.41-.26-.19-.45-.51-.23-.83.12-.17.39-.31.59-.3.31,0,.62.12.92.23,5.38,1.89,10.98,2.69,16.59,3.52,2.68.39,5.36.8,8.08.86.15,0,.43.1.43.12-.03.3-.3.22-.48.22-1.28.01-2.56,0-3.84,0Z"/>
          <path d="M54.4,136.98c-.63.05-1.26.23-1.89.01.52-.53,1.28-.46,1.88-.52,4.22-.42,8.3-1.45,12.37-2.53,2.24-.59,4.41-1.34,6.49-2.36.93-.46,1.86-.92,2.91-1.01.32-.03.64.06.76.43.12.37-.09.62-.38.78-.42.23-.85.44-1.29.61-6.72,2.59-13.66,4.2-20.86,4.6Z"/>
          <path d="M60.82,130.81c-.25-.04-.64.19-.73-.2-.02-.08.47-.38.76-.45,4.88-1.17,9.57-2.87,14.07-5.08.28-.14.6-.23.9-.23.2,0,.48.15.57.31.09.16.05.5-.07.64-.26.28-.59.55-.94.71-4.66,2.06-9.48,3.59-14.56,4.3Z"/>
          <path d="M30.54,59.8c-4.83-.39-9.77-1.21-14.53-2.97-.45-.17-.94-.25-1.22-.69-.14-.22-.07-.54.2-.57.56-.07,1.09.11,1.63.3,4.84,1.66,9.77,2.93,14.91,3.24.39.02.78.15,1.16.26.16.05.5-.01.4.32-.02.07-.29.09-.45.1-.64.01-1.28,0-2.11,0Z"/>
          <path d="M64.95,123.98c-.11-.07-.32-.13-.33-.22-.04-.28.2-.37.43-.45,1.64-.59,3.29-1.16,4.92-1.77,1.41-.53,2.79-1.13,4.1-1.9.4-.24.85-.41,1.3-.55.3-.09.64-.04.8.31.15.34-.02.64-.25.85-.22.21-.51.38-.79.5-3.14,1.35-6.33,2.54-9.68,3.23-.15.03-.32,0-.49,0Z"/>
          <path d="M67.21,117.07c-.16.02-.42.02-.44-.07-.13-.44.29-.55.54-.63,2.94-.97,5.76-2.23,8.48-3.72.14-.08.28-.16.42-.21.23-.07.48-.07.65.14.24.28.2.58-.04.84-.16.17-.33.35-.53.47-2.8,1.75-5.89,2.49-9.07,3.18Z"/>
          <polygon points="80.45 44.51 80.52 44.42 80.42 44.51 80.45 44.51"/>
          <path d="M86.19,30.36c0,.12.05.24.01.27-.24.19-.43-.03-.61-.13-2.73-1.56-5.7-2.47-8.75-3.15-4.83-1.06-9.71-1.77-14.64-2.2-4.94-.43-9.89-.53-14.84-.44-5.27.09-10.53.34-15.76.96-2.21.26-4.39.8-6.63.92-.31.02-.62-.06-.93-.09.18-.43.6-.48.98-.58,5.68-1.39,11.45-1.92,17.28-2.22,7.68-.39,15.33-.1,22.94.8,5.86.69,11.69,1.67,17.23,3.86,1.11.44,2.24.85,3.23,1.55.19.14.35.32.5.46Z"/>
        </g>
      </g>
    </g>
  </g>
</svg>