<?xml version="1.0" encoding="UTF-8"?>
<svg xmlns="http://www.w3.org/2000/svg" baseProfile="tiny" version="1.2" viewBox="0 0 179.6 164.76">
  <!-- Generator: Adobe Illustrator 28.6.0, SVG Export Plug-In . SVG Version: 1.2.0 Build 709)  -->
  <g>
    <g id="Layer_1">
      <g>
        <g>
          <path d="M42.57,162.75c-1.71-.06-2.52-.08-3.57-.16-3.66-.27-7.23-1.01-10.84-1.55-4.34-.66-8.42-2.01-12.33-3.93-1.45-.71-2.76-1.63-3.97-2.72-1.9-1.72-2.03-4.05-2.26-6.33-.28-2.73-.5-5.46-.73-8.2-.19-2.26-.5-4.52-.51-6.78-.02-2.75-.2-5.51-.45-8.23-.3-3.23-.46-6.48-.84-9.71-.45-3.78-.66-7.58-.93-11.37-.05-.66-.19-1.06-.85-1.34-1.55-.66-2.05-2.09-2.43-3.58-.63-2.44-.51-4.89.11-7.3.39-1.52,1.59-2.43,2.87-3.16.46-.26.7-.56.83-1.04.42-1.51,1.02-2.92,2.45-3.77.33-.2.34-.45.27-.75-.82-3.37,1.14-6.79,4.39-7.98.58-.21,1.11-.57,1.75-.59,1.02-.03,1.15-1.01,1.7-1.55.67-.65.67-1.29.23-2.1-1.26-2.34-1.48-4.71.05-7.06,1.02-1.57,2.52-2.5,4.18-3.24,1.13-.5,1.4-1.43.77-2.5-2.12-3.62-1.22-8.77,1.54-11.85.3-.33.46-.61.48-1.01.19-2.8.87-5.47,2.18-7.97,1.19-2.28,3.03-4.02,4.82-5.8,2.78-2.76,5.5-5.52,7.18-9.19,1.47-3.2,2.78-6.44,4-9.74,1.13-3.09,2.78-5.9,5.2-8.16,1.36-1.26,3.01-2.08,4.93-2.13,1.29-.03,2.39.45,3.02,1.61.54.98.14,2.19-.91,3.25-.81.82-1.78,1.48-2.02,2.77-.3,1.56.35,2.89.88,4.21,1.38,3.45,3.05,6.77,4.96,9.97,2.68,4.49,4.65,9.26,5.19,14.5.3,2.86-.26,5.69-1.11,8.42-.25.82-.37,1.29.61,1.74,3.05,1.41,4.57,4.5,4.08,7.94-.08.58-.09,1.04.71,1.32,1.58.54,3.21,1.08,4.3,2.5.27.36.67.38,1.09.39,2.15.05,4.16.61,5.64,2.24,1.44,1.59,2.06,3.5,1.55,5.67-.06.25-.18.48-.25.72q-.52,1.81,1.1,2.83c1.62,1.03,2.02,2.9.81,4.59-.56.78-.26,1.21.03,1.97.7,1.84,2.47,1.69,3.78,2.34,2.05,1.02,3.7,2.36,4.35,4.64.22.76.58,1.23,1.37,1.51.89.31,1.73.8,2.55,1.29,1.91,1.15,2.95,2.87,3.13,5.1.14,1.82.11,3.6-.36,5.4-.35,1.33-.94,2.38-2.06,3.11-.46.3-.63.62-.66,1.15-.2,3.86-.46,7.71-.85,11.56-.32,3.19-.35,6.41-.72,9.6-.37,3.16-.45,6.34-.98,9.49-.31,1.86-.32,3.77-.55,5.65-.47,3.81-.46,7.66-1.1,11.46-.36,2.16-1.8,3.47-3.43,4.61-3.5,2.44-7.5,3.75-11.58,4.76-4.76,1.17-9.62,1.7-14.51,2.08-3.05.23-6.11.37-9.17.4-.4,0-1.19.06-2.49.06-2.79,0-3.88.04-6.67-.04ZM83.42,105.04h0c-2.61.69-5.28,1.07-7.94,1.55-3.74.68-7.5,1.13-11.28,1.45-3.98.33-7.98.48-11.97.53-3.91.05-7.83.3-11.74-.05-3.78-.34-7.57-.47-11.33-1.08-2.23-.36-4.5-.48-6.75-.76-4.15-.53-8.21-1.5-12.25-2.55-.99-.26-1.14-.07-.98.96.16,1.01.31,2.03.32,3.04.03,2.44.17,4.88.51,7.28.63,4.49.99,9,1.22,13.51.17,3.35.54,6.68.72,10.02.18,3.41.52,6.85,1.09,10.24.21,1.26.67,2.41,1.64,3.23,2.08,1.77,4.47,3.03,7.07,3.81,7.21,2.16,14.64,3.05,22.12,3.49,4.26.25,8.53.12,12.8-.15,4.94-.31,9.82-.95,14.68-1.82,3.96-.71,7.89-1.52,11.46-3.51,2.49-1.38,4.58-2.98,4.71-6.19.03-.75.02-1.52.12-2.28.34-2.53.57-5.07.88-7.6.52-4.2.91-8.42,1.3-12.64.41-4.59.97-9.16,1.3-13.75.18-2.47.3-4.95.46-7.42.05-.8-.25-1.08-1.04-.88-.67.17-1.35.29-2.03.43-.14.03-.27.06-.4.09.12-.14.23-.22.36-.28,1.2-.54,2.37-1.12,3.48-1.83,1.54-.97,2.58-2.22,2.79-4.09.06-.54-.04-.72-.57-.47-.86.41-1.7.85-2.58,1.2-3.13,1.25-6.43,1.91-9.69,2.67-4.96,1.17-10.04,1.62-15.1,1.95-3.23.21-6.46.56-9.72.56-2.32,0-4.67.13-7,.13-4.61,0-9.22-.13-13.82-.42-3.48-.22-6.95-.56-10.41-.97-3.34-.4-6.61-1.17-9.9-1.84-3.35-.68-6.63-1.55-9.66-3.18-.22-.12-.45-.31-.7-.1-.29.25-.31.62-.19.92.36.89.77,1.72,1.69,2.22,4.34,2.38,9.19,3.05,13.91,4.12,1.99.45,4.05.58,6.09.81,3.48.38,6.95.92,10.45,1.17,4.75.34,9.5.54,14.26.52,5.28-.03,10.56-.09,15.83-.5,5.27-.42,10.53-.87,15.76-1.58ZM42.14,51.57c-.18,1.62.27,3.12,1.62,4.33,2.46,2.22,5.48,3.41,8.46,4.67,1.73.73,3.34,1.65,4.63,3.01.39.41.62.53,1.18.4,3.97-.9,7.8-2.36,11.84-2.97.62-.09.49-.34.13-.69-.9-.89-2.07-1.07-3.22-1.16-2.98-.24-5.95-.43-8.79-1.56-3.29-1.32-6.35-3.01-8.97-5.4-1.01-.92-1.82-2.01-2.04-3.43-.08-.51,0-.97.38-1.31.38-.34.85-.2,1.22.03.84.52,1.66,1.06,2.46,1.64,1.76,1.26,3.27,1.37,4.61.32,1.86-1.45,2.99-3.36,3.59-5.61.82-3.09.71-6.21.47-9.36-.36-4.74-1.56-9.16-4-13.28-1.69-2.86-3.14-5.85-4.04-9.08-.76-2.71-.36-4.03,1.85-5.75.49-.38.97-.8,1.22-1.39.13-.3.22-.59-.03-.92-.69-.89-2.52-.99-3.22-.1-.7.89-1.27,1.85-1.64,2.94-1.17,3.46-.93,6.96-.32,10.46.66,3.77,1.85,7.39,2.99,11.03.63,2,1.06,4.02.85,6.13-.18,1.78-.59,3.43-1.81,4.91-1.84,2.23-4.15,3.89-6.38,5.64-2.12,1.66-3.25,3.69-3.06,6.5ZM21.15,79.65c-1.15-.16-2.14.27-2.45,1.36-.3,1.06.49,1.8,1.36,2.36,3.61,2.34,7.51,3.87,11.78,4.64,4.55.82,9.11,1.56,13.72,1.85,3.03.19,6.08.47,9.11.24,4.01-.31,8.02-.25,12.02-.26,3.13,0,6.27.17,9.38.71,3.43.6,6.8,1.38,9.8,3.19.89.54,1.42.35,2.14-.11.69-.44,1.62-.54,1.88-1.53.11-.43.07-.76-.24-1.1-.58-.62-1.17-1.21-1.87-1.69-2.61-1.77-5.5-2.76-8.58-3.35-3.62-.69-7.22-1.26-10.93-1.34-1.89-.04-3.77.02-5.65.1-5.54.23-10.98-.78-16.44-1.37-4.45-.48-8.81-1.54-13.21-2.34-3.91-.72-7.84-1.17-11.82-1.37ZM51.37,64.73c1.04-.04,2.12.21,3.15-.13.25-.08.68.11.74-.27.04-.29-.3-.45-.53-.64-1.88-1.51-4.22-2.15-6.3-3.29-1.89-1.04-3.92-1.88-5.48-3.4-2.81-2.75-2.48-7.37-.86-10.1,1.13-1.9,2.95-3.11,4.65-4.44,1.88-1.47,3.79-2.91,4.85-5.14,1.37-2.87.93-5.81.13-8.69-1.26-4.57-2.75-9.07-3.14-13.85-.29-3.5-.07-6.86,1.85-9.92.09-.15.28-.32.08-.46-.1-.07-.36,0-.48.09-.72.55-1.45,1.08-1.83,1.97-1.56,3.73-2.02,7.64-1.89,11.64.12,3.81.18,7.63-.93,11.31-1.1,3.66-3.29,6.71-5.84,9.52-2.66,2.93-4.1,6.46-4.42,10.35-.37,4.5,1.25,8.41,4.19,11.8.18.2.38.33.66.35,1.7.15,3.22.85,4.76,1.52,2.11.92,4.09,2.39,6.63,1.76ZM81.29,74.71c0-.99-.53-1.51-1.17-1.9-1.71-1.04-3.59-1.42-5.56-1.08-2.24.39-4.47.54-6.74.42-5.19-.27-9.98-1.97-14.7-3.97-3.7-1.57-7.04-3.85-10.78-5.34-2.87-1.14-5.72-1.8-8.47.29-.33.25-.58.04-.79-.1-1.99-1.41-3.6-3.19-4.85-5.27-1.71-2.85-2.76-5.93-3.22-9.22-.02-.16.08-.41-.2-.42-.21,0-.27.2-.37.36-1.58,2.68-1.65,6.59.06,9.35,1.61,2.59,3.68,4.67,6.08,6.54,4.68,3.67,9.75,6.65,15.19,9.02,4.35,1.9,8.86,3.1,13.63,3.29,4.45.17,8.8-.6,13.18-1.25,2.5-.37,5-.44,7.28,1.01.19.12.5.36.67.03.3-.61.86-1.13.76-1.75ZM46.83,7.9c-.09.11-.19.22-.26.34-.49.9-1.07,1.76-1.45,2.7-1.53,3.8-2.71,7.73-4.58,11.41-1.36,2.69-2.87,5.24-5,7.39-1.6,1.61-3.2,3.23-4.76,4.88-2.99,3.15-4.2,6.98-4.28,11.24-.06,2.99.6,5.84,1.53,8.66,1.03,3.16,2.93,5.66,5.53,7.67.28.21.5.2.79.02.79-.47,1.66-.78,2.56-.93.72-.12.54-.41.25-.77-.67-.84-1.06-1.83-1.48-2.81-2.57-5.87-2.07-11.5,1.2-16.97.95-1.6,2.25-2.88,3.4-4.3,3.42-4.24,5.45-8.97,5.36-14.5-.08-4.58-.26-9.16,1.44-13.55.07-.18.13-.42-.23-.49ZM80.55,96.21c1.31-.3,2.63-.55,3.85-1.16.37-.18.27-.36-.03-.51-.85-.42-1.67-.91-2.56-1.23-3.9-1.45-8-1.94-12.11-2.19-2.98-.18-5.98-.05-8.97-.23-2.22-.13-4.46.09-6.69.15-5.19.15-10.36-.3-15.51-1.02-4.87-.68-9.73-1.34-14.28-3.36-1.97-.87-3.98-1.71-5.52-3.28-1.17-1.19-1.57-2.4-.38-3.65.44-.46.23-.73-.12-1.09-.68-.69-1.21-1.48-1.13-2.52.05-.68-.24-.72-.79-.5-1.18.47-1.95,1.36-2.63,2.37-.59.88-.69,1.76-.29,2.77.61,1.53,1.54,2.81,2.76,3.9,2.51,2.24,5.39,3.85,8.46,5.17,6.18,2.66,12.64,4.18,19.32,4.64,3.01.21,6.03.38,9.07.09,2.8-.27,5.63-.12,8.45-.22,6.07-.22,12.14-.22,18.03,1.68.34.11.71.12,1.07.18ZM69.79,100.63c2.21-.23,3.97-.46,5.77-.74,2.97-.39,5.9-1.03,8.84-1.63,2.34-.48,4.56-1.29,6.75-2.21.34-.14,1.01-.27.51-.9-.34-.43-.48-1.16-1.41-.7-1.76.88-3.68,1.36-5.57,1.93-5.33,1.61-10.84,2.16-16.34,2.61-3.71.3-7.44.41-11.16.45-4.1.05-8.18-.29-12.27-.59-2.15-.16-4.3-.33-6.43-.56-3.17-.34-6.24-1.36-9.41-1.82-2.26-.33-4.51-.8-6.81-.76-3.61.06-7.17-.26-10.61-1.47-.55-.19-1.18-.56-1.33.39-.11.72-.92,1.58.42,2.09,3.82,1.43,7.82,2.17,11.82,2.83,3.41.56,6.85,1.02,10.31,1.28,2.91.21,5.83.35,8.75.46,3.18.13,6.37.06,9.55.23,2.23.12,4.47-.13,6.71-.14,2.02-.01,4.02-.17,6.03-.34,2.07-.17,4.08-.27,5.88-.42ZM57.77,98.53c4.99-.14,9.71-.22,14.42-.72,1.48-.16,2.96-.44,4.43-.68.24-.04.5-.12.64-.36-.2-.08-.39-.17-.59-.24-1.91-.67-3.92-.82-5.91-1.01-4-.36-8.01-.12-12.01-.1-3.83.02-7.66.12-11.49.09-3.11-.02-6.21-.34-9.23-.97-5.49-1.14-10.9-2.64-15.94-5.22-2.92-1.5-5.74-3.15-7.77-5.8-1.44-1.88-2.67-3.88-.69-6.2.08-.09.13-.34.08-.38-.2-.17-.3.08-.42.17-1.62,1.16-2.38,4.34-1.75,6.07.93,2.56,2.88,4.28,4.89,5.78,3.19,2.39,6.96,3.79,10.64,5.28,4.97,2.01,10.2,2.87,15.52,3.4,5.14.51,10.29.74,15.18.89ZM54.63,81.85c.27-.05.49-.06.7-.13,1.67-.54,3.4-.76,5.12-1.08.17-.03.33-.09.5-.14-.07-.24-.28-.33-.49-.39-3.23-.88-6.36-2.04-9.44-3.34-3.09-1.3-6.17-2.61-9.14-4.17-2.58-1.35-5.14-2.74-7.6-4.33-2.27-1.47-4.46-3.02-6.56-4.73-1.03-.85-1.84-1.87-2.75-2.83-.23-.25-.64-.69-.8-.07-.31,1.21-.68,2.37-.35,3.73.73,2.98,2.89,4.74,5.04,6.54,4,3.36,8.92,4.87,13.7,6.62,3.82,1.4,7.85,2.25,11.51,4.11.19.1.41.15.56.21ZM50.03,82.9c.67,0,1.3-.22,1.93-.4.41-.12,1.14-.11,1.13-.46,0-.36-.69-.51-1.13-.67-3.65-1.34-7.45-2.21-11.13-3.47-4.91-1.69-9.73-3.51-13.79-6.87-2.67-2.21-4.8-4.74-4.61-8.5.03-.59-.18-.68-.69-.53-2.11.65-3.75,3.61-3.25,5.78.41,1.78,1.44,3.2,2.65,4.45,3.19,3.31,7.17,5.47,11.2,7.54.48.25.93.59,1.5.63,2.44.18,4.78.95,7.19,1.27,3,.4,6,.81,9,1.21ZM52.2,65.51c-.29,0-.59-.02-.88,0-.27.03-.72-.13-.78.17-.09.4.41.44.68.56,1.49.68,2.96,1.38,4.48,1.96,1.86.72,3.74,1.42,5.7,1.85,2.79.62,5.33-.15,7.86-1.25,1.72-.75,3.43-1.56,5.44-1.19,1.4.26,2.36,1.1,3.27,2.04.25.26.41.47.59,0,1.59-4.08-.65-7.16-4.59-7.61-3.85-.45-7.55.81-11.27,1.61-3.48.75-6.92,1.71-10.5,1.86ZM73.62,80.06c-2.97-.02-5.9.38-8.84.63-4.08.35-8.04,1.23-12.03,2.03-.22.05-.49.08-.47.35.03.29.33.2.53.22,3,.33,5.99.64,9.04.48,6.04-.3,12.07.07,18.02,1.28,2.43.49,4.83,1.09,7.02,2.31.42.24.83.82,1.33.38.49-.44.74-1.11.5-1.81-.52-1.51-1.46-2.7-2.88-3.44-3.83-1.99-7.99-2.39-12.21-2.43ZM63.39,57.58c.69-.04,1.69.32,1.92-.32.53-1.46.84-3.04.13-4.57-.96-2.07-2.54-3.17-4.78-3.77-1.78-.47-2.87-.26-4.07,1.14-1.29,1.51-3.17,1.5-4.82.43-1.07-.69-2.12-1.41-3.1-2.23-.21-.18-.43-.45-.76-.21-.39.29-.13.63,0,.88.35.64.67,1.34,1.18,1.84,3.98,3.91,8.82,6.05,14.29,6.82ZM78.98,79.29c.43-.03,1.22.29,1.44-.15.24-.49-.45-.9-.87-1.23-2.61-2.09-5.68-1.81-8.65-1.46-2.88.35-5.76.84-8.66.93-2.94.09-5.89-.21-8.76-.97-.2-.05-.42-.17-.55.08-.01.02.25.21.4.29,2.04,1.06,4.31,1.55,6.41,2.45,1.96.84,3.89,1.05,5.95.71,4.37-.72,8.76-1.07,13.29-.65ZM8.54,88.51c.13,2.06,1.36,3.39,2.98,4.32,2.53,1.45,5.38,1.66,8.21,1.88,1.6.12,3.22-.15,4.81.2.12.03.32.07.33-.12,0-.08-.2-.18-.32-.23-1.1-.49-2.21-.95-3.29-1.47-3.98-1.88-7.88-3.89-10.36-7.78-.27-.42-.52-.5-.95-.1-1,.91-1.27,2.08-1.42,3.29ZM18.13,75.52c-.03,1.97,1.62,3.53,3.43,3.58,2.77.07,5.5.5,8.24.82.31.04.75.21.86-.13.1-.3-.38-.38-.62-.5-3.42-1.73-6.8-3.53-9.55-6.28-.25-.25-.46-.43-.81-.1-.86.8-1.49,1.7-1.56,2.61ZM69.65,71.15c2.29.28,4.69-.6,7.16-.66.13,0,.33.01.34-.18.02-.27-.16-.45-.35-.64-1.34-1.28-2.95-1.73-4.69-1.24-2.22.63-4.4,1.42-6.59,2.15-.13.04-.35.16-.35.18.08.21.28.14.45.18,1.26.25,2.54.25,4.04.21ZM61.86,38.76c0-.95.08-1.91-.02-2.86-.2-2.01-.86-3.92-1.54-5.82-.05-.15-.24-.38-.35-.37-.23.02-.19.28-.14.43.48,1.59.5,3.23.67,4.86.42,3.94.12,7.78-1.28,11.51-.12.31-.47.71.21.93.54.18.74.04.99-.47,1.29-2.6,1.57-5.38,1.45-8.22ZM91.31,89.32c-.64-.05-.83.24-.6.42,1.28,1.01,1.2,2.85,2.43,3.87.27.22.3.89.86.54.47-.29.85-.75.81-1.34-.08-1.13-2.62-3.44-3.51-3.49ZM5.68,92.85c.02.69,1.34,2.31,1.87,2.42.18.04.27-.01.31-.18.25-1.15,1.14-2.24-.18-3.43-.91-.83-1.25-.94-1.76.24-.14.33-.18.7-.24.95Z"/>
          <path d="M57.51,154.54h-1.65c.66-.24,1.02-.27,1.52-.34,2.67-.38,5.35-.67,8.02-1.05,5.17-.72,10.22-1.92,15.11-3.77.68-.26,1.4-.41,2.11-.59.41-.11.96-.06,1.09.29.19.52-.39.62-.75.72-2.48.72-4.96,1.43-7.45,2.12-3.97,1.1-8.06,1.64-12.13,2.13-1.94.23-3.9.56-5.88.5Z"/>
          <path d="M40.05,114.23c-3.06-.1-6.12-.36-9.17-.58-4.94-.36-9.7-1.47-14.51-2.47-.53-.11-1.1-.08-1.61-.31-.25-.11-.58-.3-.5-.65.09-.4.48-.3.74-.26,1.49.21,2.85.85,4.33,1.15,4.14.84,8.29,1.62,12.51,1.96,3.68.29,7.33.91,11.03.85.17,0,.62-.02,1.03.11-.35.18-.6.15-.96.17-.96.04-1.94.03-2.89.03Z"/>
          <path d="M64.71,148.88c-.48.05-.75.04-.99.02.24-.21.47-.34.73-.38,4.52-.68,8.88-1.93,13.22-3.35,1.42-.46,2.77-1.1,4.19-1.54.51-.16,1.05-.17,1.21.3.15.44-.44.61-.79.73-3.55,1.19-7.11,2.37-10.8,3.06-2.32.43-4.65.8-6.77,1.16Z"/>
          <path d="M31.3,118.61c-3.31-.24-5.44-.49-8.7-1.13-2.36-.46-4.68-1.07-6.98-1.74-.33-.1-1.01-.07-.84-.62.16-.52.75-.14,1.03-.05,2.29.75,4.61,1.35,6.96,1.83,3.32.68,6.66,1.18,10.04,1.44.3.02.55.06.84.2-.25.09-.35.1-.61.11-.2.01-.76.02-1.75-.03Z"/>
          <path d="M70.17,142.44c-.33.03-.6.03-.74.03-.13,0-.26-.01-.4-.04.1-.09.31-.18.42-.19,2.62-.34,4.98-1.27,7.48-2.07,1.22-.39,2.4-.89,3.56-1.42.47-.22.95-.36,1.45-.46.34-.06.71-.21.85.19.14.42-.22.69-.57.81-1.06.38-2.14.75-3.22,1.06-1.89.54-3.76,1.09-5.68,1.55-1.18.26-1.99.36-3.14.52Z"/>
          <path d="M71.9,136.22c-.06,0-.23,0-.31-.02.23-.12.49-.18.65-.23,2.87-.82,5.72-1.71,8.48-2.86.71-.29,1.4-.62,2.1-.93.34-.15.75-.11.91.15.24.4-.23.55-.48.69-2.04,1.19-4.32,1.75-6.57,2.36-1.47.39-2.95.78-4.78.84Z"/>
          <path d="M58.02,37.51c.33,2.79-.8,5.45-2.22,8.03-.17.31-.4.79-.79.56-.43-.25-.01-.67.14-.95,1.52-2.8,2.44-5.78,2.59-8.97.02-.51-.02-1.02-.02-1.53,0-.17-.08-.45.12-.47.25-.02.18.26.19.43,0,.88,0,1.76,0,2.9Z"/>
          <path d="M68.98,86.14c4.3.1,8.93.73,13.41,2.27.72.25,1.42.56,1.96,1.12-.78.17-1.38-.33-2.04-.55-3.7-1.24-7.5-1.94-11.38-2.33-1.91-.19-3.78-.17-5.67.03-.2.02-.42-.04-.63-.06.1-.26.34-.2.55-.25,1.11-.3,2.25-.19,3.8-.23Z"/>
          <path d="M43.02,88.01c-1.76-.28-3.78-.54-5.77-.93-3.21-.62-6.41-1.27-9.5-2.39-.58-.21-1.16-.44-1.72-.69-.15-.07-.37-.32-.34-.37.13-.22.29-.02.45.03,2.94.96,5.89,1.89,8.92,2.56,2.63.58,5.29,1.02,7.94,1.48.25.04.49.1.74.16.14.03.28.06.42.09-.15.02-.31.05-.47.06-.15.01-.29,0-.69,0Z"/>
          <path d="M39,50.33c.11-2.06.73-3.94,1.93-5.63.15-.21.3-.42.5-.58.18-.15.37-.37.66-.29-.12.17-.24.35-.37.51-1.53,1.86-2.04,4.04-2,6.4,0,.4.24,1.09-.26,1.13-.43.04-.43-.68-.45-1.1,0-.15,0-.29,0-.44Z"/>
          <path d="M60.34,74.78c-3.48-.2-6.8-1.11-10.09-2.21-3.21-1.07-6.36-2.32-9.36-3.9-.43-.23-1.08-.27-1.18-.95.51.03.95.26,1.39.49,3.32,1.69,6.71,3.2,10.26,4.34,3.22,1.03,6.48,1.9,9.87,2.14.14.01.28.04.41.06-.14,0-.29.02-.43.02-.29,0-.59,0-.88,0Z"/>
          <path d="M29.05,46.94c.01-5.17,2.08-9.07,4.81-12.68,2.01-2.65,4.4-5,6.26-7.78.73-1.1,1.35-2.25,1.72-3.52.03-.1.08-.18.12-.28.01.1-.02.21-.03.31-.22,2.18-1.56,3.8-2.74,5.5-2.05,2.96-4.61,5.53-6.47,8.64-2.14,3.58-3.25,7.32-2.55,11.52.15.92.02,1.88.27,2.81.05.17-.02.36-.03.54-.2-.07-.24-.24-.3-.42-.61-1.65-1.04-3.34-1.07-4.64Z"/>
          <path d="M49.48,93.55c-3.87-.13-7.69-.72-11.48-1.42-.24-.04-.84,0-.75-.4.06-.3.59-.12.89-.06,2.44.44,4.87.87,7.33,1.17,1.93.23,3.85.43,5.79.37.15,0,.29.01.44.02-.15.07-.3.2-.46.21-.58.06-1.17.08-1.75.11Z"/>
          <path d="M31.36,70.97c-.25.28-.48.1-.61.03-1.24-.67-2.27-1.61-3.17-2.68-.54-.64-1.1-1.29-1.41-2.09-.06-.15-.3-.35-.11-.47.24-.15.23.18.32.3,1.29,1.65,2.69,3.18,4.39,4.41.2.15.38.33.58.5Z"/>
          <path d="M20.05,66.25c.14.2.24.28.25.37.21,2,1.36,3.48,2.69,4.87.17.17.25.42.37.64-.22-.09-.5-.13-.66-.29-1.36-1.41-2.48-2.96-2.68-4.99-.02-.16.01-.32.03-.6Z"/>
          <path d="M72.47,63.49c1.92.28,3.45.58,4.51,2.58.14.26.48.63.06.84-.31.15-.43-.29-.58-.53-.87-1.43-2.15-2.03-3.8-2.21-1.45-.16-2.83.09-4.13.56-1.33.48-2.71.46-4.05.77-.09.02-.26-.02-.28-.09-.06-.13.08-.17.18-.18,2.39-.17,4.54-1.3,6.86-1.72.25-.05.83-.06,1.23,0Z"/>
          <path d="M75.98,81.97c2.16.16,4.53.45,6.79,1.36.26.1.81.14.65.55-.13.34-.53,0-.76-.09-2.46-.96-5.04-1.31-7.65-1.52-.18-.01-.51.16-.52-.17,0-.18.3-.12.47-.13.26-.01.51,0,1.01,0Z"/>
          <path d="M63.41,54.26c.05.14.11.3-.1.33-.09.01-.22-.06-.28-.14-.12-.18-.22-.38-.31-.58-.65-1.3-1.49-2.42-2.87-3.04-.12-.05-.31-.18-.3-.24.03-.18.21-.14.35-.11,1.39.31,3.42,2.49,3.52,3.78Z"/>
          <path d="M14.09,91.32c.01.23-.16.2-.3.2-.81-.03-3.02-1.71-3.21-2.46-.03-.12.03-.27.04-.41.09.04.21.05.26.12.7,1.08,1.88,1.57,2.85,2.31.11.09.24.16.36.24Z"/>
          <path d="M19.64,75.81c0-.26.06-.45.17-.67.08-.16.19-.36.4-.26.14.07.07.25,0,.38-.21.4-.05.76.11,1.14.08.2.4.5.07.65-.3.13-.51-.18-.61-.47-.09-.24-.12-.45-.14-.77Z"/>
        </g>
        <g>
          <path d="M142.93,162.12c-4.29-.17-9.82-.22-15.29-1.14-4.5-.76-8.83-1.95-12.75-4.4-2.59-1.62-3.79-3.86-3.95-6.91-.24-4.61-.6-9.21-1.13-13.8-.49-4.22-.63-8.47-.93-12.71-.23-3.32-.46-6.65-.69-9.97-.05-.76-.29-1.32-1.04-1.77-1.85-1.11-1.89-3.1-2.05-4.95-.15-1.67,0-3.34.48-4.97.17-.6-.16-1.16-.32-1.7-1.21-4.09-.97-8.12.54-12.05.61-1.6,1.32-3.21,2.53-4.55.94-1.05,1.66-2.31,2.8-3.21.43-.34.34-.76.16-1.19-1.87-4.4-3.85-8.76-5.95-13.06-2.03-4.17-3.95-8.39-5.92-12.59-.55-1.17-.16-2.2.66-3,1.99-1.96,4.28-3.41,7.13-3.82,1.6-.23,2.4.25,2.88,1.77,2.07,6.52,3.74,13.16,5.81,19.68.81,2.56,1.66,5.1,2.5,7.65.19.58.38.81.98.59,1.41-.52,2.89-.65,4.37-.66.6,0,.78-.33.74-.84-.19-2.55.51-4.94,1.4-7.26.77-2.01,1.89-3.83,3.35-5.48,2.62-2.99,5.85-4.92,9.63-5.96,2.75-.76,5.56-.73,8.32-.03,3.33.84,6.42,2.13,9.16,4.34,1.96,1.58,3.75,3.28,5.11,5.35,1.36,2.08,2.18,4.44,2.58,6.92.12.72.3,1.43.24,2.17-.06.67.25,1.03.91,1.29,3.93,1.55,7.13,4.02,9.26,7.73,2.41,4.2,3.35,8.64,2.23,13.44-.22.92-.39,1.85-.72,2.74-.28.77-.16,1.49.02,2.32.64,3.06,1.05,6.17-1.26,8.83-.24.28-.29.56-.31.9-.45,5.84-.95,11.68-1.35,17.52-.28,4.09-.38,8.2-.64,12.29-.2,3.18-.54,6.34-.78,9.51-.16,2.15-1.29,3.75-2.93,4.94-3.21,2.33-6.82,3.74-10.74,4.45-2.05.37-4.08.83-6.14,1.1-2.54.34-5.09.56-8.89.47ZM113.64,66.68l.02.02c.23-.28.22-.57.1-.92-.63-1.98-1.25-3.96-1.82-5.96-.23-.79-.55-1.05-1.3-.53-.15.1-.48.41-.65.12-.14-.24.19-.46.4-.58.88-.49.85-1.2.6-2.04-.67-2.24-1.31-4.48-1.96-6.73-.19-.65-.53-.85-1.1-.39-.38.31-.85.4-1.3.55-.16.06-.35.18-.46-.03-.03-.05.14-.23.25-.33.55-.48,1.11-.95,1.65-1.44.24-.22.59-.51.44-.81-.16-.33-.55-.29-.96-.23-2.63.44-4.66,1.96-6.62,3.6-.15.13-.38.3-.24.55.12.22.38.24.59.2.75-.14,1.49-.31,2.23-.48.23-.05.52-.33.65.03.09.26-.21.43-.44.55-.45.23-.9.51-1.38.67-.85.28-.93.79-.54,1.49,1.22,2.24,2.11,4.63,3.21,6.93,1.79,3.75,3.59,7.5,5.18,11.33.55,1.34.81,1.52,2.2,1.28.25-.04.52-.07.77-.06.3.01.71-.34.84.02.06.18-.42.3-.69.42-.67.29-1.73.04-2.01.62-.32.66.52,1.35.77,2.07,1.09,3.09,2.24,6.15,3.35,9.24.23.63.5.79,1.1.36.92-.67,1.93-1.2,2.98-1.64.5-.21.62-.43.41-.98-.83-2.22-1.58-4.48-2.38-6.71-.21-.58-.3-1.33-.71-1.68-.41-.36-.92.38-1.45.45-.23.03-.52.16-.68-.11-.01-.02.28-.27.46-.36.29-.16.59-.28.89-.42.4-.17.52-.4.36-.86-.72-2.18-1.4-4.38-2.11-6.56-.09-.29-.17-.67-.63-.64ZM165.65,113.64h0c-.27.25-.51.31-.77.37-2.94.61-5.87,1.3-8.83,1.74-2.75.4-5.53.57-8.3.78-3.77.28-7.54.37-11.3.35-3.87-.03-7.72-.52-11.56-1.09-1.42-.21-1.43-.18-1.39,1.28.05,1.8.11,1.91,1.91,2.23,1.37.25,2.76.29,4.14.44,3.68.4,7.37.65,11.06.55.94-.03,1.89-.17,2.84-.17.13,0,.26,0,.39,0-.15.05-.29.09-.43.12-1.85.47-3.74.5-5.62.6-4.39.23-8.76-.2-13.11-.67-.71-.08-.79.04-.65.71.49,2.31.36,4.63-.11,6.93-.34,1.61-2.17,3.36-3.4,3.35-1.95,0-3.55-1.17-3.99-2.96-.59-2.42-.57-4.89-.28-7.33.26-2.24.31-2.26-1.68-3.18-.47-.22-1.03-.39-1.33-.9.54-.22,1,.1,1.5.21.14.03.28.07.42.1.51.1,1.21.45,1.27-.43.05-.81.71-1.93-.57-2.35-1.49-.49-3.04-.79-4.57-1.18-.56-.14-.74.08-.7.61.21,2.5.28,5.01.51,7.51.52,5.61.91,11.22,1.39,16.83.14,1.63.41,3.26.57,4.89.18,1.74.41,3.48.42,5.22.02,2.69.87,4.79,3.29,6.25,2.59,1.56,5.4,2.38,8.31,3.01,5.52,1.2,11.11,1.88,16.76,1.87,4.83,0,9.63-.4,14.37-1.41,3.3-.7,6.6-1.36,9.51-3.2,1.91-1.21,3.28-2.68,3.43-5.14.21-3.53.64-7.05.82-10.59.13-2.59.37-5.18.56-7.76.19-2.63.26-5.27.58-7.88.41-3.35.53-6.71.67-10.07.03-.85-.28-.99-1.05-.81-.63.14-1.21.35-1.91.41.56-.45,1.14-.68,1.69-1.04,1.52-1,3.25-1.83,3.38-4.01.01-.24.09-.47-.17-.63-.13-.08-.26.07-.47.2-2.96,1.8-6.32,2.44-9.59,3.27-4.8,1.23-9.76,1.43-14.67,1.84-4.91.41-9.84.35-14.75.12-3.36-.16-6.7-.55-10.05-.83-.2-.02-.41-.01-.52.26-.21.52-.18.85-.13,1.39.04.47.45.52.82.57,5.26.73,10.53,1.25,15.84,1.31,4.21.05,8.41-.09,12.61-.36,1.93-.13,3.85-.4,5.78-.6,2.36-.25,4.72-.5,7.08-.75ZM150.12,110.35c3.46-.23,6.8-.71,10.23-1.27,2.61-.43,5.19-1.01,7.69-1.79,2.99-.93,4.04-3.76,5.15-6.35,1.32-3.11,1.79-6.34,1.45-9.77-.27-2.66-.97-5.13-2.46-7.27-3.79-5.44-9.05-8.03-15.69-7.18-3.84.49-7.21,2.14-9.72,5.25-.74.92-1.46,1.83-1.89,2.94-.09.23-.2.61-.46.51-.26-.1-.09-.46-.03-.7.12-.5.23-1,.41-1.48,1.54-4.05,4.81-6.15,8.65-7.56,2.48-.91,5.06-1.22,7.68-.79.94.15,1.19-.28,1.04-1.09-.16-.9-.33-1.8-.55-2.68-.92-3.64-3.11-6.53-5.86-8.91-3.53-3.05-7.8-4.57-12.45-4.81-4.02-.21-7.5,1.4-10.53,3.89-3.41,2.78-5.32,6.5-6.22,10.78-.19.92-.16,1.81-.18,2.72-.02.49.21.73.71.78,3.07.35,5.78,1.45,8.24,3.43,3.61,2.91,5.59,6.72,6.43,11.11.73,3.83.44,7.69-.86,11.42-.57,1.62-1.37,3.13-2.41,4.51-.14.19-.39.3-.59.44-.19-.27.04-.52.14-.69.67-1.11,1.06-2.34,1.41-3.56.97-3.4,1.46-6.83.81-10.39-.49-2.66-1.34-5.09-2.77-7.41-1.79-2.91-4.27-4.87-7.39-6.04-3.19-1.2-6.44-1.21-9.77-.39-1.05.26-.87.68-.65,1.29.46,1.27.98,2.51,1.43,3.78.25.7.62,1.04,1.38.82.16-.05.46-.2.49-.02.05.29-.32.21-.5.27-2.45.79-4.78,1.78-6.61,3.68-.56.58-1.13,1.15-1.7,1.72-.22.23-.53.39-.78.18-.26-.21-.14-.54.04-.79.17-.24.32-.51.55-.69.58-.47.61-.97.33-1.63-.54-1.27-1.01-2.58-1.5-3.87-.19-.51-.42-.73-.9-.26-.84.82-1.46,1.79-2.15,2.73-2.03,2.75-2.97,5.82-2.96,9.16,0,3.38.88,6.63,2.54,9.58.76,1.35,1.65,2.75,3.37,3.08.66.13,1.21.38,1.96.4-.26-.66-.74-1.15-1.26-1.61-.15-.13-.46-.28-.29-.49.13-.16.37.08.56.18,2.57,1.37,3.58,3.81,4.06,6.43.68,3.72.16,7.48-.05,11.21-.1,1.74.02,3.42.57,5.04.42,1.23,1.73,1.83,2.6,1.24.65-.44,1.17-1.03,1.49-1.84.84-2.17.58-4.4.38-6.6-.31-3.44-.98-6.85-.22-10.33.16-.72.45-1.29.86-1.85.1-.14.29-.35.4-.33.33.06.14.32.11.52-.05.42.28.41.56.5,1.13.34,2.31.29,3.46.47,4.47.68,8.97.6,13.51.69,2.03.06,5.32-.07,8.75-.29ZM116.36,111.97c-.06-1.51-.26-1.78-1.78-2.12-2.01-.45-3.91-1.17-5.78-2.03-.42-.19-.92-1.05-1.27-.5s-.18,1.01.06,1.52c.13.28.69.63.95.79,2.28,1.43,4.81,2.19,7.42,2.78.33.07.4-.11.4-.45Z"/>
          <path d="M171.32,94.56c-.44,3.22-1.3,6.25-4.09,8.32-.13.1-.29.16-.43.24.08-.12.16-.23.23-.35,1.03-1.84,2.36-3.51,2.99-5.58.42-1.35.55-2.71.55-4.1,0-.23-.13-.62.22-.64.32-.02.3.34.31.6,0,.51.25.91.22,1.52Z"/>
          <path d="M140.29,79.77c0,.08-.01.15-.02.22-.11-.07-.24-.13-.34-.22-.83-.77-1.62-1.58-2.47-2.32-1.34-1.17-2.98-1.81-4.59-2.51-.15-.07-.4-.23-.38-.31.04-.23.3-.18.45-.14,2.98.83,5.63,2.14,7.2,5.01.05.1.11.19.16.27Z"/>
          <path d="M123.26,105.86c-2.08,0-3.41-.93-4.15-2.77-.09-.21-.23-.49-.06-.59.24-.15.33.19.45.35.92,1.27,2.03,2.11,3.7,2.17.7.03,1.2-.28,1.88-.4.19-.03.49-.2.56-.01.03.08-.07.29-.25.43-.84.63-1.26.79-2.13.82Z"/>
          <path d="M134.51,87.11s-.06.15-.1.27c-.1-.09-.23-.17-.3-.28-.81-1.48-1.75-2.84-3.21-3.79-.18-.12-.35-.33-.23-.55.1-.18.32-.13.49-.08,1.55.41,3.31,2.7,3.34,4.44Z"/>
          <path d="M121.49,122.93c.02,1.47.07,2.7-.39,3.89-.14.36-.34.63-.59.89-.18.18-.38.25-.56.05-.24-.26,0-.37.19-.49.66-.43.75-1.17.79-1.83.12-1.99.37-3.93.12-5.98-.01-.13-.03-.33.02-.45.07.13.15.32.17.46.18,1.23.37,2.45.24,3.47Z"/>
          <path d="M110.92,94.89c.16.06.21.19.21.34.07,1.57.61,3.03,1.09,4.5.05.15,0,.33-.01.5-.14-.11-.31-.2-.41-.34-.97-1.41-1.24-2.99-1.18-4.66,0-.2.07-.35.3-.35Z"/>
          <path d="M152.98,107.4c-.79,0-1.4-.03-1.98-.29-.11-.05-.25-.22-.25-.32.01-.2.23-.14.36-.13,1.49.05,2.97-.05,4.42-.37.09-.02.26,0,.28.05.08.19-.11.25-.22.31-.87.44-1.73.93-2.6.76Z"/>
          <path d="M149.17,91.06c.03-.25,0-.38.05-.46.22-.31.03-.99.54-.94.43.04.41.62.39,1.02-.02.44.09.86.21,1.28.05.19.08.47-.17.58-.25.1-.43-.09-.52-.28-.2-.42-.36-.87-.49-1.19Z"/>
          <path d="M164.28,87.29c-.05.31.1.64-.25.73-.27.07-.34-.22-.44-.39-.36-.63-.7-1.26-1.05-1.89-.09-.16-.19-.33-.05-.5.04-.05.22-.06.27-.02.66.6,1.4,1.16,1.52,2.08Z"/>
          <path d="M138.99,68.58c.01.33-1.26,1.56-1.61,1.55-.16,0-.27-.07-.3-.25-.08-.48,1.14-1.65,1.64-1.56.16.03.27.09.26.27Z"/>
          <path d="M153.61,81.15c-.13-.05-.25-.05-.32-.12-.12-.11-.11-.25-.01-.39.26-.38.64-.58,1.03-.79.41-.22.99-.62,1.26-.19.22.36-.51.44-.8.66-.38.28-.76.55-1.14.82Z"/>
          <path d="M137.43,62.09c.27-.04.7.06.61.26-.35.75-1.26.73-1.87,1.14-.19.13-.49-.07-.38-.33.29-.72.9-1.02,1.64-1.07Z"/>
          <path d="M145.85,98.7c.4.57.75,1.05,1.08,1.55.07.1.09.35.04.38-.14.09-.36.17-.49.12-.68-.29-.93-.87-.95-1.56,0-.14.18-.28.33-.49Z"/>
          <path d="M149.8,71.42c.03.36-1.44,1.46-1.73,1.32-.08-.04-.17-.15-.18-.23-.01-.41.27-.66.57-.86.35-.23.7-.52,1.17-.44.07.01.12.15.16.21Z"/>
          <path d="M123.94,79.69c.23,0,.68.08.57.27-.33.57-1.04.66-1.59.95-.16.09-.39-.05-.31-.29.21-.62.64-.96,1.34-.93Z"/>
          <path d="M120.32,94.91c.03-.17-.11-.47.15-.54.26-.07.33.2.37.42.09.43.21.84.47,1.2.13.18.27.39-.02.54-.2.11-.38-.04-.46-.18-.25-.44-.57-.86-.52-1.44Z"/>
          <path d="M148.06,62.33c.04.16,0,.27-.19.3-.32.05-1.65-.81-1.66-1.1,0-.25.19-.32.36-.26.6.21,1.28.3,1.49,1.06Z"/>
          <path d="M170.93,86.28c-.07.24,0,.65-.24.55-.67-.27-.75-.99-.97-1.58-.05-.13.04-.37.19-.3.58.27.95.72,1.03,1.33Z"/>
          <path d="M154.83,67c.51.18,1.02.47,1.24,1.06.08.21-.13.35-.33.32-.62-.12-1-.57-1.29-1.08-.1-.18.1-.32.38-.3Z"/>
          <path d="M158.04,100.14c-.24-.07-.73.05-.62-.22.21-.53.87-.54,1.36-.73.18-.07.52-.05.44.26-.16.59-.72.61-1.18.7Z"/>
          <path d="M129.85,91.92c.05.39-.16.7-.26.65-.44-.21-.63-.64-.7-1.11-.04-.23.04-.53.28-.5.58.1.5.71.69.95Z"/>
          <path d="M133.64,98.81c-.08-.03-.18-.07-.27-.11.05-.09.07-.2.14-.26.16-.14.35-.25.53-.37.35-.22.86-.87.91-.73.2.58-.38.9-.8,1.22-.14.11-.32.16-.5.24Z"/>
          <path d="M130.29,70.29c.22,0,.54,0,.48.27-.09.42-.57.34-.89.44-.18.05-.41-.14-.37-.3.09-.39.43-.42.78-.41Z"/>
          <path d="M148.03,153.91c-.12,0-.64-.03-.78-.08.31-.19.69-.29.81-.32.92-.2,1.84-.4,2.76-.55,4.04-.66,7.88-1.98,11.65-3.5.63-.26,1.31-.4,1.9-.79.46-.3.96-.18,1.2.31.26.54-.27.68-.61.84-2.24,1.08-4.65,1.64-7.03,2.29-3.11.84-6.29,1.4-9.5,1.78-.11.01-.22.01-.41.02Z"/>
          <path d="M152.11,148.19c-.12-.01-.27-.02-.41-.04.11-.08.21-.22.34-.24,2.32-.47,4.5-1.39,6.75-2.07,2.09-.63,4.01-1.7,5.94-2.71.13-.07.24-.17.38-.22.35-.14.75-.26.99.11.31.48-.23.66-.47.81-1.36.85-2.85,1.43-4.37,1.95-2.81.96-5.65,1.84-8.58,2.37-.18.03-.36.03-.57.04Z"/>
          <path d="M166.14,137.98c-.13.15-.25.36-.43.45-2.56,1.4-5.23,2.51-8.1,3.13-.13.03-.28-.02-.43-.03.11-.09.2-.22.33-.27,2.71-.98,5.26-2.29,7.8-3.62.36-.19.7-.26.82.34Z"/>
          <path d="M134.62,124.91c-2.86-.06-5.56-.08-8.18-.75-.2-.05-.47-.14-.67-.38.21-.02.57.04.78.07,1.34.14,2.68.26,4.01.44,2.15.29,4.31.19,6.47.22.15,0,.56.06.76.19-.13.05-.61.1-.75.11-.87.05-1.57.11-2.42.11Z"/>
          <path d="M105.06,55.63c-.24-.03-.38-.05-.53-.06.1-.09.19-.23.3-.25.95-.23,1.85-.59,2.74-.98.12-.05.34-.12.38-.07.18.2-.06.33-.17.42-.83.64-1.84.74-2.73.94Z"/>
          <path d="M114.48,78.34c-.29-.1-.66.12-.68-.26,0-.2.3-.25.52-.3.63-.14,1.26-.33,1.88-.49.13-.03.27-.15.37.01.02.02-.11.16-.19.22-.58.46-1.26.68-1.91.83Z"/>
          <path d="M113.64,66.68c-.25.99-1.17,1.23-1.9,1.66-.09.06-.33.03-.4-.05-.12-.14.04-.28.16-.34.75-.38,1.31-1.07,2.16-1.26,0,0-.02-.02-.02-.02Z"/>
          <path d="M107.76,62.45c-.16-.02-.27-.03-.38-.05.09-.09.16-.22.27-.26.65-.21,1.29-.43,1.88-.8.15-.1.37-.18.46.02.04.09-.14.31-.26.42-.57.53-1.36.38-1.97.66Z"/>
          <path d="M117.75,83.02c-.29.49-.82.52-1.21.76-.15.09-.36.31-.58.16-.13-.09-.1-.28,0-.39.42-.44,1.01-.52,1.56-.68.05-.02.15.1.23.15Z"/>
          <path d="M109.83,64.74c-.21.05-.37-.08-.32-.19.23-.5.79-.55,1.21-.79.14-.09.33.04.27.19-.21.52-.76.58-1.16.79Z"/>
          <path d="M115.44,80.87c-.19-.07-.39-.14-.59-.21.29-.38.78-.27,1.15-.44.12-.05.45-.06.37.2-.13.44-.62.26-.94.45Z"/>
          <path d="M105.97,57.64c-.2.2-.43.41-.75.35-.2-.04-.33-.22-.19-.4.19-.24.46-.37.78-.28.16.04.24.15.16.34Z"/>
          <path d="M112.72,71.04c-.13.29-.44.32-.7.4-.19.06-.43-.15-.3-.3.17-.19.48-.28.74-.37.16-.06.26.07.26.27Z"/>
        </g>
      </g>
    </g>
  </g>
</svg>