<?xml version="1.0" encoding="UTF-8"?>
<svg xmlns="http://www.w3.org/2000/svg" baseProfile="tiny" version="1.2" viewBox="0 0 175.22 181.09">
  <!-- Generator: Adobe Illustrator 28.6.0, SVG Export Plug-In . SVG Version: 1.2.0 Build 709)  -->
  <g>
    <g id="Layer_1">
      <g>
        <path d="M99.41,27.27c3.51-.03,7.04-.38,10.45.83,1.24.44,2.34,0,3.45-.52,4.97-2.38,9.95-4.75,14.93-7.11,1.23-.58,2.47-1.15,3.75-1.6,1.8-.64,3.08-.19,3.92,1.26.93,1.6.73,3.45-.6,4.57-.66.56-1.46.98-2.22,1.42-3.25,1.87-6.51,3.73-9.77,5.59-.47.27-1.22.43-1.15,1.04.07.56.81.7,1.31.92,4.14,1.88,8.31,3.7,12.43,5.64,5.35,2.51,10.63,5.15,15.99,7.64,3.62,1.68,7.22,3.41,10.73,5.29,2.11,1.13,4.18,2.32,6.24,3.54.61.36,1.16.86,1.63,1.4.81.92.66,1.85-.22,2.72-.73.72-1.67.91-2.58,1.18-1.74.52-1.72.5-1.02,2.02,1.2,2.61,2.43,5.21,3.55,7.85,1.28,3.04,1.87,6.25,2.27,9.51.33,2.7.17,5.38,0,8.07-.25,3.92-1.79,6.99-5.27,9.13-2.66,1.63-5.38,3.14-8.12,4.62-1.01.54-1.43,1.23-1.58,2.4-.68,5.3-1.53,10.57-2.25,15.86-.58,4.26-.98,8.56-1.65,12.81-.63,4.01-1.28,8.02-2.75,11.86-.83,2.17-2.08,3.92-4.09,5.13-4.31,2.6-8.61,5.21-12.9,7.82-3.41,2.08-6.76,4.26-10.22,6.24-6.52,3.72-12.61,8.12-19.05,11.96-1.86,1.11-3.81,2.03-5.82,2.79-2.02.76-4.02.91-6.01-.21-3.05-1.73-6.16-3.37-9.22-5.09-7.66-4.31-14.94-9.23-22.36-13.91-4.66-2.94-9.46-5.62-14.22-8.38-1.66-.97-3.2-2.11-4.69-3.33-3.02-2.46-3.91-5.9-4.47-9.51-.21-1.34-.38-2.68-.58-4.02-.03-.23-.1-.52-.37-.51-.2,0-.47.14-.58.31-.69,1-1.47,1.9-2.53,2.51-4.13,2.38-9.23-.25-9.9-5.1-.31-2.26.02-4.43.85-6.58,2.06-5.28,4.39-10.44,7.13-15.41.86-1.55.85-1.56-.62-2.71-.19-.15-.38-.29-.58-.43-3.05-2.03-4.7-4.96-5.32-8.48-.57-3.22-1.25-6.41-1.51-9.68-.13-1.63-.48-1.8-1.95-1.05-3.2,1.64-6.38,3.31-9.56,5-1.48.78-3.05.99-4.65.65-4.05-.85-6.2-5.21-4.58-9.2.74-1.83,1.92-3.34,3.56-4.42,2.27-1.49,4.55-2.98,6.92-4.29,2.93-1.62,5.95-3.09,8.97-4.53.91-.43,1.34-.92,1.43-1.94.17-2.06.5-4.12.72-6.18.1-.98-.13-1.22-1.26-1.09-1.82.19-3.64.43-5.44.79-1.67.33-3.34.29-5.01.24-.32,0-.63-.08-.94-.15-3.24-.75-3.87-4.03-1.7-6.01,1.25-1.14,2.63-2.07,4.18-2.76,1.12-.5,1.16-.58.39-1.56-.53-.67-.52-1.27-.23-1.99.37-.92.98-1.6,1.78-2.2,2.51-1.89,5.43-3.03,8.22-4.39,4.16-2.03,8.44-3.81,12.82-5.31,3.19-1.1,6.45-1.83,9.84-1.76,3.58.07,6.96-.74,10.2-2.22,3.04-1.39,6.11-2.74,9.16-4.13,1.97-.9,4.02-1.59,6.1-2.14,1.11-.3,1.76-.89,2.31-1.85,2.74-4.78,5.28-9.67,7.75-14.6,1.43-2.86,2.9-5.7,4.59-8.41,1.34-2.13,3.33-2.33,5.22-.68.79.69,1.09,1.52,1.1,2.54,0,.92-.35,1.73-.69,2.53-2.38,5.58-4.8,11.15-7.2,16.72-.13.29-.27.58-.38.88-.49,1.36-.4,1.61,1.03,1.59,4.32-.04,8.58,1.04,12.91.56ZM58.41,53.71c2.3-.4,3.83-1.68,4.47-3.95.04-.13.05-.33-.02-.43-.16-.25-.45-.19-.62-.04-1.5,1.25-3.2,2.31-4.1,4.16-.07.11-.23.28-.21.32.17.27.33.09.47-.06ZM28.2,125.26c1.33.03,2.63-.66,4.01-.05,1.35.59,2.55,1.3,3.33,2.6.38.63.75.41,1.06-.07.17-.27.3-.56.44-.85,3.03-6.5,6.02-13.02,8.97-19.56.86-1.92.29-3.23-.75-4.56-2.16-2.76-5.51-2.46-7.18.62-3.08,5.68-5.99,11.44-8.69,17.3-.63,1.37-1.28,2.75-1.51,4.27-.16.39-.03.47.32.31ZM97.54,174.32c.02,1.23.21,1.31,1.45.82,3.13-1.23,6-2.94,8.86-4.68,2.79-1.7,5.56-3.43,8.41-5.02,3.9-2.17,7.8-4.34,11.62-6.66,3.06-1.86,6.07-3.81,9.18-5.6,3.04-1.74,6.11-3.47,8.97-5.53,1.14-.82,2.06-1.76,2.54-3.09.86-2.41,1.54-4.88,1.95-7.39,1.12-6.92,2.16-13.86,3.16-20.8.49-3.39.85-6.81,1.21-10.22.14-1.38-.18-1.55-1.47-.91-2.07,1.04-4.12,2.13-6.21,3.12-4.02,1.91-8.21,3.02-12.73,2.77-5.5-.31-10.98-.83-16.37-1.99-3.59-.77-7.2-1.58-10.46-3.35-2.87-1.56-5.66-3.29-8.49-4.95-.53-.31-.99-1.04-1.65-.73-.69.32-.31,1.14-.39,1.74-.05.39-.02.8,0,1.2.17,4.78.04,9.57.16,14.36.11,4.36-.24,8.75.16,13.12.02.24-.02.45,0,.72.01,2.72-.05,5.42-.04,7.97.01,3.59-.15,6.84-.1,10.43.06,3.94.02,7.89,0,11.84.09,2.71.22,11.25.25,12.84ZM94.42,135.66c0-9.03,0-18.06,0-27.09,0-2.08.03-4.16,0-6.23,0-.61.29-1.46-.31-1.78-.78-.41-1.22.53-1.77.92-.65.45-1.2,1.05-1.83,1.54-4.52,3.54-9.03,7.1-13.59,10.59-2.79,2.13-5.6,4.23-8.69,5.95-2.26,1.26-4.47,1.52-6.87.55-4.29-1.73-8.61-3.4-12.92-5.1-.52-.2-1.05-.38-1.58-.57-.8-.28-1.35-.13-1.67.76-.41,1.12-.91,2.22-1.41,3.3-1.37,2.97-2.76,5.94-4.14,8.9-.38.81-.57,1.64-.46,2.54.48,4.05,1.23,8.05,2.35,11.96.56,1.95,1.68,3.62,3.43,4.77,1.33.88,2.61,1.84,3.98,2.66,2.39,1.44,4.84,2.8,7.26,4.19,6.37,3.67,12.41,7.85,18.64,11.73,5.76,3.59,11.63,7,17.73,9.99,1.61.79,1.77.68,1.76-1.04-.01-2.78-.27-5.55-.15-8.34.45-10.06,0-20.13.22-30.2ZM170.28,84.85c.15-9.72-2.47-15.68-6.72-22.45-.55-.88-1.07-1.07-1.92-.49-.32.22-.73.31-1.08.5-10,5.34-19.99,10.69-29.99,16.01-8.96,4.76-17.92,9.52-26.44,15.04-1.14.74-2.24,1.54-3.31,2.38-1.71,1.35-1.71,1.54,0,2.73,1.31.91,2.65,1.78,3.99,2.64,4.09,2.62,8.59,4.29,13.31,5.22,5.15,1.01,10.33,1.89,15.62,2.15,4.09.2,7.9-.28,11.57-2.08,4.09-2,8.23-3.9,12.3-5.93,2.93-1.46,5.7-3.22,8.46-4.98,2.23-1.43,3.39-3.52,3.88-6.07.33-1.74.29-3.5.33-4.65ZM63.65,117.58c.98,0,1.68-.1,2.37-.36,1.95-.75,3.8-1.7,5.46-2.95,4.58-3.46,9.11-6.97,13.63-10.5,2.26-1.77,4.5-3.57,6.68-5.44,1.15-.99,1.07-1.32-.25-2.08-3.03-1.75-6.12-3.41-9.08-5.27-4.86-3.05-9.95-5.68-14.87-8.61-1.57-.94-3.21-1.76-4.79-2.67-.8-.46-1.31-.34-1.71.52-2.41,5.29-4.86,10.57-7.27,15.87-2.08,4.57-4.13,9.15-6.19,13.72-.73,1.62-.7,1.8.96,2.46,3.7,1.48,7.41,2.95,11.13,4.35,1.34.5,2.73.9,3.92.96ZM134.67,22.08c.07-1.13-1-1.85-2.19-1.43-1.43.5-2.86,1.04-4.2,1.72-5.54,2.82-11.06,5.7-16.74,8.27-4.87,2.2-9.62,4.64-14.42,6.99-5.86,2.87-11.77,5.67-17.56,8.67-7.02,3.63-14.16,6.98-21.28,10.39-5.89,2.82-11.84,5.55-17.75,8.33-1.15.54-2.31,1.1-3.44,1.68-.56.29-.66.68-.02,1.02,2.07,1.11,3.04,2.92,3.39,5.18.19,1.26.45,1.4,1.55.83,2.97-1.54,5.91-3.15,8.88-4.71,1.69-.89,3.48-1.61,5.11-2.61,4.9-3.01,10.17-5.35,15.1-8.31,3.96-2.38,8.08-4.48,12.11-6.75,6.61-3.72,13.16-7.54,19.81-11.19,5.1-2.8,10.32-5.39,15.46-8.12,3.88-2.06,7.72-4.18,11.58-6.27,1.05-.57,2.11-1.12,3.16-1.69.82-.45,1.3-1.15,1.47-2.01ZM13.86,60.27c.38-.03.62-.03.86-.06,6.08-.6,11.9-2.13,17.45-4.71,10.71-4.98,21.45-9.9,32.17-14.85,3.35-.67,4.97-3.08,6.16-6,.48-1.18,1.21-2.25,1.79-3.38.1-.19.13-.52.03-.66-.1-.14-.43-.21-.63-.16-.47.1-.93.25-1.36.44-3.23,1.38-6.42,2.83-9.67,4.16-2.87,1.17-5.57,2.76-8.72,3.24-1.99.3-3.97.26-5.96.37-2.48.13-4.95.4-7.28,1.23-6.01,2.16-11.85,4.75-17.52,7.71-1.06.56-2.1,1.16-2.98,1.98-.56.52-.44.94.22,1.28.89.46,1.87.37,2.8.55.38.08.51.39.19.68-.29.26-.65.46-.99.66-2.09,1.16-4.2,2.3-6.29,3.46-.7.39-1.37.81-1.87,1.48-.91,1.23-.66,2.05.8,2.46.3.09.62.11.8.14ZM49.49,72.7c-.6.02-1.02.42-1.51.68-2.81,1.52-5.61,3.04-8.41,4.58-4.06,2.22-8.1,4.48-12.17,6.67-.83.44-1.05.93-1.03,1.88.09,4.16.46,8.26,1.53,12.31.54,2.04,1.51,3.66,3.1,4.97,2.64,2.18,2.93,2.1,4.54-1.04,3.49-6.81,6.97-13.63,10.75-20.3,1.49-2.63,2.79-5.38,4.13-8.1.44-.89-.04-1.66-.92-1.65ZM65.46,64.34c-.13.25-.16.05-.33.03-.21-.03-.47-.03-.66.07-2.18,1.16-4.33,2.4-6.54,3.5-1.45.71-2.4,1.78-3.09,3.2-1.04,2.15-2.17,4.26-3.28,6.38-3.18,6.08-6.38,12.16-9.57,18.24-.44.85-.9,1.69-1.3,2.56-.26.57-.01.96.63.88,2.32-.26,4.19.56,5.84,2.14.89.85,1.13.78,1.68-.39,1.43-3.03,2.81-6.08,4.23-9.12.91-1.95,1.9-3.86,2.79-5.82,2.41-5.3,4.8-10.62,7.17-15.94.78-1.75,1.48-3.53,2.4-5.73ZM113.47,37.52c-.54-.04-.89.16-1.24.34-.91.49-1.85.93-2.76,1.44-1.04.58-2.07,1.2-3.08,1.83-.25.15-.63.34-.45.72.07.14.39.21.61.23.4.04.8.02,1.2.03,4.92.12,9.65,1.22,14.18,3.07,5.75,2.35,10.82,5.79,15.33,10.04.72.67,1.41,1.2,2.41,1.42,3.98.86,7.89,1.97,11.54,3.83,1.07.54,2.2.96,3.25,1.51.64.33,1.2.36,1.81.03,1.05-.57,2.13-1.1,3.16-1.71.49-.28.3-.67-.07-.93-.26-.18-.57-.28-.86-.42-5.85-2.92-11.67-5.92-17.57-8.73-8.71-4.15-17.49-8.17-26.24-12.25-.43-.2-.89-.34-1.23-.47ZM38.14,73.13c-.04-3.63-2.97-5.5-6.23-3.98-4.11,1.92-8.26,3.78-12.28,5.88-2.61,1.36-5.31,2.58-7.74,4.27-1.36.94-1.4,1.15,0,1.86,2.41,1.22,3.41,3.17,3.29,5.8-.03.76.31.98,1.05.62,1.08-.52,2.1-1.15,3.17-1.68,5.63-2.81,11.06-5.98,16.61-8.93,1.77-.94,1.88-2.36,2.12-3.85ZM91.9,5.13c.07-.59-.13-1.35-.94-1.77-.89-.46-1.56.06-2.05.73-.47.64-.85,1.35-1.22,2.06-3.26,6.13-6.07,12.49-9.38,18.61-2.96,5.47-5.72,11.05-8.52,16.6-1.33,2.63-2.56,5.31-3.82,7.97-.09.19-.12.49-.02.65.13.22.4.13.62.02,1.79-.87,3.59-1.74,5.39-2.6.93-.44,1.41-1.23,1.79-2.14.77-1.84,1.57-3.67,2.42-5.47,2.45-5.19,4.96-10.35,7.38-15.56,2.12-4.56,4.19-9.14,6.19-13.75.73-1.68,1.77-3.23,2.16-5.34ZM165.97,58.79c.46-.09.93-.18,1.4-.26.31-.06.67-.11.76-.45.1-.36-.2-.57-.48-.74-1.45-.84-2.88-1.72-4.35-2.52-6.01-3.3-12.23-6.19-18.42-9.15-1.37-.65-2.65-1.48-4.03-2.12-6.3-2.91-12.62-5.78-18.92-8.68-2.21-1.02-3.78-.81-5.65.85-.32.28-.32.54.02.75.34.21.71.36,1.08.51,6.32,2.48,12.37,5.56,18.46,8.52,8.62,4.18,17.43,7.95,25.95,12.34,1.33.69,2.77.65,4.17.95ZM49.89,55.99c.88.04,1.76.05,2.63.13,1.15.11,1.97-.23,2.56-1.31,1.91-3.46,4.97-5.82,8.17-7.92,1.53-1,2.3-2.37,3.01-3.88.09-.19.08-.47,0-.66-.11-.28-.41-.22-.62-.14-.52.2-1.04.42-1.54.65-3.55,1.62-7.1,3.26-10.66,4.88-7.12,3.24-14.16,6.62-21.16,10.12-.5.25-1,.51-1.44.85-.65.51-.61,1.05.03,1.57,1.4,1.15,2,1.21,3.59.23,4.72-2.92,9.86-4.43,15.42-4.53ZM82.39,60.24c-3.12-.07-6.21.3-9.28.8-.86.14-1.75.1-2.59.41-1.1.41-1.86,1.18-1.54,1.77.43.82,1.11,1.32,2.15,1.14.71-.13,1.43-.13,2.14-.22,3.16-.43,6.32-.88,9.51-.9,4.56-.03,9.08.35,13.59,1.05,1.27.2,2.43.71,3.72.89,4.92.68,9.63,2.2,14.27,3.91,4.72,1.74,9.17,4.07,13.51,6.59.98.57,1.74.54,2.64-.04,1.15-.74,1.18-1.02-.05-1.79-2.77-1.74-5.74-3.15-8.72-4.45-7.91-3.45-16.04-6.22-24.6-7.62-4.89-.8-9.79-1.41-14.74-1.53ZM82.34,65.02c-1.76,0-3.52-.06-5.27.02-1.51.07-3.01.3-4.52.49-.39.05-.84.17-.68.73.41,1.42,1.71,2.2,3.24,1.95,5.57-.92,11.14-.55,16.7.08,4.76.54,9.42,1.62,14.04,2.9,3.38.94,6.71,2.09,9.88,3.59,2.37,1.13,4.85,2.06,7.04,3.54.97.65,1.94.56,2.91-.08.93-.61.98-1,.04-1.54-2.76-1.61-5.65-2.97-8.56-4.28-11.08-4.97-22.7-7.42-34.83-7.41ZM106.64,46.84c1.99.06,3.97.06,5.95.44,6.14,1.16,11.76,3.47,16.77,7.24,1.36,1.03,2.95,1.13,4.56,1.08.56-.02.66-.43.34-.81-.35-.43-.79-.79-1.22-1.15-7.49-6.23-16.1-9.67-25.83-10.15-3.1-.15-6.24.03-8.92,2.01-.25.19-.58.28-.85.44-4.14,2.38-8.32,4.7-12.4,7.18-1.8,1.1-2.93,2.91-3.91,4.77-.3.56-.05.9.57.97,1.17.14,1.9-.38,2.52-1.39,1.94-3.12,4.63-5.48,7.91-7.14,4.56-2.3,9.35-3.68,14.52-3.48ZM106.39,48.24c-3.66-.1-7.15.83-10.51,2.04-3.53,1.28-6.85,3.09-9.35,6.04-.55.65-1.28,1.32-.96,2.31.13.4,2.33.43,2.98.03.47-.29.86-.7,1.27-1.08,2.01-1.88,4.31-3.35,6.89-4.22,7.99-2.69,15.85-2.26,23.46,1.45,2,.97,4.04.34,6.06.27.27-.01.32-.38.15-.54-.34-.33-.73-.62-1.13-.87-5.81-3.48-12.1-5.25-18.86-5.42ZM127.36,56.77c-2.47-.02-4.92.16-7.39.41-4.08.41-7.98,1.48-11.87,2.64-.76.23-1.48.59-2.18.96-.25.13-.38.48-.56.72.2.13.38.3.6.37.83.26,1.71.39,2.5.74,1.17.52,2.19.41,3.4-.04,4.73-1.74,9.63-2.84,14.66-3.07,7.53-.35,14.69,1.41,21.61,4.26.66.27,1.3.61,1.99.82.77.23,2.78-.65,2.68-1.13-.17-.8-1.04-.88-1.63-1.24-.13-.08-.29-.12-.44-.19-7.41-3.42-15.2-5.18-23.36-5.25ZM121.28,80.27c-.14-.21-.22-.47-.39-.57-1.11-.62-2.22-1.25-3.37-1.79-4.47-2.13-9.04-3.99-13.85-5.24-5.4-1.4-10.77-2.9-16.41-2.96-.4,0-.8-.06-1.19-.13-2.94-.52-5.89-.15-8.84-.15-.62,0-1.25.21-1.87.35-.22.05-.43.15-.44.46-.02.85,1.52,2.64,2.37,2.6,1.67-.08,3.33-.33,5-.36,3.59-.08,7.15.38,10.71.87,6.58.9,13,2.37,19.17,4.85,2.07.83,4.1,1.76,6.14,2.66.85.38,1.67.54,2.48-.05.19-.13.32-.34.5-.55ZM147.86,66.02c.04-.29-.16-.42-.37-.54-.42-.23-.83-.49-1.27-.67-5.07-2.02-10.35-3.14-15.77-3.59-4.48-.37-8.92.04-13.31.98-1.16.25-2.3.65-3.44,1-.22.07-.45.22-.37.51.04.14.15.32.26.35,2.23.69,4.23,1.93,6.86,1.35,4.69-1.04,9.49-1.08,14.26-.24,2.91.51,5.8,1.09,8.53,2.25,1.76.74,3.07-.13,4.42-1,.11-.07.14-.27.2-.41ZM82.56,74.07c-1.44,0-2.88,0-4.32,0-.41,0-.81.09-.84.62-.07,1.42.99,2.52,2.42,2.46,1.83-.07,3.67-.37,5.48-.27,2.7.15,5.39.47,8.07.88,4.88.75,9.7,1.73,14.38,3.4,2.1.75,4.19,1.52,6.24,2.41.96.42,1.7.22,2.42-.37.32-.26.6-.59.02-.9-.63-.34-1.25-.73-1.91-.99-3.99-1.62-7.97-3.24-12.15-4.34-6.5-1.71-13.08-2.83-19.82-2.91ZM82.17,40.65c1.26-.13,2.58.29,3.79-.29,2.3-1.11,4.58-2.26,6.87-3.38.45-.22.85-.51.9-1.03.16-1.59.31-3.18.16-4.78-.04-.47-.35-.71-.82-.61-.39.08-.76.23-1.13.39-3.01,1.29-5.95,2.76-9.03,3.83-2.48.87-3.22,2.91-4.11,4.93-.33.75.05,1.16.97,1.14.8-.02,1.59-.12,2.39-.19ZM111.58,57.13c1.78-.1,3.35-.71,4.98-1.06.14-.03.26-.17.39-.26-.13-.18-.23-.44-.41-.54-.56-.29-1.14-.58-1.74-.76-1.9-.58-3.85-.9-5.83-1.2-5.61-.86-10.74.48-15.6,3.15-.91.5-2.42,1.21-1.91,2.28.48,1.01,2.12.86,3.31.63.53-.1,1.01-.46,1.51-.7,3.08-1.42,6.29-2.18,9.7-2.19,1.93,0,3.8.35,5.6.64ZM34.41,131.24c-.01-2.34-1.91-4.33-4.16-4.36-1.98-.03-4.03,1.95-4.08,3.93-.05,2.01,2.44,4.44,4.55,4.42,1.76-.01,3.71-2.11,3.69-3.99ZM5.31,86.5c.03,2.32,1.51,4.14,3.41,4.17,2.5.05,4.53-1.9,4.46-4.3-.07-2.19-1.9-4.06-3.94-4.02-2.44.04-3.95,1.64-3.92,4.15ZM127.34,66.28c-1.67.09-3.34.17-5.02.26-.23.01-.49.06-.5.36,0,.26.17.43.4.52.96.4,1.96.7,2.86,1.2,1.3.72,2.63.95,4.11.88,2.96-.15,5.88.26,8.76.93,1.35.31,2.52.05,3.58-.82.46-.37.3-.66-.13-.88-.28-.14-.59-.24-.89-.32-4.3-1.24-8.64-2.27-13.18-2.13ZM98.42,81.03c-.1-.12-.18-.31-.3-.35-1.49-.45-2.91-1.2-4.52-.06-3.06,2.17-6.45,3.8-9.81,5.45-.64.32-1.91.5-1.48,1.42.33.7,1.46,1.18,2.49,1.05.39-.05.77-.23,1.12-.4,3.02-1.45,6.04-2.89,9.03-4.4,1.06-.54,2.02-1.28,3.01-1.95.26-.17.49-.39.46-.76ZM77.52,83.41c-.02-.21-.01-.53-.07-.85-.9-4.96-2.93-9.43-5.95-13.45-.81-1.08-1.58-2.21-2.73-2.99-.32-.22-.6-.57-1.04-.26-.45.31-.58.83-.46,1.28.12.43.46.82.77,1.18,3.44,4.09,6.12,8.56,7.03,13.93.13.79.43,1.52,1.25,1.92.82.4,1.2.23,1.2-.77ZM79.85,84.31c.02,1.33.31,1.55,1.45,1.09,3.18-1.29,6.36-2.56,9.28-4.4.4-.25.82-.5,1.18-.81.29-.25.22-.69-.14-.72-1.31-.09-2.59-.64-3.95.04-2.13,1.08-4.32,2.05-6.52,2.97-.96.4-1.42.95-1.29,1.82ZM72.68,80.96c-.03-.15-.13-.53-.2-.92-.27-1.5-.95-2.87-1.57-4.24-.99-2.18-2.28-4.19-3.89-5.97-.25-.28-.6-.61-1.01-.25-.55.48-.95,2.15-.58,2.61,1.96,2.43,3.48,5.11,4.65,8,.38.93,1.19,1.24,2.02,1.51.39.13.56-.12.57-.75ZM26.49,66.44c-.1,2,.11,2.18,1.55,1.57,1.89-.81,3.75-1.67,5.59-2.58.87-.43.9-.82.05-1.31-1.37-.79-2.76-1.55-4.21-2.18-1.15-.51-1.78-.2-2.17,1.04-.4,1.27-.61,2.61-.81,3.46ZM102.06,91.33c-.05-.15-.07-.32-.15-.44-1.4-2.15-3.16-4.01-4.85-5.92-.05-.06-.13-.1-.2-.14-.55-.3-1.85.17-2.29.84-.36.55.08.88.38,1.22,1.3,1.51,2.62,3.01,3.93,4.51.26.3.5.62.78.91.48.49,1.03.34,1.54.07.42-.22.84-.48.86-1.05ZM47.8,57.75c-2.95.07-8.4,2-11.18,3.95-.38.27-.93.52-.73,1.08.2.58.81.79,1.37.77.46-.02.92-.25,1.35-.44,2.61-1.2,5.12-2.6,7.83-3.59.81-.3,1.57-.76,2.39-1.07.23-.08.46-.22.34-.5-.04-.1-.27-.17-.41-.18-.32-.03-.64,0-.96,0ZM92.11,86.95c-.4.08-1.03.34-1.34.91-.32.59.22,1.04.58,1.44,1.47,1.67,2.97,3.31,4.47,4.96.16.18.34.34.53.48.72.49,1.19-.13,1.69-.45.5-.32.46-.79.13-1.24-1.49-2.07-3.24-3.92-4.96-5.79-.21-.23-.5-.4-1.1-.3ZM99.85,82.56c-.68.11-1.18.39-1.53.83-.39.5.03.88.33,1.24,1.47,1.78,2.97,3.53,4.39,5.34.69.88,1.21.33,1.81-.03.63-.38.96-.83.42-1.53-1.45-1.9-2.97-3.74-4.74-5.35-.23-.21-.5-.37-.68-.5ZM108.95,86.94c-.11-.18-.23-.48-.43-.72-.65-.81-1.39-1.55-1.99-2.4-.86-1.21-2.09-1.67-3.44-1.94-.32-.06-.7-.09-.85.21-.15.29.1.61.31.85,1.32,1.6,2.85,3.02,4.03,4.74.13.19.35.34.56.44.65.3,1.86-.42,1.82-1.18ZM85.35,28.63c-1.16-.1-1.69.26-2,1.03-.33.81-.72,1.59-1.05,2.41-.08.19-.07.48.03.65.13.22.41.19.64.1,1.4-.59,2.8-1.17,4.19-1.77.73-.32,1.46-.64,2.17-1,.18-.09.34-.34.39-.55.09-.33-.23-.38-.45-.41-1.41-.23-2.87-.1-3.93-.44ZM105.71,57.81c-2.27.23-4.71.5-7.05,1.33-.28.1-.71.15-.65.5.04.23.42.49.69.57,2.07.63,4.15,1.13,6.15-.26.39-.27.88-.37,1.28-.63.56-.37,1.69-.35,1.52-1.21-.1-.49-1.15-.18-1.94-.3ZM95.69,33.5c0,.11,0,.27,0,.43.03,1.2.29,1.39,1.46.91.95-.39,1.88-.86,2.8-1.31.48-.24,1.22-.35,1.22-.95,0-.68-.78-.66-1.28-.85-.3-.12-.58-.26-.88-.37-3.19-1.17-2.67-1.49-3.33,2.14ZM88.62,88.75c-.36.15-.66.24-.93.4-.33.2-.81.4-.89.7-.11.38.36.62.71.82,1.3.75,2.58,1.53,3.89,2.27.25.14.59.4.85.16.28-.27.03-.58-.18-.81-.89-1.01-1.78-2.01-2.69-3-.2-.22-.49-.35-.75-.52ZM64.25,74.23c-.16.11-.33.16-.41.28-1.12,1.69-1.13,2.5.43,3.24.64.3,1.26.65,1.9.92.18.08.48.06.65-.04.22-.12.21-.42.09-.62-.69-1.14-1.39-2.27-2.12-3.39-.12-.18-.37-.26-.55-.39ZM81.61,78.48c-.53.03-1.01,0-1.48.08-1.13.19-1.39.85-.88,1.9.33.66.84.68,1.39.5.83-.27,1.64-.6,2.45-.93.43-.18,1.1-.33,1.06-.81-.04-.46-.74-.51-1.17-.62-.45-.12-.94-.09-1.37-.12ZM103.78,28.98c-.85-.07-1.58.32-2.35.51-.2.05-.49.19-.24.49.54.68,3.63,1.42,4.47.98.59-.3,1.61-.41,1.5-1.26-.06-.48-.99-.23-1.52-.34-.62-.13-1.24-.26-1.86-.39ZM132.78,71.3c-.34,0-.5-.02-.65,0-.23.05-.58.07-.64.21-.14.33.15.57.41.74.46.3.95.56,1.42.85.8.5,1.51.27,2.2-.23.19-.14.36-.28.33-.56-.03-.29-.25-.41-.47-.46-.92-.21-1.85-.4-2.61-.56ZM76.92,59.02c1.34.18,2.28-.67,2.92-1.97.09-.18.14-.48.05-.63-.13-.23-.43-.15-.63-.04-.97.51-1.94,1.03-2.89,1.58-.25.15-.59.35-.47.72.12.34.47.34,1.02.34ZM79.93,42.39c-.88.03-1.74.17-2.44.73-.28.23-.47.66-.24,1.06.2.34.57.28.84.17.73-.29,1.44-.62,2.14-.98.26-.13.64-.33.51-.68-.11-.3-.51-.3-.82-.3ZM112.11,85.29c-.22-.14-.4-.29-.61-.38-.5-.21-1.02-.4-1.53-.58-.28-.1-.63-.32-.85,0-.22.3.11.54.28.79.3.47.63.91,1.15,1.14.4.17.77,0,1.07-.28.16-.14.26-.34.5-.68Z"/>
        <path d="M117.64,158.93c-.2.07-.38.03-.39-.15,0-.13.11-.31.23-.39,2.37-1.47,4.74-2.94,7.12-4.4,5.3-3.25,10.9-6,16.06-9.49.4-.27.82-.5,1.23-.73.49-.28.98-.18,1.3.22.41.51-.02.91-.41,1.17-.79.54-1.6,1.05-2.44,1.5-6.71,3.67-13.44,7.32-20.16,10.97-.84.46-1.7.87-2.56,1.3Z"/>
        <path d="M145.23,136.21c-.02.46-.33.68-.69.87-1.82.98-3.61,2.01-5.45,2.95-3.25,1.67-6.53,3.3-9.8,4.94-.35.17-1,.46-1.06.25-.18-.55.48-.66.84-.87,2.31-1.41,4.61-2.85,6.97-4.18,2.36-1.33,4.77-2.56,7.17-3.82.48-.25.95-.61,1.55-.55.27.02.45.13.49.41Z"/>
        <path d="M71.23,156.21c-.49.04-.93-.09-1.37-.33-7.76-4.27-15.29-8.91-22.48-14.09-.38-.28-.74-.61-1.07-.94-.23-.23-.37-.55-.15-.85.25-.32.59-.17.87-.03.43.21.86.42,1.25.69,4.51,3.15,8.98,6.34,13.52,9.45,2.7,1.84,5.5,3.53,8.25,5.3.4.26.77.55,1.16.83l.02-.03Z"/>
        <path d="M55.33,139.98c-3.75-1.84-7.09-4.31-10.43-6.77-.31-.23-.55-.57-.77-.89-.14-.2-.12-.47.07-.65.19-.18.45-.19.65-.03,3.46,2.8,7.26,5.18,10.44,8.34h.05Z"/>
        <polygon points="71.2 156.24 71.31 156.28 71.23 156.21 71.2 156.24"/>
        <polygon points="55.29 139.98 55.42 140.03 55.33 139.98 55.29 139.98"/>
        <path d="M141.63,102.3c-.84-.06-1.23-.87-.89-1.45.3-.51.82-.74,1.31-1.01,2.65-1.45,5.31-2.89,7.97-4.32,3.78-2.04,7.57-4.07,11.36-6.08.62-.33,1.21-.82,1.98-.75.21.02.53.11.59.26.07.16-.03.51-.17.63-.66.56-1.32,1.18-2.07,1.6-5.23,2.88-10.35,5.93-15.48,8.99-1.22.73-2.57,1.26-3.86,1.87-.28.13-.58.22-.72.26Z"/>
        <path d="M58.76,112.88c2.22.79,4.36.7,6.46-.57,2.59-1.57,5.13-3.19,7.57-4.98,1.15-.85,2.22-1.81,3.54-2.4.21-.1.51-.22.62.04.07.16-.06.46-.19.63-.25.31-.53.61-.85.83-3.56,2.53-7.03,5.2-10.93,7.25-2.26,1.19-4.22,1.12-6.08-.67l-.14-.13Z"/>
        <path d="M23.08,81.02c-.02.38-.16.69-.52.65-.41-.05-.65-.39-.63-.82,0-.25.16-.46.41-.48.46-.03.68.26.74.65Z"/>
        <path d="M18.47,83.53c-.42-.08-.58-.46-.59-.85,0-.17.25-.48.39-.49.53-.01.57.43.58.82,0,.22-.02.47-.38.51Z"/>
        <path d="M26.67,79.28c.03.24-.04.46-.29.5-.36.06-.56-.16-.59-.5-.02-.22.03-.48.28-.52.38-.07.5.24.6.52Z"/>
        <path d="M29.93,76.86c.14.14.35.26.36.41.02.17-.1.48-.22.52-.39.12-.6-.12-.54-.5.03-.16.25-.29.39-.43Z"/>
        <path d="M32.77,75.54c.11.05.3.08.33.16.12.31-.04.48-.38.41-.08-.02-.17-.21-.17-.31,0-.09.14-.17.22-.26Z"/>
        <path d="M36.04,122.8c-.04.28-.24.45-.48.39-.69-.18-1.35-.48-1.52-1.24-.07-.34.34-.5.66-.46.84.1,1.41.68,1.33,1.32Z"/>
        <path d="M37.8,118.69c-.15-.04-.41-.04-.59-.16-.38-.24-.92-.45-.64-1.06.07-.15.42-.29.6-.25.52.13,1.13.23,1.15.96,0,.25-.18.42-.52.51Z"/>
        <path d="M38.95,113.27c.51-.02.86.16.95.53.07.25-.07.52-.44.55-.51.05-.82-.22-.97-.55-.11-.26.09-.46.46-.53Z"/>
        <path d="M41.53,110.57c-.13.14-.26.4-.39.4-.17,0-.42-.17-.48-.33-.14-.38.04-.63.46-.51.17.04.28.29.41.44Z"/>
        <path d="M42.81,107.01c.17.19.2.46-.01.65-.14.13-.36.12-.55.17,0-.23-.07-.53.03-.66.1-.14.35-.11.53-.16Z"/>
      </g>
    </g>
  </g>
</svg>