<?xml version="1.0" encoding="UTF-8"?>
<svg xmlns="http://www.w3.org/2000/svg" baseProfile="tiny" version="1.2" viewBox="0 0 240.35 177.34">
  <!-- Generator: Adobe Illustrator 28.6.0, SVG Export Plug-In . SVG Version: 1.2.0 Build 709)  -->
  <g>
    <g id="Layer_1">
      <g>
        <path d="M50.13,172.16c-1.06-.85-1.14-1.65-1.45-2.89-.85-3.47-1.8-6.92-2.65-10.39-1.45-5.94-3.08-11.82-4.42-17.79-1.24-5.53-2.77-11-4.14-16.5-1.56-6.31-3.06-12.63-4.62-18.94-.5-2.01-1.11-3.98-1.65-5.98-.1-.38-.28-.66-.59-.86-2.27-1.47-4.38-3.18-6.66-4.61-2.35-1.48-4.78-2.86-7.05-4.45-3.66-2.56-7.44-4.95-11.44-6.83-2.92-1.37-3.55-3.23-3.34-6.1.21-2.98.26-6,0-8.97-.27-3.04.99-4.82,3.51-6.23,3.71-2.07,7.3-4.34,10.94-6.53,1.87-1.13,3.88-2.01,5.69-3.26.55-.38.76-.77.82-1.44.27-2.71.14-5.42.24-8.13.03-.75.09-1.51.21-2.26.24-1.47.88-1.86,2.41-2.12,3.75-.64,7.54-.37,11.31-.49,4.04-.13,8.08-.45,12.13-.36.88.02,1.55-.44,2.21-.8,7.41-4.1,14.83-8.19,22.07-12.59,4.28-2.6,8.51-5.29,12.89-7.7,5.12-2.81,10.47-5.16,15.82-7.49,2.83-1.23,5.59-2.7,8.69-3.2,4.12-.67,8.19-.56,12.27.43,3.2.78,6.41,1.5,9.53,2.57,2.29.79,4.59,1.54,6.88,2.3,3.72,1.23,7.45,2.43,11.17,3.69,3.93,1.33,7.85,2.69,11.77,4.07,2.58.9,5.15,1.8,7.7,2.78,3.81,1.46,7.59,2.99,11.4,4.47,3.51,1.36,7.04,2.66,10.54,4.02,2.92,1.13,5.81,2.34,8.74,3.47,2.55.98,5.13,1.86,7.68,2.82,2.49.94,4.95,1.94,7.44,2.89,1.25.48,2.52.92,3.79,1.36,4.18,1.48,8.33,3.03,12.55,4.37,1.32.42,2.57,1.04,3.91,1.39,1.16.31,1.78.94,1.81,2.28.13,5.79-.41,11.56-.29,17.34.03,1.16-.53,2.13-1.42,2.91-4.01,3.51-7.87,7.21-12.05,10.51-3.39,2.68-6.46,5.71-9.82,8.41-3.02,2.43-5.77,5.24-8.8,7.7-.32.26-.39.53-.23.94,1.21,3.1,2.73,6.05,4.15,9.05.62,1.29,1.2,2.59,1.68,3.95.65,1.83,1.48,3.6,2.19,5.41.7,1.77.51,3.67.27,5.44-.35,2.57-.37,5.14-.49,7.71-.08,1.7-.19,3.4-.44,5.06-.23,1.54-.21,3.08-.36,4.62-.33,3.44-.42,6.9-.52,10.36-.08,2.45-.41,2.87-2.79,3.53-1.87.51-3.79.27-5.68.56-3.52.54-7.06.95-10.6,1.4-2.79.35-5.6.56-8.37,1.05-3.05.54-6.14.47-9.2,1.06-3.41.67-6.92.87-10.38,1.28-2.16.26-4.34.47-6.48.85-.91.16-1.81.12-2.72.26-3.4.52-6.83.84-10.24,1.32-1.77.25-3.53.52-5.3.78-1.26.19-1.84,1.44-2.64,2.27-1.6,1.67-3.01,3.51-4.89,4.89-1.09.8-2.16.95-3.41.18-2-1.24-3.79-2.76-5.66-4.16-.76-.57-1.48-.79-2.5-.66-4.24.55-8.44,1.38-12.7,1.81-3.88.39-7.71,1.37-11.58,1.89-2.95.4-5.87.92-8.81,1.35-3.52.52-7.03,1.06-10.55,1.54-3.83.52-7.6,1.39-11.47,1.68-1.14.09-2.33.38-3.49.59-2.27.42-4.57.7-6.86.99-.73.09-1.52.24-2.24.29-1.12.07-2.42.49-3.41-.16ZM194.44,97.56h0c.18-.55.44-.73.74-1.01,4.73-4.26,9.46-8.52,14.22-12.75,2.85-2.53,5.78-4.96,8.6-7.52,1.59-1.44,3.22-2.81,4.89-4.14,2.04-1.64,3.93-3.46,5.93-5.15,2.09-1.77,4.13-3.6,6.04-5.55.51-.52.72-1.3.3-1.81-.39-.48-.8.23-1.13.49-2.48,1.98-4.91,4.03-7.42,5.96-6.03,4.64-11.87,9.51-17.72,14.37-.4.33-1.59,1.37-2.32,1.68.22-.84,1.46-1.81,1.84-2.15,3.75-3.27,7.58-6.44,11.26-9.77,4.84-4.38,10.18-8.13,15.03-12.49.72-.65.92-1.28.81-2.18-.1-.78-.32-.78-.86-.33-1.62,1.33-3.28,2.62-4.9,3.94-3.57,2.91-7.06,5.93-10.71,8.73-4.13,3.17-7.94,6.69-11.9,10.06-3,2.55-5.94,5.16-8.93,7.72-2.73,2.35-5.48,4.69-8.23,7.02-1.48,1.25-2.98,2.49-4.48,3.72-.23.19-.53.3-.79.44-.11-.45.25-.64.5-.86,1.63-1.46,3.28-2.9,4.92-4.35,3.79-3.34,7.66-6.6,11.34-10.06,3.19-3,6.5-5.85,9.76-8.76,2.32-2.06,4.69-4.06,7.05-6.06,2.15-1.82,4.18-3.79,6.39-5.52,3.45-2.69,6.61-5.72,10.13-8.32.79-.58,1.22-1.32.95-2.38-.13-.52-.18-.68-.72-.32-1.23.81-2.28,1.83-3.4,2.77-2.81,2.38-5.67,4.72-8.5,7.07-4.74,3.95-9.58,7.79-14.18,11.92-2.23,2-4.69,3.76-6.99,5.69-3.07,2.58-6.21,5.07-9.23,7.7-2.21,1.92-4.55,3.69-6.73,5.64-1.4,1.26-2.98,2.37-4.42,3.6-3.58,3.06-7.04,6.27-10.62,9.33-.61.52-1.04,1.18-1.68,1.66-1.28.98-2.5,2.03-3.71,3.09-1.33,1.18-2.61,2.42-3.93,3.62-2.95,2.66-6.03,5.18-8.83,7.99-2.61,2.62-5.48,4.95-8.02,7.65-1.84,1.96-3.98,3.64-5.92,5.51-1.15,1.1-2.31,2.16-3.59,3.12-1.43,1.07-2.08,2.58-2.07,4.37,0,.19.01.45.13.55.18.15.35-.07.5-.2.52-.44,1.03-.87,1.54-1.32,2.69-2.43,5.37-4.86,8.06-7.28,3.58-3.21,7.16-6.43,10.77-9.61,2.96-2.61,5.88-5.26,8.96-7.72,3.42-2.74,6.57-5.78,9.96-8.55,1.96-1.61,3.64-3.56,5.86-4.87.13-.08.25-.17.38-.25.07.25-.17.3-.28.43-.15.18-.33.34-.5.51-4.43,4.62-9.35,8.69-14.13,12.93-4.24,3.76-8.44,7.56-12.64,11.36-3.3,2.98-6.57,5.99-9.87,8.97-2.17,1.96-4.42,3.85-6.54,5.87-1.21,1.15-2.92,2.11-2.45,4.27.04.19,0,.47.12.55.26.17.4-.12.57-.27,2.4-2.16,4.81-4.29,7.19-6.47,4.2-3.85,8.31-7.8,12.58-11.57,4.45-3.92,8.71-8.06,13.59-11.47.13-.09.25-.17.38-.26.09.25-.16.32-.27.44-1.64,1.68-3.48,3.13-5.18,4.75-2.62,2.49-5.29,4.91-7.96,7.34-3.94,3.59-7.65,7.41-11.6,10.99-2.71,2.45-5.24,5.09-8.03,7.43-1.16.98-1.77,1.91-1.61,3.37.02.19-.05.44.18.5.11.03.28-.12.39-.22,1.18-1.05,2.38-2.09,3.52-3.17,2.77-2.62,5.47-5.32,8.28-7.9,2.87-2.64,5.81-5.2,8.77-7.74,4.13-3.56,8.28-7.11,12.47-10.6,3.68-3.06,7.39-6.07,10.97-9.23,1.64-1.45,3.32-2.86,4.99-4.28.21-.18.47-.29.7-.44.12.41-.27.53-.46.71-.57.55-1.21,1.02-1.78,1.57-2.84,2.72-5.79,5.32-8.8,7.86-5.18,4.36-10.34,8.75-15.41,13.25-3.89,3.45-7.64,7.05-11.4,10.65-4.07,3.9-7.77,8.19-12.13,11.8-.33.27-.49.7-.38.93.37.78-.58,1.81.08,2.16.38.2,1.08-.97,1.65-1.51,6.35-6.05,12.7-12.12,19.11-18.11,1.83-1.71,3.56-3.55,5.63-4.99h0c-.2.49-.44.73-.74,1.02-1.49,1.44-3.02,2.84-4.5,4.29-2.27,2.23-4.44,4.57-6.79,6.71-2.31,2.11-4.36,4.47-6.53,6.71-1.96,2.02-4.06,3.93-5.83,6.12-.93,1.16-2.61,1.95-2.25,3.87.06.34-.16.87.16.99.39.15.69-.32.94-.61,1.23-1.4,2.35-2.9,3.66-4.22,3.99-4.03,8.06-7.97,12.06-11.99,3.2-3.21,6.31-6.51,9.5-9.72,4.02-4.06,8.13-8.03,12.12-12.12,3.6-3.69,7.48-7.09,11.16-10.7,2.11-2.08,4.33-4.06,6.51-6.07,1.98-1.82,3.93-3.69,5.99-5.42,2.33-1.96,4.5-4.1,6.87-6.03,2.52-2.04,4.66-4.55,7.22-6.51,2.86-2.2,5.4-4.75,8.24-6.97,2.85-2.22,5.5-4.7,8.26-7.04,3.08-2.62,6.19-5.22,9.28-7.84.39-.33.8-.69.73-1.29-.04-.33.24-.79-.19-.96-.34-.14-.66.16-.93.39-2.25,1.82-4.53,3.61-6.8,5.41-4.83,3.85-9.52,7.87-14.26,11.84-3.8,3.18-7.57,6.4-11.37,9.58-2.4,2.01-4.61,4.25-7.19,6.04ZM89.22,125.81c.46.23.94.44,1.39.7,6.55,3.83,12.62,8.4,18.95,12.55,6.53,4.28,13.02,8.6,19.94,12.25.45.24.54.21.74-.27.63-1.51-.64-2.02-1.45-2.6-2.94-2.08-5.96-4.03-8.94-6.06-4.3-2.92-8.56-5.92-12.9-8.79-3.05-2.02-6.21-3.87-9.32-5.82-.3-.19-.82-.39-.61-.82.08-.16.59.22.88.39,4.65,2.81,9.31,5.62,13.84,8.63,5.87,3.9,11.93,7.52,18.06,11,.21.12.37.32.58.04.5-.67.22-2.98-.43-3.39-1.67-1.06-3.32-2.17-5.05-3.15-5.43-3.07-10.68-6.44-15.96-9.77-6.93-4.37-13.99-8.51-21-12.73-4.26-2.56-8.67-4.86-12.85-7.56-.21-.14-.69-.25-.54-.52.15-.26.5.05.73.18,5.48,3.05,10.98,6.05,16.41,9.19,5.59,3.23,11.09,6.6,16.64,9.9,3.4,2.02,6.78,4.07,10.22,6.02,3.71,2.11,7.27,4.49,11.19,6.23.19.09.49.49.75-.04.45-.91.18-2.16-.72-2.67-2.5-1.42-5.03-2.81-7.54-4.21-1.28-.71-2.59-1.38-3.87-2.11-3.82-2.18-7.62-4.39-11.43-6.57-3.82-2.18-7.66-4.33-11.48-6.52-2.58-1.48-5.07-3.15-7.73-4.47-1.96-.98-3.89-2.05-5.68-3.22-3.92-2.56-8.06-4.7-12.12-6.99-3.41-1.92-6.8-3.89-10.27-5.73-4.64-2.46-9.1-5.26-13.61-7.95-3.66-2.19-7.28-4.43-10.91-6.66-3.57-2.19-7.12-4.43-10.71-6.6-3.35-2.02-6.75-3.97-10.13-5.95-2.81-1.65-5.61-3.31-8.43-4.95-.32-.19-.8-.69-1.09-.16-.28.52-.38,1.18.39,1.63,1.7,1,3.33,2.12,5.02,3.12,5.28,3.11,10.62,6.12,15.88,9.28,6.56,3.95,13.16,7.84,19.57,12.05.3.2.97.29.78.68-.15.3-.68-.15-1.03-.31-.07-.03-.13-.09-.2-.13-5.11-2.97-10.22-5.94-15.35-8.9-4.8-2.77-9.66-5.46-14.42-8.3-3.21-1.91-6.55-3.56-9.79-5.4-.27-.15-.58-.36-.85-.05-.4.46-.09,1.86.5,2.17,3.8,1.98,7.46,4.18,11.07,6.49,3.34,2.13,6.76,4.14,10.15,6.2.26.16.77.37.62.6-.21.32-.6-.05-.89-.21-1.61-.87-3.21-1.76-4.81-2.64-3.37-1.86-6.73-3.74-10.11-5.58-1.91-1.04-3.87-2-5.8-3-.59-.31-.81-.17-.82.53,0,.63.21,1.08.71,1.39.57.35,1.17.66,1.76.99,4.52,2.55,9.04,5.12,13.44,7.87,3.39,2.12,6.75,4.3,10.12,6.46.72.46,1.67.62,2.06,1.52-.91-.13-1.7-.55-2.48-1.02-3.18-1.95-6.27-4.05-9.55-5.8-4.98-2.66-9.86-5.47-14.73-8.3-.42-.24-.92-.78-1.31-.32-.32.39-.1,1.08.21,1.53.21.31.57.55.91.75,3.42,2.06,6.82,4.16,10.29,6.14,3.61,2.06,6.96,4.53,10.55,6.6,3.77,2.18,7.32,4.67,10.96,7.05,4.14,2.7,8.2,5.52,12.32,8.23,3.1,2.04,6.27,3.97,9.38,5.99,2.51,1.63,4.96,3.34,7.46,4.97,3.02,1.97,6.09,3.85,9.09,5.85,3.89,2.58,7.72,5.24,11.59,7.84,2.62,1.76,5.34,3.38,7.91,5.2,3.68,2.61,7.47,5.05,11.07,7.77,4.37,3.31,8.98,6.28,13.19,9.8,1.48,1.24,3.31,1.98,4.75,3.3.9.82,1.9,1.55,2.93,2.19.69.42,1.47,1.44,2.04,1.15.77-.4.21-1.63.44-2.45.26-.91-.05-1.42-.77-1.89-4-2.64-7.98-5.32-11.97-7.97-5.5-3.64-11-7.26-16.51-10.88-7.02-4.61-13.88-9.45-20.94-14-6.15-3.96-12.19-8.12-18.14-12.38-6.27-4.49-12.71-8.74-19.08-13.1-.32-.22-.68-.4-.83-.8.44-.07.74.21,1.06.42,6.19,4.06,12.46,8.01,18.54,12.24,3.11,2.17,6.17,4.43,9.32,6.53,4.06,2.7,8.2,5.27,12.29,7.93,5.01,3.26,9.99,6.57,15,9.82,4.25,2.76,8.55,5.43,12.79,8.2,4.71,3.08,9.38,6.23,14.08,9.32,1.55,1.02,3.15,1.98,4.73,2.97.23.14.64.57.71.02.09-.69.41-1.49-.41-2.08-1.54-1.12-3.08-2.25-4.63-3.35-4.69-3.35-9.43-6.62-14.24-9.81-6.73-4.46-13.38-9.03-20.06-13.58-.56-.38-1.09-.6-1.54-1.38h0ZM106.46,10.23c-1.26-.13-2.55.27-3.79.87-2.98,1.46-5.92,3.02-8.94,4.39-6.08,2.75-11.72,6.25-17.39,9.72-1.66,1.01-3.2,2.23-4.93,3.1-3.6,1.82-7,3.99-10.57,5.85-2.36,1.24-4.67,2.63-7.03,3.9-2.09,1.12-4.13,2.34-6.25,3.41-3.35,1.7-6.51,3.78-9.91,5.37-4.41,2.06-8.68,4.39-12.94,6.71-6,3.28-11.81,6.92-17.69,10.42-.29.17-.8.25-.76.66.04.39.47.62.83.8,1.38.68,2.85,1.22,4.14,2.05,4.9,3.15,10.13,5.71,15.11,8.72,6.03,3.65,12.09,7.25,18.17,10.81,4.91,2.87,9.87,5.67,14.84,8.45,2.69,1.5,5.45,2.88,8.12,4.39,3.06,1.73,6.24,3.25,9.25,5.08,1.58.96,3.19,1.91,4.83,2.77,2.94,1.54,5.74,3.3,8.65,4.89,3.01,1.66,6.05,3.27,8.99,5.09,2.54,1.57,5.22,2.93,7.83,4.4,1.62.91,3.24,1.84,4.85,2.77,3.56,2.05,7.18,3.98,10.79,5.94,2.61,1.41,5.22,2.8,7.85,4.18.45.23.98.54,1.45.12.62-.56,1.48-.92,1.96-1.5,1.41-1.73,3.31-2.9,4.85-4.47,2.43-2.47,5.11-4.7,7.61-7.11.59-.57,1.4-.75,1.91-1.4,1.69-2.1,3.85-3.72,5.79-5.56,1.89-1.8,4.03-3.33,5.87-5.17,2.05-2.05,4.42-3.69,6.48-5.73,1.77-1.75,3.75-3.29,5.64-4.91,2.81-2.4,5.68-4.72,8.42-7.19,4-3.61,8.24-6.91,12.4-10.32,2.42-1.98,4.88-3.92,7.33-5.87,3.19-2.54,6.39-5.08,9.52-7.69,3.24-2.7,6.57-5.28,9.8-7.98,4.55-3.82,9.1-7.63,13.87-11.17.25-.19.65-.32.64-.66-.02-.41-.49-.49-.79-.6-2.26-.85-4.59-1.45-6.84-2.38-2.73-1.13-5.64-1.83-8.42-2.85-3.3-1.21-6.55-2.58-9.83-3.83-3.36-1.28-6.79-2.39-10.1-3.79-4.45-1.88-9.02-3.47-13.46-5.39-5.16-2.23-10.52-3.99-15.78-5.99-2.33-.88-4.64-1.82-6.98-2.62-2.13-.72-4.31-1.39-6.39-2.21-3.94-1.56-8.01-2.71-12.01-4.06-4-1.36-8.09-2.52-12.02-4.04-3.17-1.23-5.69-.79-7.87,1.81-.51.61-1.11,1.15-1.69,1.7-1.7,1.6-3.6,1.79-5.67.78-1.94-.95-3.68-2.21-5.54-3.28-1.27-.73-2.59-1.18-4.17-1.39ZM155.79,154.39c.68.04,1.34.02,2.02-.1,1.87-.33,3.76-.59,5.65-.79,3.51-.37,7.03-.63,10.53-1.03,5.17-.58,10.34-1.16,15.49-1.9,2.31-.33,4.63-.55,6.93-.92,1.6-.26,3.18-.57,4.8-.74,2.27-.23,4.53-.61,6.8-.91.43-.06.74-.14.78-.69.09-1.15.22-2.3.38-3.44.07-.5-.05-.51-.5-.42-1.08.23-2.18.39-3.28.55-4.06.62-8.13,1.22-12.19,1.84-2.73.42-5.46.87-8.2,1.27-2.66.39-5.33.7-7.98,1.13-2.73.44-5.44,1-8.19,1.27-.22.02-.44-.04-.67-.06.13-.25.37-.25.6-.32,4.47-1.39,9.14-1.88,13.7-2.8,3.64-.73,7.32-1.31,11.01-1.82,4.46-.61,8.89-1.52,13.32-2.31.74-.13,1.53-.18,2.19-.5.98-.48.23-1.42.32-2.14.22-1.76.07-1.85-1.73-1.51-.12.02-.22.1-.34.12-2.78.43-5.55.86-8.33,1.27-.17.03-.36-.05-.55-.07.1-.2.28-.23.49-.28,1.08-.23,2.16-.47,3.24-.72,2.35-.55,4.71-1.05,7.03-1.68,1.12-.31.75-1.44.76-2.21,0-.76-.77-.57-1.22-.45-3,.79-6.12.84-9.16,1.34-3.16.52-6.33.95-9.5,1.42-2.27.33-4.53.66-6.8.97-.21.03-.57.13-.61-.15-.03-.28.37-.23.56-.29.68-.19,1.39-.27,2.08-.45,4.29-1.12,8.69-1.7,13.04-2.57,3.57-.71,7.17-1.28,10.76-1.91.39-.07.92-.05.96-.53.07-.83.16-1.72-.1-2.47-.11-.31-1.04.06-1.61.18-.89.19-1.82.18-2.7.38-5.02,1.12-10.1,1.86-15.16,2.76-5.53.98-11.09,1.77-16.65,2.61-2.98.45-5.98.74-8.94,1.3-1.65.32-3.54,0-4.87,1.47-.87.97-1.8,1.89-2.69,2.84-.1.11-.24.3-.21.38.1.24.33.12.51.08,3.23-.61,6.51-.87,9.74-1.52,2.33-.47,4.71-.7,7.06-1.03.19-.03.55.03.55.07.03.37-.31.27-.51.33-1.71.47-3.47.73-5.21,1.03-3.73.64-7.45,1.36-11.18,2.06-.96.18-2.12.17-2.83.71-1.35,1.03-2.46,2.38-3.65,3.62-.15.16-.3.47-.24.63.1.26.4.09.62.05,2.73-.45,5.47-.85,8.2-1.35,6.74-1.23,13.46-2.55,20.2-3.73,3.2-.56,6.37-1.32,9.62-1.54.15,0,.31.02.46.04-.13.07-.26.18-.4.21-.81.15-1.65.22-2.45.44-6.36,1.78-12.95,2.44-19.37,3.97-6.13,1.46-12.32,2.69-18.49,3.98-.97.2-1.6.8-2.23,1.45-.78.8-1.54,1.62-2.32,2.42-.71.73-1.42,1.44-2.13,2.17-.14.14-.31.31-.19.51.05.08.28.09.42.07,1.46-.24,2.92-.42,4.39-.6,2.71-.34,5.44-.44,8.12-1.01ZM68.61,162.04s0,.04.01.06c.12,0,.24,0,.36,0,.23-.01.46-.03.69-.04-.24.11-.46.25-.71.31-1.39.31-2.79.57-4.17.9-3.79.91-7.58,1.86-11.37,2.78-.4.1-.54.26-.45.66.08.35.21.73.13,1.05-.32,1.33.45,1.18,1.3,1.05,3.19-.49,6.39-.96,9.58-1.43,1.45-.21,2.9-.38,4.35-.61,2.61-.42,5.21-.9,7.82-1.3,3.9-.58,7.81-1.08,11.71-1.67,3.67-.56,7.33-1.25,11.03-1.65,2.04-.22,4.1-.52,6.11-.88,2.62-.46,5.24-.76,7.87-1.13,1.8-.25,3.59-.62,5.38-.94.26-.05.61-.11.66-.39.02-.14-.26-.37-.45-.5-1.33-1-2.67-1.99-4.01-2.99-.34-.25-.73-.37-1.13-.26-1,.28-2.03.35-3.05.51-4.26.66-8.49,1.47-12.75,2.07-5.59.79-11.14,1.92-16.77,2.47-.14.01-.28.06-.42.1,0-.31.26-.21.43-.26,5.01-1.2,10.08-2.02,15.15-2.9,5.1-.88,10.19-1.88,15.28-2.84.35-.07.91.25.98-.32.03-.22-.41-.54-.69-.75-2.37-1.71-4.77-3.36-7.1-5.12-.52-.39-1-.49-1.54-.39-5.75,1.04-11.5,2.07-17.25,3.15-4.88.91-9.75,1.89-14.63,2.81-2.67.51-5.39.82-8.03,1.48-2.49.62-5.01,1.08-7.52,1.56-1.31.25-2.58.18-2.23,2.14.12.68.06,1.12.95.95,3.96-.77,7.95-1.39,11.89-2.26,5.26-1.16,10.58-2.02,15.87-3,5.38-.99,10.79-1.83,16.18-2.76.58-.1,1.13-.22,1.7-.05-.43.4-1.01.39-1.53.48-7.1,1.34-14.14,2.9-21.18,4.5-4.3.98-8.63,1.83-12.95,2.73-3.28.69-6.55,1.44-9.83,2.18-.95.22-1.63,2.05-1.08,2.79.15.2.34.14.54.11,1.64-.26,3.28-.53,4.92-.79,3.32-.54,6.64-1.08,9.95-1.62ZM54.73,141.25c1.91-.34,3.81-.68,5.72-1.04,3.04-.56,6.07-1.12,9.1-1.7,2.21-.43,4.41-.93,6.63-1.33,2.99-.54,6.02-.89,8.97-1.66.19-.05.51-.06.54-.16.08-.26-.19-.4-.38-.54-1.49-1.04-2.97-2.1-4.48-3.11-2.63-1.77-5.29-3.49-7.91-5.26-2.32-1.56-4.59-3.19-6.92-4.73-3.28-2.16-6.61-4.24-9.88-6.42-3.63-2.42-7.2-4.92-10.8-7.38-.19-.13-.49-.31-.63-.24-.33.16-.11.47-.04.73.67,2.65,1.42,5.29,2.16,7.92,1.37,4.85,2.43,9.77,3.93,14.58.98,3.14,1.7,6.36,2.91,9.43.19.47.36,1.02,1.08.88ZM179.44,119.45c3.65-.62,7.23-1.21,10.81-1.83,3.35-.59,6.71-1.14,10.09-1.55,2.94-.35,5.87-.8,8.81-1.2.85-.12,1.13-.55.8-1.36-.55-1.35-1.09-2.71-1.66-4.06-1.56-3.69-3.14-7.37-4.72-11.05-.28-.66-.47-1.32-1.45-.54-.51.41-1.06.81-1.55,1.25-1.81,1.63-3.69,3.2-5.36,4.97-2.17,2.27-4.8,4.01-6.94,6.31-1.16,1.24-2.45,2.35-3.68,3.52-1.77,1.68-3.55,3.35-5.31,5.04-.1.1-.14.25-.21.38.15.05.29.09.38.12ZM53.61,149.37c-.21.88.33.82,1.01.72,3.67-.57,7.36-1.07,11.03-1.66,5.24-.84,10.48-1.74,15.72-2.6,2.03-.34,4.06-.65,6.09-.97.14-.02.43.03.43.08.04.31-.23.24-.41.27-5.22,1.04-10.43,2.19-15.67,3.08-5.93,1.01-11.75,2.59-17.71,3.46-.25.04-.43.23-.46.48-.1.7-.17,1.41-.27,2.11-.09.68.16.96.86.8,1.86-.43,3.78-.45,5.65-.76,4.37-.73,8.71-1.59,13.07-2.34,6.31-1.09,12.65-2.06,18.93-3.35,3.06-.63,6.15-1.16,9.22-1.77.3-.06.75.01.88-.4.03-.1-.2-.32-.35-.43-2.2-1.55-4.46-3.03-6.55-4.73-.4-.32-.95-.44-1.57-.36-3.22.37-6.37,1.15-9.58,1.61-5.08.74-10.13,1.74-15.19,2.63-4.55.79-9.09,1.61-13.65,2.33-1.11.18-1.52.69-1.46,1.8ZM172.2,130.62c-.42.07-1.61.25-1.93.22.5-.45,1.53-.64,1.81-.7,2.32-.49,4.66-.92,6.99-1.34,4.71-.85,9.42-1.67,14.12-2.54,3.58-.66,7.15-1.35,10.73-2.03,2.1-.4,4.2-.76,6.29-1.22,1.18-.26.67-1.31.67-2,0-.81-.62-.4-1.06-.3-1.23.27-2.47.54-3.71.76-4.03.73-8.06,1.47-12.1,2.15-3.62.61-7.26,1.14-10.89,1.7-2.77.43-5.54,1.02-8.33,1.22-3.07.22-5.23,1.67-7.28,3.84-1.4,1.49-2.68,3.13-4.3,4.43-.24.19-.51.48-.35.81.06.12.45.13.67.1,2.11-.34,4.24-.6,6.32-1.06,4.25-.95,8.56-1.57,12.85-2.29,5.66-.94,11.3-1.99,16.94-3.02,3.03-.55,6.04-1.2,9.08-1.74,1.59-.28,1.9-.6,1.83-2.27-.02-.54-.15-.63-.7-.54-3.31.56-6.65.94-9.93,1.64-3.68.78-7.43,1.05-11.13,1.73-3.07.57-6.17.91-9.26,1.36-2.46.36-4.92.74-7.33,1.1ZM51.42,144.05c-.2-.85-.23-1.33-.47-2.12-1.47-4.88-2.62-9.85-3.95-14.77-1.11-4.1-2.02-8.26-3.28-12.33-.83-2.71-1.45-5.49-2.28-8.2-.2-.67-.19-1.62-.99-1.93-.76-.3-1.33-.86-2.01-1.26-.23-.13-.39-.51-.7-.34-.34.19-.19.56-.12.86.87,3.73,1.74,7.47,2.41,11.24.04.22.18.43.12.68-.32-.09-.32-.39-.39-.62-1.27-3.88-2.11-7.88-3.02-11.85-.25-1.09-.86-1.73-1.7-2.27-.19-.12-.48-.4-.74-.13-.19.19-.06.44,0,.67.74,2.82,1.49,5.64,2.21,8.46,1.83,7.14,3.78,14.25,5.43,21.43,1.07,4.63,2.37,9.22,3.62,13.81,1.47,5.36,2.54,10.82,4.15,16.14.25.84.38,1.72.75,2.53.4-.98.37-2.02.36-3.05,0-.04-.01-.08-.02-.12-.49-3.94-1.43-7.8-2.37-11.65-1.41-5.76-2.98-11.49-4.42-17.25-.74-2.94-1.36-5.92-2.01-8.88-.05-.22-.17-.62.09-.68.19-.05.2.36.25.6.29,1.23.57,2.46.89,3.68,1.54,5.81,3.06,11.62,4.65,17.42.86,3.13,1.84,6.22,2.77,9.33.05.18.04.43.29.45.04,0,.14-.26.16-.41.18-1.14.29-2.27-.07-3.42-.45-1.43-.8-2.9-1.16-4.36-1.53-6.03-3-12.08-4.58-18.1-1.64-6.24-3.48-12.43-4.86-18.73-.03-.15-.07-.29-.1-.44.1.14.25.26.3.42.31.98.61,1.96.88,2.96,3.01,11.01,6.24,21.97,9.02,33.04.13.53.25,1.13.68,1.5.14.12.23-.33.31-.84.09-.61-.09-1.2-.12-1.48ZM53.86,145.67c-.01.6-.07,1.28.74,1.05.95-.26,1.92-.06,2.84-.27,4.78-1.09,9.62-1.91,14.43-2.87,5.51-1.1,11.04-2.09,16.57-3.07,1.09-.19,2.16-.46,3.24-.69.24-.05.59-.21.23-.39-1.12-.58-1.87-1.84-3.44-1.64-2.23.29-4.39.95-6.62,1.28-3.66.54-7.27,1.38-10.91,2.06-5.32.99-10.57,2.35-15.93,3.18-.75.12-1.41.46-1.16,1.37ZM37.07,40c-3.15-.25-6.29.33-9.44.25-.27,0-.83-.21-.64.48.72,2.5,1.44,5,1.94,7.56.08.43.34.5.7.29,1.84-1.1,3.8-1.97,5.7-2.96,3.23-1.7,6.41-3.48,9.61-5.23.23-.13.65-.18.6-.45-.06-.32-.47-.18-.72-.17-2.58.06-5.16.39-7.75.24ZM196.54,121.36s.01.06.02.09c2.71-.54,5.42-1.04,8.11-1.63,1.93-.43,3.92-.6,5.82-1.2.57-.18.78-.5.71-1.04-.08-.62-.61-.44-.94-.4-1.49.17-2.98.35-4.45.62-2.98.55-5.99.89-8.98,1.47-4.03.79-8.11,1.28-12.17,1.9-2.18.33-4.36.92-6.54.96-2.56.04-4.01,1.56-5.48,3.23-.1.11-.14.27-.21.41.15-.01.31-.02.46-.04,1.35-.24,2.7-.52,4.06-.73,4.23-.63,8.41-1.51,12.6-2.33,2.33-.46,4.66-.87,6.99-1.3ZM118.14,14.24c1.25.04,1.92-.68,2.68-1.24,1.51-1.11,2.44-2.86,4.17-3.71.14-.07.33-.17.23-.33-.06-.1-.29-.08-.44-.13-2.92-.83-5.87-1.42-8.94-1.55-2.48-.1-4.74.52-7.01,1.29-.15.05-.28.12-.42.19.09.07.17.16.27.19,2.68.93,4.65,2.98,6.99,4.45.84.53,1.72.74,2.47.84ZM26.88,49.38c-.31-1.37-.6-2.68-.9-3.99-.03-.12-.04-.37-.26-.31-.08.03-.14.25-.15.39-.11,1.57.2,3.17-.22,4.73-.05.19.11.49.3.38.5-.31,1.25-.43,1.23-1.2Z"/>
        <path d="M129.71,122.85c-.12-.01-.24,0-.25-.03-.09-.21.05-.35.16-.52,1.12-1.63,2.63-2.9,4.04-4.23,3.65-3.42,7.4-6.74,11.13-10.08,7-6.26,14.15-12.34,21.47-18.22.96-.77,1.96-1.49,2.94-2.23.09-.07.19-.11.29-.16-.07.12-.11.26-.2.35-2.24,2.08-4.46,4.18-6.73,6.23-2.06,1.86-4.15,3.68-6.24,5.51-2.42,2.1-4.87,4.16-7.26,6.29-3.12,2.77-6.22,5.58-9.31,8.4-3.03,2.76-5.99,5.58-9.16,8.17-.27.22-.61.37-.88.52Z"/>
        <path d="M164.84,29.88c-.14-.04-.29-.09-.43-.12-2.58-.52-4.94-1.66-7.41-2.53-5.23-1.83-10.43-3.74-15.64-5.61-.62-.22-1.32-.29-1.68-.96.63-.24,1.14.2,1.67.37,7.69,2.53,15.38,5.09,22.8,8.37.25.11.48.25.72.37-.01.04-.02.07-.04.11Z"/>
        <path d="M134.99,107.4c-.14.15-.27.3-.41.43-3.87,3.78-7.73,7.56-11.6,11.33-.41.4-1.19,1.06-1.4.78-.37-.48.31-1.01.72-1.42,3.9-3.91,8-7.59,12.31-11.03.12-.1.25-.19.37-.29,0,.06,0,.13,0,.19Z"/>
        <path d="M170.63,86.57c-.05.07-.09.13-.14.19-.02-.05-.06-.1-.06-.16,0-.03.04-.09.06-.09.05,0,.09.04.14.06Z"/>
        <path d="M80.23,120.53c-1.75-.77-3.53-2.05-5.14-3.04-8.98-5.5-17.94-11.03-26.88-16.59-3.34-2.08-6.6-4.27-9.9-6.42-.16-.1-.27-.26-.41-.4.25-.22.43.03.59.13,4.1,2.49,8.18,5.01,12.28,7.49,4.94,2.99,10.01,5.78,14.81,8.99,4.2,2.8,8.49,5.46,12.6,8.38.6.43,1.54.83,2.05,1.46h0Z"/>
        <path d="M47.54,96.92c.2.1.39.18.56.28,6.84,4.09,13.67,8.21,20.54,12.26,2.8,1.65,5.54,3.37,8.22,5.21.2.14.5.2.56.51-.25-.08-.53-.13-.75-.26-3.42-2.02-6.84-4.04-10.24-6.08-6-3.6-11.99-7.2-17.98-10.81-.34-.2-.66-.44-.98-.68-.08-.06-.12-.18-.19-.28.09-.05.18-.1.27-.15Z"/>
        <path d="M176.5,109.23c-.07-.02-.2-.06-.19-.07.02-.11.04-.23.1-.31.5-.57.97-1.17,1.52-1.68,7.03-6.42,14.07-12.84,21.13-19.23.57-.52,1.07-1.18,1.9-1.36-.04.93-.88,1.25-1.4,1.78-4.05,4.05-8.43,7.73-12.7,11.54-2.82,2.52-5.59,5.09-8.39,7.62-.65.59-1.32,1.14-1.98,1.71Z"/>
        <path d="M172.01,113.38c-.23.21-.48.47-.77.69-.14.1-.37-.02-.27-.18.17-.29.43-.54.69-.76.14-.12.29-.04.35.25Z"/>
      </g>
    </g>
  </g>
</svg>