<?xml version="1.0" encoding="UTF-8"?>
<svg xmlns="http://www.w3.org/2000/svg" baseProfile="tiny" version="1.2" viewBox="0 0 213.73 177.34">
  <!-- Generator: Adobe Illustrator 28.6.0, SVG Export Plug-In . SVG Version: 1.2.0 Build 709)  -->
  <g>
    <g id="Layer_1">
      <path d="M154.18,100.63c7.51-.1,15.01.23,22.51.55,6.46.28,12.93.29,19.39.41,2.76.05,4.07.96,4.97,3.61,1.23,3.63,1.28,7.38.77,11.12-.27,2-1.28,2.78-3.48,2.89-4.94.24-9.88.17-14.82-.04-4.3-.18-8.61-.36-12.92-.34-3.11.02-6.22.33-9.34.17-.31-.02-.71.01-.82.36-.11.36.26.52.5.7.97.7,1.99,1.33,2.99,1.97,3.9,2.49,7.8,5,11.59,7.66,1.97,1.38,4.01,2.6,6.05,3.85,3.26,2.01,6.4,4.22,9.66,6.22,2.51,1.54,3.05,3.6,2.39,6.15-.9,3.45-2.62,6.5-4.87,9.24-1.6,1.95-2.78,2.21-5.02.93-3.19-1.82-6.33-3.73-9.42-5.71-4.9-3.14-9.65-6.53-14.64-9.52-3.36-2.01-6.61-4.19-10.07-6.04-.38-.2-.79-.79-1.21-.32-.28.32.22.69.43,1,4.27,6.27,8.06,12.85,12.48,19.02,1.72,2.4,3.26,4.93,4.99,7.31,1.44,1.98,1.74,4.6-.38,6.99-2.3,2.6-4.92,4.77-8.06,6.27-2.08.99-3.12.8-4.58-1.03-1.2-1.49-2.32-3.05-3.41-4.63-1.49-2.17-2.93-4.38-4.38-6.57-3.74-5.66-7.49-11.3-11.46-16.81-4.39-6.09-8.71-12.23-12.8-18.54-1.81-2.8-3.88-5.44-5.52-8.37-.52-.93-1.24-1.29-2.34-1.29-3.67.02-7.35-.11-11.02-.12-5.92-.02-11.81-.53-17.72-.86-5.66-.32-11.32-.72-16.97-1.2-5.58-.48-11.18-.36-16.75-.91-5.71-.57-11.41-1.23-17.13-1.78-5.73-.55-11.46-1-17.2-1.51-3.74-.34-7.47-.74-11.21-1.05-1.49-.13-2.69-.71-3.23-2.1-1.15-2.96-1.68-6-.52-9.11.82-2.2,1.94-2.97,4.32-2.94,3.04.04,6.09-.07,9.11.19,8.52.71,17.08.41,25.59,1.16,3.58.31,7.2.07,10.78.35,6.86.54,13.72.66,20.59.95,3.9.16,7.82.27,11.72.58,3.1.25,6.23.16,9.35.19.43,0,1.09.22,1.22-.37.11-.49-.48-.77-.85-1.04-2.14-1.54-4.3-3.06-6.45-4.58-2.6-1.85-5.21-3.69-7.81-5.55-.94-.67-1.92-1.08-3.1-1.08-3.36-.01-6.71-.17-10.06-.12-3.29.05-6.54-.38-9.81-.54-4.94-.24-9.87-.67-14.81-1.01-7.81-.55-15.62-1.1-23.43-1.64-1.59-.11-3.19-.15-4.79-.2-1.53-.04-2.68-.8-3.2-2.14-1.06-2.77-1.85-5.6-.86-8.63.95-2.92,1.99-3.66,5-3.75,7.59-.21,15.17.57,22.76.37,3.91-.1,7.83.06,11.75.11.96.01,1.92.02,2.88.03.32,0,.7.02.76-.38.02-.16-.19-.4-.35-.54-.53-.48-1.07-.96-1.64-1.39-9.05-6.84-18.09-13.69-27.19-20.48-1.44-1.07-2.27-2.28-1.91-4.05.62-3.03,1.71-5.81,4.32-7.77,2.02-1.51,3.24-1.55,5.45-.26,5.12,2.98,9.75,6.67,14.69,9.92,7.88,5.17,15.74,10.38,23.48,15.76,3.67,2.55,7.36,5.09,11.03,7.64,1.03.72,2,1.82,3.5,1.61-.08-1.34-.94-2.34-1.6-3.39-2.38-3.78-4.66-7.63-7.09-11.39-2.68-4.15-5.01-8.52-7.46-12.81-3.56-6.25-7.09-12.51-10.62-18.77-2.32-4.1-4.61-8.22-6.95-12.32-.68-1.18-.63-2.37.08-3.4,1.73-2.55,3.79-4.73,6.95-5.56,2.58-.68,3.74-.25,5.29,1.91,3.78,5.27,6.78,11.03,10.51,16.32,3.73,5.3,6.88,10.95,10.51,16.31,2.41,3.57,4.5,7.35,6.81,10.99,4.45,7.01,8.98,13.98,13.41,21,.82,1.3,1.79,1.76,3.31,1.81,10.95.39,21.9.22,32.84-.03,6.53-.15,13.08-.06,19.6-.39,8.94-.45,17.89-.57,26.84-.42,6.55.11,13.1-.11,19.64-.09.48,0,.96,0,1.44.04,1.81.17,3.15.99,3.87,2.74,1.1,2.7,1.57,5.52,1.54,8.42-.01,1.2-.04,2.4-.19,3.59-.21,1.7-1.05,2.57-2.71,2.86-.94.16-1.9.25-2.86.29-5.99.28-11.98.11-17.98.15-3.99.03-7.97-.07-11.97.33-3.97.4-7.99.26-11.98.33-4.79.09-9.58.16-14.37.22-4.47.05-8.94.07-13.41-.2-4.79-.28-9.59-.2-14.38-.02-1.67.06-3.34.07-5.01.17-.95.05-1.17.45-.68,1.22,1.12,1.75,2.28,3.47,3.46,5.18.27.38.65.72,1.05.97,2.36,1.5,4.75,2.96,7.12,4.44.7.44,1.44.58,2.27.59,6.3.04,12.6.14,18.9.18,1.43,0,2.87-.17,4.3-.26ZM84.39,88.14c-.02-.09-.04-.19-.06-.28,0,.04-.04.09-.02.11.03.05.09.08.14.12l-.05.05ZM185.14,153.46c.25.06.33-.05.27-.28-.32-4.44-.66-8.88-.95-13.33-.06-.95-.69-1.38-1.36-1.82-2.59-1.7-5.19-3.4-7.79-5.1-.47-.3-.97-.55-1.45-.84-.78-.46-.97.03-1.04.66-.04.39-.04.8-.03,1.19.1,3.74.22,7.47.3,11.21.02.91.42,1.49,1.16,1.93,1.23.74,2.4,1.58,3.66,2.24,2.46,1.29,4.5,3.32,7.23,4.13ZM45.71,72.05c-.27-.06-.36.04-.29.3,1.8,3.38,4.23,6.36,6.13,9.67.77,1.34,2,1.59,3.45,1.66,4.85.24,9.72.02,14.57.52,1.03.11,2.07.04,3.11.04.51,0,.73-.28.5-.76-.17-.36-.42-.67-.65-1-1.74-2.58-3.61-5.08-5.17-7.76-.9-1.55-1.88-2.49-3.71-2.37-.24.02-.48-.03-.72-.03-5.74-.09-11.49-.17-17.24-.26ZM182.1,84.79c3.66,0,6.14.03,8.61-.01,1.31-.02,1.47-.34.74-1.4-2.3-3.35-4.64-6.67-6.93-10.03-.57-.83-1.35-1.12-2.24-1.13-2.7-.03-5.41-.02-8.11.03-3.5.06-7.01.17-10.51.27-1.44.04-2.87.08-4.3.18-1.16.08-1.32.41-.63,1.29,2.71,3.45,5.48,6.85,8.18,10.31.49.63,1.02.95,1.81.92.72-.02,1.44.03,2.15,0,4.14-.11,8.27-.55,11.23-.44ZM171.31,140.29c-.1-2.87-.25-5.73-.27-8.6-.01-1.27-.52-2.07-1.57-2.73-5.26-3.32-10.49-6.69-15.74-10.01-1.14-.72-2.35-1.34-3.56-1.96-.72-.37-1-.18-1,.66,0,.56.05,1.12.1,1.67.34,3.25.89,6.49.87,9.77,0,2.11.94,3.49,2.79,4.55,5.54,3.19,11.01,6.48,16.28,10.11.39.27.81.51,1.25.72.58.27.91.04.92-.59.01-1.2-.03-2.96-.06-3.6ZM170.06,116.31c3.03-.07,6.86.05,10.29.12,1.31.02,1.48-.31.78-1.37-2-3.08-4.12-6.08-6.01-9.22-.89-1.48-1.9-2.09-3.65-2.07-5.34.04-10.69-.12-16.03-.17-1.74-.02-3.48.04-5.22.09-.46.01-1.09-.13-1.33.33-.31.59.3.99.58,1.45.13.2.31.36.45.56,1.99,2.8,4.37,5.31,6.11,8.28,1.11,1.9,2.84,2.03,4.71,2.02,3.1-.02,6.21,0,9.31,0ZM151.64,145.56c-.17-.9-.6-1.54-1.06-2.21-3.02-4.4-5.99-8.84-9-13.25-1.12-1.64-2.31-3.24-3.51-4.82-.52-.68-.8-.62-1.15.15-.13.29-.21.6-.31.9-1.18,3.55-2.3,7.13-3.58,10.64-.53,1.45-.3,2.52.58,3.73,2.62,3.61,5.15,7.29,7.69,10.96,1.4,2.03,2.72,4.13,4.12,6.17.63.92,1.03.87,1.44-.13,1.52-3.77,3.02-7.54,4.52-11.32.12-.29.2-.6.28-.82ZM138.03,85.3s0,0,0,0c3.12,0,6.23.03,9.35-.01,1.13-.02,1.32-.4.62-1.31-2.33-3.04-4.78-5.99-7.05-9.08-1.16-1.59-2.82-1.73-4.59-1.72-1.78.01-3.49,0-6.19.09-2.95.1-5.89.14-8.84.19-.4,0-.8-.09-1.19-.03-.44.06-.74.31-.47.81.19.35.39.7.64,1.01,2.29,2.97,4.61,5.92,6.88,8.9.64.84,1.39,1.2,2.45,1.18,2.79-.05,5.59-.02,8.39-.02ZM126.75,110.43c.3-1.47-.44-2.22-.96-2.97-3.12-4.44-6.19-8.9-9.06-13.5-.22-.35-.46-.82-.84-.72-.28.08-.51.58-.64.94-1.35,3.83-2.68,7.67-4.01,11.51-.23.66-.06,1.24.32,1.81.84,1.27,1.63,2.56,2.46,3.83,2.42,3.66,4.82,7.33,7.28,10.97.71,1.06,1.14,1,1.56-.21,1.1-3.16,2.14-6.35,3.2-9.52.28-.83.54-1.67.69-2.13ZM41,99.92c-1.06,0-1.86-.02-2.66,0-.99.03-1.17.32-.67,1.14,1.81,2.99,3.65,5.97,5.47,8.96.63,1.04,1.53,1.54,2.74,1.61,5.49.32,10.98.67,16.46,1,.48.03.96.05,1.44.03.85-.04.97-.27.5-1.03-2.03-3.24-4.1-6.45-6.08-9.72-.54-.9-1.26-1.03-2.17-1.12-5.08-.54-10.21-.26-15.02-.88ZM87.65,48.5c-.25-.49-.46-1.01-.75-1.48-3.09-4.93-6.19-9.86-9.31-14.77-.58-.91-.88-.85-1.37.26-1.35,3.06-2.65,6.15-4.03,9.2-.58,1.29-.45,2.43.28,3.6,1.6,2.56,3.16,5.15,4.74,7.73,1.5,2.45,2.99,4.9,4.52,7.32.48.75.7.71,1.06-.13,1.54-3.59,3.06-7.18,4.58-10.78.12-.29.19-.61.29-.95ZM83.12,102.1c-2.31-.11-4.62-.23-6.93-.31-.95-.03-1.17.3-.88,1.13.08.22.19.44.31.65,1.71,3.05,3.44,6.1,5.14,9.16.38.69.84.93,1.66,1.07,3.24.54,6.52.21,9.77.63,1.96.26,3.98.14,5.97.12.98-.01,1.1-.29.67-1.2-.17-.36-.39-.69-.58-1.05-1.75-3.24-4.15-6.04-6.14-9.12-.51-.8-1.26-.89-2.08-.89-2.31,0-5.28-.1-6.93-.18ZM96.96,63.67c-.55.1-.75.57-.95.99-1.5,3.08-2.94,6.19-4.47,9.27-.48.96-.48,1.71.12,2.65,2.48,3.9,4.87,7.86,7.31,11.79.33.54.79,1,1.19,1.5.27.32.56.3.76-.04.32-.55.62-1.11.9-1.69,1.46-2.94,2.28-6.13,3.51-9.15.55-1.34.49-2.37-.34-3.54-2.54-3.58-4.94-7.26-7.19-11.03-.12-.2-.26-.41-.42-.58-.1-.1-.27-.11-.43-.17ZM199.97,84.8c2.9-.34,5.23.11,7.52-.38,1.31-.29,1.43-.41.64-1.43-1.8-2.34-3.64-4.65-5.49-6.95-.9-1.12-1.46-2.59-2.67-3.34-1.34-.82-2.97-.21-4.47-.27-2.62-.09-5.25-.01-7.87.08-1.25.04-1.34.23-.69,1.2,2.3,3.44,4.66,6.85,6.98,10.29.47.7,1.12.81,1.87.8,1.6-.01,3.19,0,4.18,0ZM155.42,171.94c.71-.03.74-.61.88-1.01,1.27-3.7,2.46-7.42,3.78-11.1.34-.96.19-1.68-.33-2.45-1.72-2.59-3.41-5.2-5.13-7.79-.35-.53-.74-1.04-1.16-1.52-.22-.26-.57-.31-.8.02-.18.26-.32.55-.44.85-1.49,3.61-2.96,7.23-4.46,10.84-.39.95-.04,1.66.5,2.42,1.66,2.34,3.25,4.73,4.89,7.09.55.78,1.17,1.52,1.77,2.26.14.17.36.29.51.4ZM190.82,116.54v-.02c1.99,0,3.98.05,5.97-.02,1.45-.05,1.59-.35.76-1.49-2.29-3.16-4.65-6.27-6.92-9.44-.62-.87-1.37-1.25-2.4-1.26-3.42-.03-6.85-.12-10.27-.12-1.52,0-1.63.19-.87,1.4,2.12,3.37,4.31,6.69,6.44,10.06.45.72,1.05.89,1.81.89,1.83-.01,3.66,0,5.5,0ZM158.2,85.46c2.05,0,3.35-.11,5.03-.12.54,0,1,.05,1.26-.45.36-.67-.05-1.14-.46-1.52-1.66-1.53-2.94-3.36-4.4-5.05-1.04-1.2-2.09-2.41-3.12-3.62-1.28-1.5-2.04-2.11-4.25-1.89-.85.11-1.38.12-1.78.13-2.31.06-4.63.1-6.94.21-.96.05-1.13.42-.53,1.21,2.53,3.38,5.12,6.72,7.66,10.1.54.71,1.2,1,2.05,1,1.83,0,3.66,0,5.49,0ZM66.15,69.93c1.89,0,3.33,0,4.76,0,.16,0,.32,0,.48-.01.4-.02.86-.05.99-.49.31-1,.29-2.05.2-3.08-.06-.73-.74-1.02-1.24-1.37-4.85-3.34-9.71-6.67-14.58-9.97-.94-.64-1.23-.48-1.24.65-.03,3.35-.03,6.69-.02,10.04,0,2.5,1.22,3.83,3.73,3.93,2.46.09,4.91.49,6.93.31ZM135.32,122.42c.23-.88-.15-1.42-.5-1.95-.57-.86-1.14-1.73-1.74-2.56-1.25-1.74-2.5-3.49-3.81-5.18-.64-.82-.95-.76-1.28.17-1.33,3.74-2.58,7.52-3.98,11.24-.49,1.29-.24,2.29.49,3.34,1.9,2.75,3.76,5.53,5.65,8.28.26.38.57.91,1.09.78.5-.13.55-.76.66-1.18.47-1.85.96-3.68,1.52-5.51.77-2.5,1.68-4.98,1.9-7.43ZM114.19,90.34c-.14-.37-.25-.85-.49-1.24-1.74-2.76-3.49-5.51-5.28-8.24-.51-.78-.98-.72-1.35.15-1.55,3.66-3.02,7.35-4.6,11-.37.85-.28,1.49.21,2.21,1.83,2.7,3.6,5.44,5.45,8.13.38.56.64,1.56,1.41,1.43.68-.12.78-1.09.99-1.75,1.16-3.63,2.31-7.27,3.45-10.9.07-.23.12-.46.21-.8ZM135.79,109.77c.37,1.73.4,3.8.46,5.87.04,1.56.49,2.94,1.52,4.17.86,1.03,1.56,2.21,2.29,3.34,1.88,2.93,4.1,5.47,7.35,6.94.28.13.56.37.89.21.5-.23.3-.66.24-1.03-.54-3.54-.9-7.1-1.3-10.65-.29-2.59-1.06-4.99-3.94-5.93-.21-.07-.36-.32-.56-.44-1.91-1.13-3.81-2.28-5.75-3.36-.93-.52-1.17-.35-1.19.87ZM22.2,71.67c-2,0-4-.04-6,.01-1.22.03-1.36.34-.79,1.46.18.35.38.71.63,1.02,1.81,2.24,3.68,4.41,5.7,6.47.47.48.95.81,1.64.86,4.07.29,8.13.6,12.19.88.37.03.84.07,1.02-.4.16-.43-.1-.78-.36-1.07-2.23-2.42-4-5.19-5.94-7.82-.67-.9-1.36-1.45-2.58-1.38-1.83.1-4.96-.03-5.52-.03ZM74.82,72.53c-1.6,0-3.2-.02-4.79,0-1.09.02-1.33.4-.76,1.31,1.97,3.19,3.99,6.36,5.97,9.55.42.68.99.98,1.77,1.01,3.35.11,6.7.27,10.05.34,1.06.02,1.22-.37.73-1.34-.18-.35-.41-.68-.63-1.02-1.88-2.88-3.79-5.73-5.61-8.64-.54-.87-1.21-1.18-2.17-1.16-1.52.02-3.25-.02-4.55-.05ZM30.12,40.78c.32,2.08.76,4.91,1.19,7.75.16,1.03.8,1.69,1.59,2.28,1.54,1.14,3.05,2.32,4.58,3.48,1.46,1.11,2.93,2.21,4.4,3.32.32.24.71.48,1.1.28.41-.21.38-.68.31-1.06-.31-1.65-.45-3.32-.46-5-.01-1.6-.12-3.19-.18-4.79-.04-.91-.25-1.71-1.09-2.27-3.06-2.03-6.07-4.14-9.18-6.11-2.08-1.32-2.28-1.15-2.27,2.12ZM14.33,98.93c-1.13-.06-4.15-.04-6.22-.05-.86,0-.91.4-.58,1.06,1.01,2.02,2.63,3.59,3.97,5.37,1.71,2.29,3.06,3.54,6.43,3.79.39.03,1.41.08,1.73.11,2.7.24,4.94.36,7.65.58.38.03.82.08,1.03-.38.15-.34-.04-.64-.24-.87-2.17-2.56-3.94-5.41-5.84-8.17-.61-.88-1.34-1.23-2.4-1.23-1.83,0-3.67-.14-5.5-.22ZM76.75,113.58c.48,0,.96.03,1.44,0,.91-.07,1.06-.36.64-1.25-.2-.43-.48-.83-.73-1.23-1.67-2.72-3.43-5.39-4.99-8.17-.65-1.15-1.4-1.57-2.65-1.56-2.95.02-5.9.07-8.84-.33-1.06-.14-1.38.34-.86,1.23,1.84,3.17,3.75,6.3,5.56,9.49.55.97,1.3,1.3,2.33,1.35,2.7.12,7.34.49,8.1.47ZM89.33,51.27c-.53-.09-.67.24-.79.5-1.63,3.55-3.23,7.11-4.86,10.65-.33.71-.01,1.23.31,1.78.91,1.5,1.82,3,2.74,4.48.84,1.35,1.69,2.7,2.57,4.02.4.6.86.66,1.21-.09.1-.22.23-.42.33-.64,1.5-3.43,2.98-6.87,4.51-10.29.31-.7.1-1.21-.26-1.77-1.73-2.67-3.45-5.36-5.18-8.03-.17-.25-.42-.45-.57-.62ZM57.09,16.57c-.22,1.33.19,1.95.52,2.57.83,1.54,1.69,3.06,2.56,4.59,1.02,1.8,2.04,3.6,3.12,5.36.47.77,1.04.69,1.34-.15.32-.89.5-1.84.82-2.73.81-2.25,1.66-4.48,2.5-6.71.26-.69.53-1.38.08-2.05-2.28-3.46-4.27-7.1-6.81-10.38-.55-.71-.85-.62-1.37.25-.91,1.53-1.18,3.28-1.7,4.95-.5,1.59-.8,3.24-1.06,4.31ZM119.87,85.34c1.4,0,2.71,0,4.07-.05,1.28-.05,1.35-.25.62-1.41-.04-.07-.08-.14-.13-.2-2.59-3.23-5.18-6.47-7.78-9.7-.48-.6-1.14-.86-1.9-.87-2.07-.02-4.15-.08-6.22-.04-1.47.03-1.61.3-.85,1.51,2.03,3.24,4.13,6.44,6.16,9.69.48.77,1.09,1.09,1.96,1.07,1.36-.03,2.71,0,4.07,0ZM107.66,115.08c1.35,0,2.71.04,4.06-.01.96-.03,1.17-.38.7-1.18-.73-1.23-1.57-2.4-2.33-3.62-.64-1.02-1.33-1.99-2.36-2.66-2.21-1.42-4.42-2.84-6.65-4.23-1.65-1.03-3.51-.86-5.32-.84-.45,0-.7.42-.51.86.26.58.6,1.12.93,1.66,1.6,2.57,3.26,5.1,4.8,7.7.94,1.59,1.86,2.15,4.05,2.24.83.04,1.64.08,2.63.07ZM37.27,71.67c-1.19,0-2.39-.03-3.58,0-1.24.04-1.37.28-.71,1.43,1.81,3.1,4.09,5.87,6.12,8.82.4.58.97.76,1.64.79,2.55.11,5.09.29,7.63.35,1.28.03,1.45-.32.79-1.34-1.99-3.08-4.44-5.83-6.26-9.02-.41-.71-1.05-.92-1.81-.91-1.27,0-3.4-.11-3.82-.12ZM53.34,58.48c0-.98-.02-2.74,0-4.49.02-.85-.17-1.54-.94-2.05-2.12-1.41-4.21-2.88-6.33-4.28-.81-.53-1.09-.37-1.17.64-.28,3.66.15,7.32.17,10.98,0,.51.26.9.67,1.21,2.25,1.65,4.48,3.32,6.76,4.93.75.53,1.2.26,1.17-.66-.06-1.83-.2-3.66-.35-6.26ZM29.14,99.43c-1.2,0-2.44-.11-3.64-.08-1,.03-1.1.22-.6,1.15,1.71,3.16,3.94,5.99,5.88,9.01.33.51.8.71,1.41.76,2.63.19,5.25.46,7.88.62,1.15.07,1.32-.28.73-1.23-1.9-3.05-4.19-5.84-5.91-9.01-.43-.79-1.1-1.11-1.97-1.11-1.28,0-2.56-.13-3.79-.12ZM70.33,40.68c.48-.16.6-.53.76-.91,1.38-3.3,2.35-6.76,3.97-9.96.32-.64.29-1.2-.09-1.79-1.38-2.14-2.72-4.3-4.13-6.42-.62-.92-.93-.87-1.47.19-1.62,3.2-2.66,6.63-3.98,9.95-.16.39-.17.78.06,1.14,1.52,2.42,2.69,5.05,4.38,7.37.13.18.35.29.5.42ZM140.51,103.57c-.73,0-1.08-.08-1.36.01-1.26.4-2.65-.24-3.86.49.86.95,2.07,1.4,3.12,2.07,4.55,2.92,9.14,5.8,13.72,8.68.61.38,1.25.7,1.88,1.03.29.15.65.2.83-.12.08-.14-.05-.47-.18-.64-1.48-1.87-3.13-3.6-4.52-5.54-.97-1.35-2.11-2.59-3.15-3.89-1.22-1.54-2.68-2.4-4.75-2.01-.68.13-1.42-.06-1.72-.08ZM91.43,87.81c-1.37-.1-2.75-.07-3.86-.13-.49-.03-.97.08-1.15.64-.15.47-.18.96.17,1.35.2.23.51.37.75.57,2.61,2.23,5.63,3.87,8.38,5.9,1.4,1.03,2.9,1.94,4.38,2.88.31.2.67.57,1.07.29.46-.32.31-.85.28-1.32-.03-.49-.24-.91-.52-1.31-1.25-1.84-2.7-3.58-3.68-5.56-1.37-2.76-2.88-3.12-5.81-3.31ZM11.48,75.96c0,.88.09,1.74.31,2.61.33,1.3.97,2.1,2.43,2.17,1.35.07,2.69.3,4.04.44.22.02.55.02.67-.11.24-.27.07-.58-.13-.84-1.89-2.47-3.79-4.95-5.68-7.42-.42-.55-.89-.47-1.05.11-.27.99-.66,1.98-.59,3.04ZM29.08,46.89c-.12-1.74-.24-3.47-.37-5.21-.1-1.42-.2-2.84-.32-4.26-.04-.44-.27-.83-.75-.5-2.02,1.44-3.31,3.37-3.73,5.84-.08.49.02.95.42,1.29,1.34,1.11,2.69,2.21,4.05,3.3.1.08.31.1.45.07.27-.06.33-.29.24-.53ZM3.77,103.34c0,.4-.03.8,0,1.19.24,2.4.9,3.07,3.25,3.28.95.08,1.91.03,2.83.35.37.13.85.27,1.11-.09.28-.39-.11-.72-.34-1.02-1.42-1.92-2.79-3.88-4.27-5.76-.5-.63-.62-1.99-1.64-1.7-.82.24-.63,1.51-.89,2.32-.14.44-.05.93-.06,1.42ZM58.91,5.02c.07-.42-.24-.59-.55-.52-2.3.57-4.26,1.69-5.61,3.71-.38.57-.45,1.12-.09,1.77.72,1.32,1.37,2.68,2.05,4.03.15.3.36.61.69.55.33-.06.36-.47.46-.76.96-2.77,1.93-5.54,2.9-8.31.05-.15.1-.3.16-.47ZM91.42,84.8c1.17.05,1.49-.32.96-1.23-1.89-3.24-3.84-6.43-5.78-9.64-.39-.64-.96-1.02-1.75-1.09-.9-.08-1.28.29-.9,1.07.49,1,1.11,1.93,1.67,2.89,1.34,2.26,2.68,4.52,4.03,6.78.42.7.87,1.37,1.77,1.22ZM134.02,111.36s.03,0,.05,0c-.06-.8-.14-1.59-.16-2.39-.04-1.78-.92-3-2.5-3.71-1.54-.69-2.84-1.75-4.27-2.63-.32-.2-.64-.68-1.01-.37-.38.33.05.71.26,1.01,2,2.88,3.99,5.77,6.04,8.62.43.6.58,1.54,1.59,1.58v-2.12ZM186.65,143.42c.11,1.23.23,2.65.36,4.07.11,1.24-.16,2.51.35,3.71,1.47-.58,1.73-2.14,2.55-3.24.32-.43.45-1.01.66-1.52.95-2.36.59-3.41-1.68-4.63-.6-.32-1.29-1.02-1.94-.59-.64.42-.21,1.32-.29,2.2ZM199.25,110.22c.11-.76-.28-1.92-.45-3.09-.28-1.83-.99-2.46-2.82-2.62-.55-.05-1.11.04-1.66.11-1.47.17-1.61.37-.85,1.5,1.46,2.17,2.98,4.3,4.48,6.44.18.26.36.56.72.5.39-.06.41-.43.44-.74.05-.55.07-1.11.14-2.11ZM209.48,78.36c.05-1.11-.04-2.3-.31-3.46-.46-1.95-1.37-2.66-3.37-2.62-.63.01-1.26.17-1.89.25-.86.11-.84.58-.44,1.14,1.64,2.24,3.29,4.48,4.95,6.7.17.23.3.62.67.53.37-.09.36-.49.37-.8.02-.55,0-1.11,0-1.75ZM158.73,170.94c.19-.08.43-.14.63-.26,1.36-.83,2.67-1.73,3.79-2.89,1.78-1.84,1.89-2.71.37-4.74-.42-.56-.81-1.5-1.46-1.47-.93.04-.79,1.2-1.15,1.86-.11.21-.2.43-.28.66-.73,2.02-1.45,4.04-2.17,6.07-.1.29-.16.61.27.78ZM76.37,69.96c.28-.07.79.12.95-.32.16-.46-.35-.63-.62-.87-.29-.26-.6-.51-.95-.7-.52-.29-.9-.14-1,.48-.17,1.08.2,1.42,1.62,1.41Z"/>
    </g>
  </g>
</svg>