<?xml version="1.0" encoding="UTF-8"?>
<svg xmlns="http://www.w3.org/2000/svg" baseProfile="tiny" version="1.2" viewBox="0 0 145.21 181.09">
  <!-- Generator: Adobe Illustrator 28.6.0, SVG Export Plug-In . SVG Version: 1.2.0 Build 709)  -->
  <g>
    <g id="Layer_1">
      <g>
        <path d="M134.8,73.41c.25,4.11.52,8.96.86,13.82.34,4.77.71,9.54,1.14,14.3.38,4.21.88,8.41,1.29,12.62.4,4.13.74,8.26,1.13,12.39.14,1.51.41,3,.53,4.51.35,4.53.54,9.08,1.03,13.59.37,3.4.42,6.84,1.18,10.2.07.31.07.63.08.95.12,2.57,0,2.85-2.46,3.61-4.72,1.46-9.43,2.98-14.25,4.12-5.5,1.3-11.01,2.54-16.52,3.78-8.25,1.85-16.59,3.07-24.92,4.45-4.17.69-8.4.95-12.57,1.58-6.62.99-13.29,1.7-19.87,3-3.13.62-6.29,1.07-9.39,1.82-1.53.37-2.86.16-4.17-.45-2.03-.95-4.01-1.97-5.82-3.32-1.86-1.38-3.78-2.69-5.68-4.01-1.41-.98-2.98-1.51-4.71-1.53-4.78-.07-9.55-.52-14.34-.38-2.32.07-2.52-.15-2.92-2.45-.64-3.71-.71-7.46-.83-11.21-.17-5.58-.42-11.17-.45-16.75-.05-6.95.06-13.91.15-20.86.09-7.09.17-14.18.39-21.27.14-4.47.56-8.92.8-13.39.24-4.63.35-9.26.63-13.88.36-5.98.57-11.96,1.41-17.91.27-1.93.99-3.11,2.92-3.84,6.44-2.45,12.99-4.42,19.75-5.71.39-.07.79-.15,1.17-.25,1.45-.4,1.73-.74,1.39-2.23-.93-3.98-1.13-8.05-1.69-12.08-.41-2.92-.77-5.86-1.29-8.76-.38-2.13.03-3.91,1.49-5.53,1.55-1.73,3.25-3.3,4.93-4.9,1.66-1.57,3.79-1.61,5.81-1.9,4.34-.62,8.71-1.07,13.06-1.62,4.2-.54,8.42-.85,12.65-.95,1.9-.04,3.74-.46,5.69.04,4.22,1.07,7.77,3.27,11.08,5.96.5.41.85.98,1,1.61.23,1.02.91,1.22,1.79,1.11,1.5-.18,3.02-.15,4.53-.32,2.25-.25,4.42.45,6.49,1.35,2.58,1.12,4.92,2.64,7.17,4.32,1.24.92,1.91,2.04,2.16,3.56.41,2.52.96,5.01,1.47,7.51.45,2.16.46,2.26,2.61,2.22,1.56-.03,1.91.07,2.55,1.88.11.3.14.62.25.93.48,1.44.48,1.32,1.99,1.29,3.99-.06,7.95-.78,11.95-.62.32.01.64-.01.96.02,2.09.18,2.67.61,3.03,2.69.84,4.95,1.5,9.93,2.14,14.91.65,5.07.6,10.18,1.19,15.25.23,1.97.04,3.98.04,6.73ZM34.85,173.16l-.1.14.08-.09c-.64-.91-1.31-1.81-1.93-2.74-1.5-2.27-2.68-4.72-3.95-7.11-.85-1.6-1.04-1.7-2.82-1.27-2.94.71-5.87,1.46-8.8,2.23-1.46.39-2.89.87-4.34,1.3-.32.1-.63.26-.62.62.02.46.45.36.72.38,2.39.13,4.78.45,7.15.43,4.29-.03,7.65,1.84,10.85,4.35.81.64,1.73,1.13,2.61,1.68.36.23.75.24,1.14.07ZM89.4,37.63l.51-.35c-.86,1.45-2.59,2.9-3.76,4.1-.67.69-1.33,1.37-1.97,2.09-.23.25-.18.81.13.72,1.55-.42,3.43.07,4.57-1.57.82-1.18,1.74-2.28,2.85-3.2l.65-.52c-.21.44-.82,1.26-1.07,1.58-.49.63-1.01,1.24-1.46,1.9-.25.36-.28.9.32.82,2.61-.31,5.21-.69,7.8-1.1.85-.14,1.12-.71.93-1.6-.47-2.18-.84-4.38-1.3-6.57-.34-1.65-.47-1.82-2.27-1.75-2.55.09-5.1.27-7.63.55-4.83.53-9.65,1.12-14.47,1.74-2.37.31-4.73.69-7.08,1.13-1.77.33-1.85.52-1.5,2.21.54,2.57,1.14,5.14,1.65,7.72.17.86.59,1.28,1.45,1.23.8-.05,1.6-.07,2.39-.2,3.38-.54,6.75-1.21,10.14-1.65,1.46-.19,2.44-.73,3.41-1.85,1.72-1.98,3.55-3.88,5.69-5.43ZM43.17,143.43c.3,5.44-.09,10.86-.56,16.27-.37,4.28-.77,8.55-.76,12.85,0,2.4.3,2.62,2.67,2.17.23-.04.46-.16.69-.2,4.95-.85,9.88-1.81,14.86-2.5,6.55-.92,13.13-1.62,19.69-2.43,1.66-.2,3.37-.28,4.97-.71,2.48-.67,5.03-.86,7.55-1.22,5.29-.76,10.56-1.56,15.78-2.72,6.15-1.37,12.3-2.72,18.4-4.32,3.16-.83,6.35-1.59,9.4-2.77,3.89-1.51,3.28-1.19,3.12-4.84-.2-4.78-.77-9.55-1.18-14.32-.19-2.23-.38-4.45-.59-6.68-.35-3.65-.73-7.3-1.06-10.96-.39-4.37-.71-8.75-1.12-13.12-.54-5.8-1.24-11.58-1.7-17.38-.45-5.72-.71-11.46-1.01-17.2-.28-5.26-.23-10.54-.43-15.81-.24-6.41-1.22-12.71-2.01-19.05-.22-1.72-.42-1.8-2.22-1.33-2.09.54-4.15,1.16-6.24,1.67-3.33.81-6.69,1.54-10.03,2.33-1.47.35-1.55.42-1.39,1.94.16,1.51.47,2.99.66,4.5.43,3.48.84,6.96,1.23,10.45.02.21-.08.61-.19.64-.44.11-.48-.29-.53-.59-.81-5.12-1.71-10.24-2.4-15.37-.99-7.36-2.43-14.64-3.88-21.91-.14-.72-.33-1.45-.89-1.93-2.56-2.18-5.2-4.25-8.37-5.5-1.12-.44-1.41-.19-1.12,1.07.87,3.89,1.79,7.78,2.69,11.66,1.21,5.21,2.48,10.4,3.24,15.7.85,6,1.78,11.99,2.34,18.02.18,1.96.64,2.33,2.63,2.15,1.51-.14,3-.43,4.5-.64.23-.03.49-.03.5.28,0,.09-.18.24-.31.27-2.15.63-4.35.98-6.6.96-.86,0-1.36-.43-1.49-1.25-.18-1.1-.31-2.21-.46-3.32-.55-4.03-1.06-8.07-1.67-12.09-.34-2.22-.54-2.34-2.81-2.04-2.37.32-4.73.74-7.09,1.09-4.18.61-8.36,1.2-12.55,1.8-3.08.44-6.15.9-9.23,1.33-.78.11-1.15.46-1.03,1.27.05.32.05.64.11.95.87,4.38,1.69,8.77,1.97,13.25.04.71.22,1.5-.07,2.13-.54-.64-.57-1.46-.68-2.21-.88-6.25-2.18-12.41-3.5-18.57-1.49-6.94-3.2-13.84-4.82-20.76-.49-2.1-.95-4.2-1.48-6.29-.22-.87-.61-.97-1.37-.4-1.87,1.4-3.45,3.07-4.85,4.95-.59.79-.64,1.62-.49,2.5,1.28,7.79,1.82,15.69,3.27,23.46,1.15,6.2,2.5,12.36,4.27,18.41.44,1.51.94,1.9,2.44,1.57,1.65-.37,3.21-.36,4.97-.67.16-.01.42.04.49.14.1.14-.09.33-.28.37-2.19.45-4.36.98-6.6,1.11-1.4.08-1.69-.13-2.08-1.46-.74-2.53-1.46-5.06-2.07-7.62-.69-2.87-1.23-5.77-1.86-8.66-.33-1.5-.36-1.49-1.9-1.45-.16,0-.32,0-.48.02-4.04.44-8.06,1.15-12.16.98-.97-.04-1.37.45-1.57,1.4-.78,3.52-1.06,7.1-1.28,10.67-.29,4.52-.03,9.05.15,13.59.15,3.75.46,7.48.64,11.22.13,2.64.39,5.25.73,7.86.66,4.98,1.5,9.93,2.21,14.9.4,2.84.63,5.7,1.03,8.54.69,4.98.97,10,1.23,15.01.15,2.95.03,5.91.03,8.87ZM5.73,136.87c0,2.51.08,4.79.14,7.19.12,4.38.25,8.76.49,13.14.13,2.38.3,4.77.73,7.12.17.96.62,1.13,1.49.92,5.66-1.38,11.3-2.8,16.99-4.06,1.7-.38,2.33-1.28,2.67-2.84.67-3.06.93-6.16,1.19-9.26.81-9.46,1.42-18.93,2.38-28.39.86-8.5,2.28-16.91,3.63-25.34.3-1.85.3-3.65.12-5.48-.07-.71-.18-1.43-.2-2.14-.07-4.55-.16-9.1-.18-13.66-.03-7.12.29-14.2,1.59-21.23.31-1.66.88-2.79,2.66-3.19,1.24-.27,2.43-.78,3.63-1.22.19-.07.43-.31.45-.5.05-.5-.41-.34-.68-.41-.15-.04-.32-.01-.48-.02-9.19-.48-18.35.2-27.5.97-1.66.14-3.3.51-4.96.75-.84.12-1.21.51-1.29,1.39-.39,3.96-1.02,7.91-1.26,11.88-.32,5.34-.1,10.69-.48,16.04-.24,3.33-.49,6.67-.5,10.03-.02,4.69-.41,9.37-.48,14.06-.12,7.97-.11,15.95-.14,23.92-.01,3.44,0,6.87,0,10.31ZM40.53,137.83c.21-5.03-.15-10.92-.99-16.76-.31-2.14-.3-4.29-.66-6.42-.71-4.24-1.38-8.48-2.05-12.73-.11-.71-.14-1.43-.23-2.14-.02-.11-.2-.27-.31-.29-.13-.01-.35.09-.39.19-.14.36-.27.74-.32,1.13-.21,1.58-.33,3.17-.59,4.74-1.25,7.39-2.01,14.84-2.65,22.3-.46,5.39-.69,10.81-1.07,16.22-.36,5.17-.91,10.32-1.66,15.44-.15,1.01-.07,1.89.29,2.78.3.74.63,1.47.98,2.18,1.64,3.31,3.57,6.42,6.23,9.02.39.38.79.97,1.38.8.69-.19.43-.94.49-1.46.06-.55,0-1.12.02-1.67.08-2.95-.06-5.93.29-8.85.67-5.54,1-11.1,1.24-16.67.1-2.31.02-4.63.02-7.83ZM40.13,16.12c.75,3.42,1.49,6.85,2.25,10.27.73,3.26,1.46,6.53,2.27,9.78.36,1.45.61,1.56,2.01,1.29,1.25-.24,2.49-.59,3.74-.76,1.02-.14,1.39-.62,1.26-1.6-.06-.4-.05-.8-.11-1.19-.41-2.68-.8-5.36-1.27-8.02-.28-1.59-.04-2.97,1.02-4.24,1.8-2.16,3.78-4.12,5.93-5.91.69-.58,1.51-.94,2.38-1.07,3.63-.53,7.25-1.03,10.89-1.49,1.84-.23,2.24-.4,2.22-1.22-.03-1.11-.77-1.6-2.54-1.37-3.24.41-6.49.75-9.74,1.08-4.35.44-8.69,1.1-13.02,1.72-2.05.29-4.09.67-6.12,1.07-1.09.21-1.32.62-1.17,1.66ZM69.32,4.3c-3.46.62-7.54.33-11.59.77-5.71.62-11.4,1.33-17.09,2.12-1.5.21-3.04.39-4.23,1.47-1.36,1.24-2.71,2.49-4.02,3.77-.44.43-1.19.94-.96,1.54.29.73,1.09.05,1.66.13.46.06.96-.04,1.43-.11,6.46-.98,12.92-1.99,19.39-2.95,7.73-1.15,15.49-2.02,23.31-2.3.48-.02.96-.02,1.44-.06.23-.02.53-.06.52-.35,0-.21-.12-.49-.28-.6-2.71-1.89-5.54-3.5-9.58-3.43ZM37,14.79c-1.73.27-3.48.49-5.19.83-1.46.3-1.43.36-1.23,1.97.56,4.43,1.08,8.87,1.68,13.3.36,2.68.8,5.36,1.3,8.02.25,1.35.35,1.38,1.75,1.14,1.57-.28,3.11-.71,4.68-.99,3.47-.64,3.45-.62,2.7-4.16-.76-3.59-1.45-7.19-2.23-10.78-.57-2.65-1.25-5.28-1.86-7.93-.2-.87-.54-1.52-1.6-1.39ZM18.26,47.18c2.1-.36,4.41-.41,6.72-.48,1.12-.03,2.24-.01,3.35-.13,5.98-.61,11.95-.22,17.93.18.69.05,1.39.2,1.51.91.28,1.71,1.45,1.62,2.67,1.46.79-.1,1.56-.3,2.35-.41.95-.12,1.12-.62.96-1.51-.43-2.35-.79-4.71-1.15-7.08-.27-1.81-.51-2.01-2.31-1.7-.31.05-.61.18-.92.25-5.45,1.16-10.92,2.26-16.36,3.49-5.05,1.14-10.15,2.11-15.06,3.81-.65.22-1.7.23-1.65.98.03.45,1.14.07,1.95.21ZM61.92,21.56c1.26-.18,2.54-.31,3.79-.56,4.7-.94,9.44-1.61,14.19-2.18,3.64-.44,7.28-.89,10.94-1.2,3.17-.27,3.05-.12,2.14-3.52-.26-.99-.78-1.29-1.69-1.27-2.4.07-4.8.02-7.19.21-3.89.32-7.76.85-11.65,1.21-3.02.28-6.05.6-9.01,1.25-4.45.98-3.75.15-2.89,4.73.04.23.12.47.22.68.23.48.6.73,1.15.64ZM64.97,34.01c2.28-.32,4.57-.62,6.85-.96,1.41-.21,2.82-.46,4.23-.69.68-.11.97-.5.84-1.17-.59-3.13-1.19-6.25-1.78-9.37-.17-.91-.67-1.07-1.56-.91-1.8.31-3.63.42-5.43.74-1.8.31-3.56.78-5.35,1.16-.79.17-1.05.6-.87,1.37.68,3.02,1.35,6.05,2.04,9.07.12.51.43.85,1.03.77ZM83.04,19.68c-1.81.23-3.63.42-5.44.7-.64.1-1.26.41-1.08,1.27.63,3.12,1.26,6.24,1.92,9.35.16.77.64,1.37,1.51,1.19,1.88-.4,3.81-.26,5.68-.74.81-.2,1.1-.56.97-1.31-.55-3.05-1.13-6.1-1.68-9.16-.2-1.1-.87-1.42-1.88-1.31ZM91.38,30.85c1.36-.03,2.71-.07,4.04-.37.69-.16.96-.55.82-1.19-.28-1.32-.6-2.64-.91-3.95-.42-1.78-.83-3.56-1.26-5.34-.18-.76-.57-1.36-1.47-1.24-1.65.21-3.3.47-4.95.72-.76.12-1.04.48-.89,1.32.44,2.42.69,4.88,1.17,7.3.6,3.05.16,2.91,3.45,2.75ZM121.95,35.53c-2.65.27-5.15.26-7.85.46-1.34.1-2.68.25-4.02.4-.39.04-.78.12-.84.64-.2,1.74.58,2.55,2.28,2.17,3.65-.8,7.27-1.67,10.91-2.53.65-.15,1.79,0,1.68-.85-.07-.59-1.25-.38-2.16-.3ZM75.94,12.5c1.04-.32,2.48-.25,3.9-.37.71-.06,1.43-.01,2.11-.31.7-.3.82-1.05.21-1.49-.24-.18-.56-.32-.85-.33-2.15-.1-4.29-.06-6.43.14-.75.07-.91.54-.76,1.17.18.76.56,1.32,1.82,1.19ZM110.09,35.07c.47-.1,1.01-.21,1.55-.32.57-.11.76-.44.69-1.02-.17-1.42-.62-1.63-1.8-.78-.38.28-.75.59-1.09.91-.23.22-.42.48-.23.83.18.32.49.35.89.37ZM43.78,49.98c.87-.1,1.72-.23,2.56-.42.48-.11.52-.52.46-.94-.07-.47-.38-.73-.82-.53-.86.38-1.7.83-2.53,1.27-.12.06-.37.22-.41.48.09.16.42.17.74.15ZM109.95,32.13c.05-.29-.12-.44-.36-.49-.43-.08-.79.03-.9.5-.06.23.08.47.32.53.46.1.7-.24.94-.54Z"/>
        <path d="M69.2,118.21c-.1-2.63.55-5.02,1.22-7.4.13-.46.27-.92.46-1.36.36-.82.15-1.34-.68-1.72-.76-.36-2.03-.35-2.12-1.3-.11-1.12,1.22-1.31,1.98-1.81,2.22-1.45,4.74-2.27,7.17-3.27,1.01-.41,1.71-.1,2.27.72,1.86,2.71,3.42,5.59,4.35,8.75.33,1.13-.02,1.52-1.15,1.42-.55-.05-1.09-.23-1.63-.35-1.6-.35-1.93-.2-2.45,1.39-.6,1.85-.4,3.65.62,5.29.99,1.59,2.53,2.19,4.33,1.93,1.34-.2,2.64-.6,3.95-.93,1.31-.33,1.47-.31,2,.92.72,1.69,1.41,3.39,2.02,5.12.47,1.32.25,2-1.04,2.51-4.78,1.87-9.68,2.92-14.65.76-3.75-1.63-5.68-4.75-6.49-8.63-.15-.7-.13-1.43-.18-2.04ZM81.22,128.74c3.04,0,4.89-.57,7.31-1.42,1.69-.6,1.76-.82,1.19-2.66-.23-.76-.44-1.54-.73-2.28-.55-1.42-.59-1.43-2.1-1.1-1.4.31-2.79.73-4.25.63-2.27-.15-3.91-1.19-4.79-3.36-.9-2.22-.73-4.36.27-6.48.64-1.36.77-1.41,2.38-1.12.39.07.79.11,1.19.15.77.06,1-.26.74-1-.91-2.66-2.21-5.13-3.67-7.51-.29-.47-.73-.59-1.24-.41-2.66.91-5.14,2.17-7.48,3.71-.39.26-.48.62.07.87.29.13.58.26.86.41,1.36.73,1.44.79.9,2.21-.9,2.34-1.39,4.78-1.57,7.23-.52,6.83,3.91,11.58,10.92,12.15Z"/>
        <path d="M115.79,113.55c-.06,3.4-1.28,7.03-5.15,9.33-1.18.7-2.5,1.03-3.83,1.33-1.4.33-1.41.34-1.08,1.74.05.23.21.44.26.67.14.71-.26,1.09-.97.85-1.36-.47-2.71-.96-4.02-1.56-2.18-1-4.24-2.21-6.21-3.61-.91-.65-1.3-1.47-.86-2.47,1.25-2.86,2.66-5.65,5.01-7.81.7-.65.97-.56,1.42.29.56,1.06,1.04,2.17,1.67,3.18.58.92,1.03.96,2.02.43,1.62-.86,2.54-2.76,2.26-4.88-.22-1.61-.84-3.06-1.95-4.29-1.63-1.82-1.96-1.71.19-4.11,1-1.12,2.18-2.1,3.61-2.73.86-.38,1.56-.25,2.18.35.46.44.88.93,1.26,1.45,2.38,3.29,4.11,6.84,4.2,11.85ZM114.49,112.98c.13-3.5-1.15-6.54-3.05-9.38-2.23-3.34-2.58-3.16-5.66-.6-.24.2-.44.46-.65.7-.62.69-.71,1.33-.03,2.1.96,1.08,1.75,2.32,2.13,3.71.73,2.72.41,6.64-3.63,7.64-1.24.31-1.56.33-2.19-.72-.53-.89-.93-1.85-1.39-2.78-.3-.61-.71-.57-1.1-.12-1.63,1.88-2.92,3.99-4.07,6.18-.39.75-.26,1.39.48,1.85,2.44,1.51,4.82,3.14,7.63,3.94,1.22.35,1.28.34,1.21-1.07-.06-1.01.6-.96,1.22-1.04,3.87-.47,6.71-2.31,8.3-5.98.62-1.43.78-2.91.81-4.44Z"/>
        <path d="M104.19,93.44c0,1.36-.03,2.54-.12,3.89-.1,1.52-.37,1.65-1.82,2.03-2.42.63-4.51.4-7.07.68-.41.02-.91.04-1.22-.03-2.02-.46-2.24-.97-1.18-2.78.08-.14.17-.27.26-.4,1.22-1.92,1.14-2.32-.67-3.6-2.32-1.64-4.3-1.28-5.91,1.12-.67,1-1.16,2.1-1.45,3.26-.22.87-.74,1.18-1.58,1.02-2.12-.38-4.22-.8-6.26-1.51-1.28-.45-1.6-1.02-1.28-2.38,1.71-7.33,8.18-12.41,16.31-10.72,3.05.63,5.75,1.92,7.66,4.51.59.8,1.15.99,1.98.36.55-.42,1.14-1.11,1.9-.69.86.48.45,1.43.48,2.19.04.96-.04,2.07-.02,3.05ZM103.35,92.11c0-.54,0-.78,0-1.02,0-.16,0-.32-.03-.48-.11-.79-.41-.95-1.1-.59-1.78.94-1.79.95-2.98-.57-3-3.84-7.03-5-11.69-4.53-5.68.57-9.5,5.61-10.41,9.89-.15.68.03,1.02.63,1.31,1.6.79,3.37.93,5.07,1.33.69.16,1.02-.3,1.26-.84.4-.87.67-1.81,1.17-2.61,2.02-3.23,5.42-4.17,8.58-1.01,1.39,1.38,1.46,2.26.46,4-.12.21-.27.4-.38.61-.48.95-.29,1.36.8,1.32,2.47-.1,4.93-.28,7.39-.49.98-.09,1.24-.56,1.2-1.66-.08-1.81.03-3.26.03-4.67Z"/>
        <path d="M50.93,168.48c-.51-.05-.93-.02-1.01-.37-.11-.47.3-.76.67-.84,2.41-.53,4.82-1.09,7.26-1.49,5.36-.89,10.76-1.44,16.2-1.51,4.88-.06,9.71-.48,14.52-1.26,1.33-.22,2.68-.36,4.02-.53.23-.03.48,0,.72.02-.23.08-.46.19-.7.25-2.71.64-5.48.98-8.24,1.34-5.3.7-10.63,1.03-15.95,1.55-5.16.5-10.25,1.47-15.34,2.47-.78.15-1.57.28-2.16.38Z"/>
        <path d="M124.06,57.69c0-1.95,0-4.02.01-6.1,0-.2.06-.53.41-.41.12.04.23.2.29.33.06.14.08.31.09.47.13,2.71.36,5.41.36,8.12,0,4.97.7,9.85,1.36,14.75.42,3.15.94,6.3,1.1,9.49.16,3.02.64,6.03.55,9.07,0,.24,0,.48-.04.72-.03.17-.1.34-.16.51-.02-.16-.05-.31-.07-.47-.15-1.35-.35-2.69-.45-4.04-.43-6.13-1.39-12.19-2.3-18.26-.7-4.65-1.26-9.33-1.16-14.19Z"/>
        <path d="M78.13,159.06c-.79.16-1.01.21-1.23.24-3.22.46-6.44.86-9.7,1.01-3.73.17-7.43.66-11.09,1.4-.54.11-1.08.25-1.63.34-.25.04-.48-.1-.5-.38,0-.11.11-.31.22-.35.67-.25,1.33-.56,2.02-.68,3.29-.53,6.59-1.11,9.94-1.06,3.5.05,6.99-.09,10.47-.52.31-.04.62,0,1.5,0Z"/>
        <path d="M22.76,104.47c-.05-6.4.77-12.74,1.18-19.11.34-5.32.85-10.64,1.25-15.96.15-1.98.17-3.98.46-5.95.03-.21.17-.58.24-.58.42.01.45.38.46.7.02.56.05,1.12,0,1.68-.45,4.92-.69,9.85-.97,14.78-.31,5.41-.62,10.82-1,16.22-.33,4.68-.47,9.39-1.28,14.03-.04.23-.09.47-.13.7-.35-.17-.19-.5-.2-.75-.02-1.92-.01-3.83-.01-5.75Z"/>
        <path d="M28.57,84.25c.18-4.94.36-9.88.54-14.81,0-.24,0-.48.02-.72.01-.24.04-.52.38-.46.09.01.19.25.2.39,0,2.23.17,4.49-.07,6.7-.27,2.47-.2,4.94-.38,7.4-.15,2.14-.3,4.29-.45,6.43-.02.23-.07.47-.11.7-.05-.28-.14-.56-.15-.83-.01-1.6,0-3.19,0-4.79,0,0,.02,0,.03,0Z"/>
        <path d="M20.67,85.59c-.19,3.6-.36,6.94-.55,10.28-.03.47-.08.95-.19,1.41-.07.28-.26.53-.4.79-.03-.24-.08-.47-.08-.71-.03-1.04-.06-2.07-.06-3.11-.01-3.83,0-7.65.61-11.44.05-.31.07-.68.5-.66.07,0,.17.39.17.6.02,1.04,0,2.07,0,2.84Z"/>
        <path d="M15.25,89.92c-.01.2-.24.59-.35.56-.13-.04-.11-.32-.09-.5.08-.62.15-1.26.21-1.89.06-.63.02-1.27.06-1.9.02-.31.11-.61.17-.91.28.23.18.56.18.84,0,.55-.05,1.11-.07,1.66-.01.39-.06,1.43-.11,2.14Z"/>
        <path d="M36.93,146.26c.18,3.98-.42,7.77-.48,11.59,0,.56.02,1.12-.29,1.62-.08.13-.2.22-.3.33-.05-.14-.14-.28-.13-.42.03-1.51-.04-3.04.14-4.54.49-4.13.4-8.27.44-12.41,0-.48,0-.96.01-1.43.01-.29-.09-.76.26-.8.44-.05.34.44.35.71.02,1.83,0,3.66,0,5.35Z"/>
        <path d="M84.57,37.29c-2.02,2.49-4.91,4.83-7.37,6.86-.15.12-.39.14-.59.21.04-.14.04-.34.14-.42,2.48-2.09,4.53-4.69,7.38-6.36l.45-.29Z"/>
        <path d="M75.92,40.85c.57-1.15,1.34-2.11,2.4-2.84l.46-.39c-.3,1.33-2.05,2.25-2.83,3.19l-.03.05Z"/>
        <path d="M71.6,41.23c.04-.07.07-.13.11-.2.22-.39.45-.78.91-.93.02,0,.13.12.11.15-.24.48-.71.96-1.27,1.22l.14-.24Z"/>
        <path d="M91.75,39.42"/>
        <path d="M75.95,40.8s-.02.03-.03.05l.03-.05Z"/>
        <path d="M39.96,35.06c-.87-.59-1.53-1.35-1.84-2.37l-.09-.39c.74.71,1.6,1.73,1.93,2.77h0Z"/>
        <path d="M39.96,35.06"/>
        <path d="M82.58,27.59c-.21.29-.46.65-.72,1-.02-.14-.08-.29-.05-.42.11-.44.31-.84.7-1.11.02.14.03.28.06.52Z"/>
        <path d="M82.28,23.16c-.2.37-.12.93-.7,1.09-.03-.14-.12-.3-.07-.4.16-.34.33-.69.57-.98.08-.1.24.08.2.29Z"/>
      </g>
    </g>
  </g>
</svg>